<svg width="18" height="14" viewBox="0 0 18 14" fill="none" xmlns="http://www.w3.org/2000/svg">
<path fill-rule="evenodd" clip-rule="evenodd" d="M17.7744 6.45189C17.9189 6.59732 18 6.79446 18 7C18 7.20554 17.9189 7.40268 17.7744 7.54811L11.6027 13.7531C11.5321 13.8293 11.4469 13.8905 11.3523 13.9329C11.2577 13.9752 11.1555 13.998 11.0519 13.9999C10.9483 14.0017 10.8455 13.9826 10.7494 13.9436C10.6533 13.9045 10.5661 13.8465 10.4928 13.7728C10.4196 13.6992 10.3618 13.6114 10.323 13.5149C10.2842 13.4183 10.2652 13.3148 10.267 13.2107C10.2688 13.1065 10.2915 13.0038 10.3336 12.9087C10.3758 12.8136 10.4366 12.7279 10.5124 12.6569L15.3674 7.77563H0.771458C0.566854 7.77563 0.37063 7.69391 0.225954 7.54845C0.0812778 7.40299 0 7.20571 0 7C0 6.79429 0.0812778 6.59701 0.225954 6.45155C0.37063 6.30609 0.566854 6.22437 0.771458 6.22437H15.3674L10.5124 1.34309C10.4366 1.27208 10.3758 1.18645 10.3336 1.0913C10.2915 0.996162 10.2688 0.893455 10.267 0.789311C10.2652 0.685167 10.2842 0.58172 10.323 0.48514C10.3618 0.388561 10.4196 0.300828 10.4928 0.227176C10.5661 0.153524 10.6533 0.0954606 10.7494 0.0564506C10.8455 0.0174406 10.9483 -0.00171679 11.0519 0.000120711C11.1555 0.00195821 11.2577 0.0247529 11.3523 0.0671456C11.4469 0.109538 11.5321 0.17066 11.6027 0.246865L17.7744 6.45189Z" fill="white"/>
</svg>
