<svg width="20" height="17" viewBox="0 0 20 17" fill="none" xmlns="http://www.w3.org/2000/svg">
<path fill-rule="evenodd" clip-rule="evenodd" d="M13.764 0C14.3211 1.8928e-05 14.8671 0.155134 15.341 0.447969C15.8148 0.740804 16.1978 1.15979 16.447 1.658L17.833 4.429C18.077 4.329 18.317 4.221 18.553 4.105C18.7904 3.98645 19.0651 3.96705 19.3168 4.05106C19.5685 4.13508 19.7764 4.31563 19.895 4.553C20.0136 4.79037 20.033 5.06511 19.9489 5.31678C19.8649 5.56846 19.6844 5.77645 19.447 5.895C19.2066 6.00198 18.9649 6.10598 18.722 6.207L19.683 8.13C19.8916 8.54695 20.0001 9.00678 20 9.473V12C20 12.4221 19.9109 12.8394 19.7386 13.2247C19.5663 13.61 19.3146 13.9546 19 14.236V15.5C19 15.8978 18.842 16.2794 18.5607 16.5607C18.2794 16.842 17.8978 17 17.5 17C17.1022 17 16.7206 16.842 16.4393 16.5607C16.158 16.2794 16 15.8978 16 15.5V15H4V15.5C4 15.8978 3.84196 16.2794 3.56066 16.5607C3.27936 16.842 2.89782 17 2.5 17C2.10218 17 1.72064 16.842 1.43934 16.5607C1.15804 16.2794 1 15.8978 1 15.5V14.236C0.386 13.686 0 12.888 0 12V9.472C0.000186879 9.00646 0.108716 8.54735 0.317 8.131L1.27 6.223C1.02867 6.12167 0.790333 6.01267 0.555 5.896C0.318832 5.77591 0.13931 5.56782 0.0551326 5.3166C-0.0290444 5.06538 -0.011135 4.79114 0.105 4.553C0.163659 4.43543 0.244912 4.33057 0.344116 4.24442C0.443321 4.15826 0.558531 4.0925 0.683161 4.0509C0.807792 4.00929 0.939401 3.99266 1.07046 4.00194C1.20153 4.01122 1.32948 4.04624 1.447 4.105C1.68367 4.22167 1.92367 4.32967 2.167 4.429L3.553 1.659C3.80205 1.16061 4.18497 0.741412 4.65885 0.448394C5.13273 0.155376 5.67884 0.000111784 6.236 0H13.764ZM5.5 9C5.10218 9 4.72064 9.15804 4.43934 9.43934C4.15804 9.72064 4 10.1022 4 10.5C4 10.8978 4.15804 11.2794 4.43934 11.5607C4.72064 11.842 5.10218 12 5.5 12C5.89782 12 6.27936 11.842 6.56066 11.5607C6.84196 11.2794 7 10.8978 7 10.5C7 10.1022 6.84196 9.72064 6.56066 9.43934C6.27936 9.15804 5.89782 9 5.5 9ZM14.5 9C14.1022 9 13.7206 9.15804 13.4393 9.43934C13.158 9.72064 13 10.1022 13 10.5C13 10.8978 13.158 11.2794 13.4393 11.5607C13.7206 11.842 14.1022 12 14.5 12C14.8978 12 15.2794 11.842 15.5607 11.5607C15.842 11.2794 16 10.8978 16 10.5C16 10.1022 15.842 9.72064 15.5607 9.43934C15.2794 9.15804 14.8978 9 14.5 9ZM13.764 2H6.236C6.07141 1.99998 5.90935 2.04058 5.76422 2.11821C5.61908 2.19583 5.49535 2.30808 5.404 2.445L5.342 2.553L4.072 5.091C5.62 5.555 7.706 6 10 6C12.142 6 14.101 5.612 15.61 5.183L15.927 5.091L14.658 2.553C14.5844 2.40581 14.4756 2.27907 14.3413 2.184C14.207 2.08893 14.0513 2.02847 13.888 2.008L13.765 2H13.764Z" fill="white"/>
</svg>
