<svg width="14" height="10" viewBox="0 0 14 10" fill="none" xmlns="http://www.w3.org/2000/svg">
<path d="M4.78796 7.81737L12.4609 0.267261C12.642 0.089087 12.8532 0 13.0946 0C13.3361 0 13.5473 0.089087 13.7284 0.267261C13.9095 0.445434 14 0.657164 14 0.90245C14 1.14774 13.9095 1.35917 13.7284 1.53675L5.42171 9.73274C5.24064 9.91091 5.02939 10 4.78796 10C4.54653 10 4.33528 9.91091 4.15421 9.73274L0.261162 5.902C0.0800896 5.72383 -0.00682502 5.5124 0.000417858 5.26771C0.00766074 5.02301 0.10212 4.81128 0.283795 4.63252C0.465471 4.45375 0.680645 4.36466 0.929317 4.36526C1.17799 4.36585 1.39286 4.45494 1.57393 4.63252L4.78796 7.81737Z" fill="white"/>
</svg>
