<svg width="18" height="18" viewBox="0 0 18 18" fill="none" xmlns="http://www.w3.org/2000/svg">
<g clip-path="url(#clip0_5065_33371)">
<path d="M9.5 1C9.5 0.723858 9.27614 0.5 9 0.5C8.72386 0.5 8.5 0.723858 8.5 1L9 1L9.5 1ZM8.64645 13.1354C8.84171 13.3306 9.15829 13.3306 9.35355 13.1354L12.5355 9.95339C12.7308 9.75813 12.7308 9.44155 12.5355 9.24628C12.3403 9.05102 12.0237 9.05102 11.8284 9.24628L9 12.0747L6.17157 9.24628C5.97631 9.05102 5.65973 9.05102 5.46447 9.24628C5.2692 9.44155 5.2692 9.75813 5.46447 9.95339L8.64645 13.1354ZM9 1L8.5 1L8.5 12.7818L9 12.7818L9.5 12.7818L9.5 1L9 1Z" fill="#34312C"/>
<path d="M1.14453 11.209V17.0999H16.8536V11.209" stroke="#34312C" stroke-linecap="round"/>
</g>
<defs>
<clipPath id="clip0_5065_33371">
<rect width="18" height="18" fill="white"/>
</clipPath>
</defs>
</svg>
