<svg width="1181" height="82" viewBox="0 0 1181 82" fill="none" xmlns="http://www.w3.org/2000/svg">
<path d="M1177.84 13.6719L1177.35 13.8906C1174.5 11.2656 1171.07 9.16927 1167.06 7.60156C1163.09 6.03385 1158.72 5.25 1153.94 5.25C1149.35 5.25 1145.13 5.97917 1141.31 7.4375C1137.48 8.85938 1134.18 10.9375 1131.41 13.6719C1128.67 16.4062 1126.54 19.7604 1125.01 23.7344C1123.48 27.7083 1122.71 32.2292 1122.71 37.2969C1122.71 42.875 1123.44 48.0885 1124.9 52.9375C1126.36 57.75 1128.53 61.9245 1131.41 65.4609C1134.29 68.9974 1137.88 71.7865 1142.18 73.8281C1146.52 75.8333 1151.57 76.8359 1157.33 76.8359C1159.41 76.8359 1161.49 76.6172 1163.56 76.1797C1165.64 75.7422 1167.63 75.1042 1169.52 74.2656C1171.46 73.3906 1173.26 72.3516 1174.94 71.1484C1176.65 69.9089 1178.2 68.5052 1179.59 66.9375L1180.19 67.3203L1175.81 78.4766C1173.08 79.5339 1170.05 80.3359 1166.74 80.8828C1163.45 81.4661 1160.14 81.7578 1156.78 81.7578C1150.04 81.7578 1143.86 80.7917 1138.24 78.8594C1132.67 76.8906 1127.85 74.1198 1123.81 70.5469C1119.8 66.974 1116.66 62.6901 1114.4 57.6953C1112.18 52.6641 1111.06 47.0859 1111.06 40.9609C1111.06 37.4974 1111.5 34.0885 1112.38 30.7344C1113.29 27.3802 1114.6 24.1901 1116.31 21.1641C1118.03 18.138 1120.14 15.3672 1122.66 12.8516C1125.17 10.2995 1128.04 8.09375 1131.24 6.23438C1134.49 4.375 1138.04 2.9349 1141.91 1.91406C1145.81 0.856771 1150.02 0.328125 1154.54 0.328125C1161.58 0.328125 1168.1 1.40365 1174.12 3.55469L1177.84 13.6719Z" fill="#34312C" fill-opacity="0.1"/>
<path d="M1076.18 79.8438C1076.4 79.0781 1076.6 78.1302 1076.78 77C1076.97 75.8698 1077.13 74.4661 1077.28 72.7891C1077.42 71.112 1077.53 69.125 1077.6 66.8281C1077.68 64.4948 1077.71 61.7786 1077.71 58.6797V23.0781C1077.71 19.9792 1077.68 17.2812 1077.6 14.9844C1077.53 12.651 1077.42 10.6458 1077.28 8.96875C1077.13 7.25521 1076.97 5.83333 1076.78 4.70312C1076.6 3.57292 1076.4 2.625 1076.18 1.85938V1.64062H1089.25V1.85938C1089.03 2.625 1088.81 3.57292 1088.6 4.70312C1088.41 5.83333 1088.25 7.25521 1088.1 8.96875C1087.99 10.6458 1087.89 12.651 1087.78 14.9844C1087.7 17.2812 1087.67 19.9792 1087.67 23.0781V58.6797C1087.67 61.7786 1087.7 64.4948 1087.78 66.8281C1087.89 69.125 1087.99 71.112 1088.1 72.7891C1088.25 74.4661 1088.41 75.8698 1088.6 77C1088.81 78.1302 1089.03 79.0781 1089.25 79.8438V80.0625H1076.18V79.8438Z" fill="#34312C" fill-opacity="0.1"/>
<path d="M986.996 1.64062L1043.32 61.5781V23.0781C1043.32 19.9792 1043.29 17.2812 1043.21 14.9844C1043.14 12.651 1043.03 10.6458 1042.89 8.96875C1042.74 7.25521 1042.56 5.83333 1042.34 4.70312C1042.16 3.57292 1041.96 2.625 1041.74 1.85938V1.64062H1051.47V1.85938C1051.25 2.625 1051.05 3.57292 1050.87 4.70312C1050.69 5.83333 1050.52 7.25521 1050.38 8.96875C1050.23 10.6458 1050.12 12.651 1050.05 14.9844C1049.98 17.2812 1049.94 19.9792 1049.94 23.0781V81.1562H1048.03L991.699 21.2734V58.6797C991.699 61.7786 991.735 64.4948 991.808 66.8281C991.881 69.125 991.99 71.112 992.136 72.7891C992.282 74.4661 992.446 75.8698 992.628 77C992.811 78.1302 993.011 79.0781 993.23 79.8438V80.0625H983.496V79.8438C983.714 79.0781 983.915 78.1302 984.097 77C984.316 75.8698 984.498 74.4661 984.644 72.7891C984.79 71.112 984.899 69.125 984.972 66.8281C985.045 64.4948 985.082 61.7786 985.082 58.6797V23.0781C985.082 19.9792 985.045 17.2812 984.972 14.9844C984.899 12.651 984.79 10.6458 984.644 8.96875C984.498 7.25521 984.316 5.83333 984.097 4.70312C983.915 3.57292 983.714 2.625 983.496 1.85938V1.64062H986.996Z" fill="#34312C" fill-opacity="0.1"/>
<path d="M945.715 79.8438C945.934 79.0781 946.135 78.1302 946.317 77C946.499 75.8698 946.663 74.4661 946.809 72.7891C946.955 71.112 947.064 69.125 947.137 66.8281C947.21 64.4948 947.247 61.7786 947.247 58.6797V23.0781C947.247 19.9792 947.21 17.2812 947.137 14.9844C947.064 12.651 946.955 10.6458 946.809 8.96875C946.663 7.25521 946.499 5.83333 946.317 4.70312C946.135 3.57292 945.934 2.625 945.715 1.85938V1.64062H958.786V1.85938C958.567 2.625 958.348 3.57292 958.129 4.70312C957.947 5.83333 957.783 7.25521 957.637 8.96875C957.528 10.6458 957.418 12.651 957.309 14.9844C957.236 17.2812 957.2 19.9792 957.2 23.0781V58.6797C957.2 61.7786 957.236 64.4948 957.309 66.8281C957.418 69.125 957.528 71.112 957.637 72.7891C957.783 74.4661 957.947 75.8698 958.129 77C958.348 78.1302 958.567 79.0781 958.786 79.8438V80.0625H945.715V79.8438Z" fill="#34312C" fill-opacity="0.1"/>
<path d="M896.287 75.25C900.589 75.25 904.544 75.0677 908.154 74.7031C911.763 74.3385 914.917 73.9193 917.615 73.4453C920.75 72.9349 923.612 72.3333 926.201 71.6406L924.615 80.5C924.177 80.4635 923.521 80.4271 922.646 80.3906C921.771 80.3542 920.787 80.3177 919.693 80.2812C918.636 80.2448 917.505 80.2083 916.302 80.1719C915.136 80.1719 914.024 80.1536 912.966 80.1172C911.909 80.1172 910.961 80.099 910.122 80.0625C909.32 80.0625 908.737 80.0625 908.372 80.0625H884.747V79.8438C884.966 79.0781 885.167 78.1302 885.349 77C885.568 75.8698 885.75 74.4661 885.896 72.7891C886.042 71.112 886.151 69.125 886.224 66.8281C886.297 64.4948 886.333 61.7786 886.333 58.6797V23.0781C886.333 19.9792 886.297 17.2812 886.224 14.9844C886.151 12.651 886.042 10.6458 885.896 8.96875C885.75 7.25521 885.568 5.83333 885.349 4.70312C885.167 3.57292 884.966 2.625 884.747 1.85938V1.64062H897.872V1.85938C897.654 2.625 897.435 3.57292 897.216 4.70312C897.034 5.83333 896.87 7.25521 896.724 8.96875C896.615 10.6458 896.505 12.651 896.396 14.9844C896.323 17.2812 896.287 19.9792 896.287 23.0781V75.25Z" fill="#34312C" fill-opacity="0.1"/>
<path d="M863.428 13.6719L862.936 13.8906C860.092 11.2656 856.665 9.16927 852.655 7.60156C848.681 6.03385 844.306 5.25 839.53 5.25C834.936 5.25 830.725 5.97917 826.897 7.4375C823.069 8.85938 819.769 10.9375 816.998 13.6719C814.264 16.4062 812.131 19.7604 810.6 23.7344C809.069 27.7083 808.303 32.2292 808.303 37.2969C808.303 42.875 809.032 48.0885 810.491 52.9375C811.949 57.75 814.118 61.9245 816.998 65.4609C819.879 68.9974 823.47 71.7865 827.772 73.8281C832.11 75.8333 837.16 76.8359 842.92 76.8359C844.998 76.8359 847.077 76.6172 849.155 76.1797C851.233 75.7422 853.22 75.1042 855.116 74.2656C857.048 73.3906 858.853 72.3516 860.53 71.1484C862.243 69.9089 863.793 68.5052 865.178 66.9375L865.78 67.3203L861.405 78.4766C858.67 79.5339 855.644 80.3359 852.327 80.8828C849.045 81.4661 845.728 81.7578 842.373 81.7578C835.629 81.7578 829.449 80.7917 823.834 78.8594C818.256 76.8906 813.444 74.1198 809.397 70.5469C805.386 66.974 802.251 62.6901 799.991 57.6953C797.767 52.6641 796.655 47.0859 796.655 40.9609C796.655 37.4974 797.092 34.0885 797.967 30.7344C798.879 27.3802 800.191 24.1901 801.905 21.1641C803.618 18.138 805.733 15.3672 808.248 12.8516C810.764 10.2995 813.626 8.09375 816.834 6.23438C820.079 4.375 823.634 2.9349 827.498 1.91406C831.399 0.856771 835.61 0.328125 840.131 0.328125C847.168 0.328125 853.694 1.40365 859.709 3.55469L863.428 13.6719Z" fill="#34312C" fill-opacity="0.1"/>
<path d="M693.914 0.328125C700.003 0.328125 705.617 1.33073 710.758 3.33594C715.935 5.30469 720.401 8.09375 724.157 11.7031C727.912 15.276 730.847 19.5781 732.961 24.6094C735.076 29.6406 736.133 35.2005 736.133 41.2891C736.133 44.7526 735.732 48.1615 734.93 51.5156C734.128 54.8698 732.943 58.0417 731.375 61.0312C729.844 64.0208 727.948 66.7917 725.688 69.3438C723.427 71.8594 720.839 74.0469 717.922 75.9062C715.042 77.7292 711.852 79.151 708.352 80.1719C704.852 81.2292 701.078 81.7578 697.032 81.7578C690.943 81.7578 685.31 80.7917 680.133 78.8594C674.992 76.8906 670.545 74.1198 666.789 70.5469C663.034 66.974 660.099 62.6901 657.985 57.6953C655.87 52.6641 654.813 47.0859 654.813 40.9609C654.813 37.4974 655.214 34.0885 656.016 30.7344C656.818 27.3802 657.985 24.1901 659.516 21.1641C661.084 18.138 662.979 15.3672 665.203 12.8516C667.464 10.2995 670.034 8.09375 672.914 6.23438C675.831 4.375 679.039 2.9349 682.539 1.91406C686.076 0.856771 689.867 0.328125 693.914 0.328125ZM697.032 76.8359C701.078 76.8359 704.779 76.1068 708.133 74.6484C711.487 73.1901 714.367 71.0755 716.774 68.3047C719.216 65.5339 721.112 62.1615 722.461 58.1875C723.81 54.1771 724.485 49.638 724.485 44.5703C724.485 38.9557 723.828 33.7604 722.516 28.9844C721.24 24.1719 719.326 20.0156 716.774 16.5156C714.222 12.9792 711.032 10.2266 707.203 8.25781C703.412 6.2526 698.982 5.25 693.914 5.25C689.867 5.25 686.167 5.97917 682.813 7.4375C679.459 8.85938 676.56 10.9375 674.117 13.6719C671.711 16.4062 669.834 19.7604 668.485 23.7344C667.136 27.7083 666.461 32.2292 666.461 37.2969C666.461 42.875 667.099 48.0885 668.375 52.9375C669.651 57.75 671.565 61.9245 674.117 65.4609C676.67 68.9974 679.86 71.7865 683.688 73.8281C687.516 75.8333 691.964 76.8359 697.032 76.8359Z" fill="#34312C" fill-opacity="0.1"/>
<path d="M605.165 6.45312C600.863 6.45312 596.98 6.65365 593.517 7.05469C590.053 7.41927 587.064 7.82031 584.548 8.25781C581.631 8.80469 579.025 9.40625 576.728 10.0625L578.314 1.20312C578.751 1.23958 579.407 1.27604 580.282 1.3125C581.157 1.34896 582.124 1.38542 583.181 1.42188C584.275 1.45833 585.405 1.49479 586.572 1.53125C587.775 1.53125 588.905 1.54948 589.962 1.58594C591.019 1.58594 591.949 1.60417 592.751 1.64062C593.59 1.64062 594.191 1.64062 594.556 1.64062H625.782C626.147 1.64062 626.73 1.64062 627.532 1.64062C628.371 1.60417 629.319 1.58594 630.376 1.58594C631.434 1.54948 632.545 1.53125 633.712 1.53125C634.915 1.49479 636.045 1.45833 637.103 1.42188C638.197 1.38542 639.181 1.34896 640.056 1.3125C640.931 1.27604 641.587 1.23958 642.025 1.20312L643.611 10.0625C641.277 9.40625 638.652 8.80469 635.736 8.25781C633.22 7.82031 630.23 7.41927 626.767 7.05469C623.303 6.65365 619.42 6.45312 615.118 6.45312V58.6797C615.118 61.7786 615.155 64.4948 615.228 66.8281C615.337 69.125 615.447 71.112 615.556 72.7891C615.702 74.4661 615.866 75.8698 616.048 77C616.267 78.1302 616.486 79.0781 616.704 79.8438V80.0625H603.634V79.8438C603.853 79.0781 604.053 78.1302 604.236 77C604.418 75.8698 604.582 74.4661 604.728 72.7891C604.874 71.112 604.983 69.125 605.056 66.8281C605.129 64.4948 605.165 61.7786 605.165 58.6797V6.45312Z" fill="#34312C" fill-opacity="0.1"/>
<path d="M523.307 0.328125C529.395 0.328125 535.01 1.33073 540.151 3.33594C545.328 5.30469 549.794 8.09375 553.549 11.7031C557.304 15.276 560.239 19.5781 562.354 24.6094C564.468 29.6406 565.526 35.2005 565.526 41.2891C565.526 44.7526 565.125 48.1615 564.323 51.5156C563.52 54.8698 562.336 58.0417 560.768 61.0312C559.237 64.0208 557.341 66.7917 555.08 69.3438C552.82 71.8594 550.231 74.0469 547.315 75.9062C544.434 77.7292 541.244 79.151 537.744 80.1719C534.244 81.2292 530.471 81.7578 526.424 81.7578C520.336 81.7578 514.703 80.7917 509.526 78.8594C504.385 76.8906 499.937 74.1198 496.182 70.5469C492.427 66.974 489.492 62.6901 487.377 57.6953C485.263 52.6641 484.205 47.0859 484.205 40.9609C484.205 37.4974 484.606 34.0885 485.408 30.7344C486.211 27.3802 487.377 24.1901 488.908 21.1641C490.476 18.138 492.372 15.3672 494.596 12.8516C496.856 10.2995 499.427 8.09375 502.307 6.23438C505.224 4.375 508.432 2.9349 511.932 1.91406C515.468 0.856771 519.26 0.328125 523.307 0.328125ZM526.424 76.8359C530.471 76.8359 534.171 76.1068 537.526 74.6484C540.88 73.1901 543.76 71.0755 546.166 68.3047C548.609 65.5339 550.505 62.1615 551.854 58.1875C553.203 54.1771 553.877 49.638 553.877 44.5703C553.877 38.9557 553.221 33.7604 551.908 28.9844C550.632 24.1719 548.718 20.0156 546.166 16.5156C543.614 12.9792 540.424 10.2266 536.596 8.25781C532.804 6.2526 528.375 5.25 523.307 5.25C519.26 5.25 515.559 5.97917 512.205 7.4375C508.851 8.85938 505.953 10.9375 503.51 13.6719C501.104 16.4062 499.226 19.7604 497.877 23.7344C496.528 27.7083 495.854 32.2292 495.854 37.2969C495.854 42.875 496.492 48.0885 497.768 52.9375C499.044 57.75 500.958 61.9245 503.51 65.4609C506.062 68.9974 509.252 71.7865 513.08 73.8281C516.908 75.8333 521.356 76.8359 526.424 76.8359Z" fill="#34312C" fill-opacity="0.1"/>
<path d="M360.62 79.8438C361.021 79.2604 361.477 78.4036 361.987 77.2734C362.498 76.1068 362.899 74.6484 363.191 72.8984C363.592 70.3464 364.029 67.4844 364.503 64.3125C365.014 61.1042 365.524 57.75 366.034 54.25C366.581 50.75 367.11 47.1771 367.62 43.5312C368.167 39.849 368.678 36.2396 369.152 32.7031C369.662 29.1302 370.136 25.7031 370.573 22.4219C371.047 19.1042 371.467 16.0781 371.831 13.3438C372.196 10.6094 372.487 8.23958 372.706 6.23438C372.961 4.19271 373.144 2.66146 373.253 1.64062H380.198L414.597 65.9531L448.722 1.64062H453.917L462.886 66.6094C463.141 68.651 463.415 70.401 463.706 71.8594C463.998 73.3177 464.29 74.5755 464.581 75.6328C464.873 76.6536 465.146 77.5104 465.402 78.2031C465.693 78.8594 465.967 79.4062 466.222 79.8438V80.0625H452.441V79.8438C452.623 79.4427 452.787 78.7865 452.933 77.875C453.115 76.9635 453.206 75.8698 453.206 74.5938C453.206 74.1198 453.188 73.6458 453.152 73.1719C453.115 72.6615 453.06 72.1146 452.987 71.5312L446.042 19.1406L413.777 79.8438L410.003 79.4062L377.519 18.5938C376.243 27.2344 375.131 35.2188 374.183 42.5469C373.782 45.6823 373.381 48.8177 372.98 51.9531C372.579 55.0521 372.214 57.9505 371.886 60.6484C371.594 63.3464 371.357 65.7344 371.175 67.8125C370.993 69.8542 370.902 71.3672 370.902 72.3516C370.902 73.5911 370.938 74.6849 371.011 75.6328C371.084 76.5807 371.157 77.3828 371.23 78.0391C371.339 78.8047 371.448 79.4792 371.558 80.0625H360.62V79.8438Z" fill="#34312C" fill-opacity="0.1"/>
<path d="M326.285 79.8438C326.504 79.0781 326.705 78.1302 326.887 77C327.069 75.8698 327.233 74.4661 327.379 72.7891C327.525 71.112 327.634 69.125 327.707 66.8281C327.78 64.4948 327.817 61.7786 327.817 58.6797V23.0781C327.817 19.9792 327.78 17.2812 327.707 14.9844C327.634 12.651 327.525 10.6458 327.379 8.96875C327.233 7.25521 327.069 5.83333 326.887 4.70312C326.705 3.57292 326.504 2.625 326.285 1.85938V1.64062H339.356V1.85938C339.137 2.625 338.918 3.57292 338.699 4.70312C338.517 5.83333 338.353 7.25521 338.207 8.96875C338.098 10.6458 337.988 12.651 337.879 14.9844C337.806 17.2812 337.77 19.9792 337.77 23.0781V58.6797C337.77 61.7786 337.806 64.4948 337.879 66.8281C337.988 69.125 338.098 71.112 338.207 72.7891C338.353 74.4661 338.517 75.8698 338.699 77C338.918 78.1302 339.137 79.0781 339.356 79.8438V80.0625H326.285V79.8438Z" fill="#34312C" fill-opacity="0.1"/>
<path d="M289.599 42.5469C288.14 42.5104 286.318 42.4922 284.13 42.4922C281.943 42.4557 279.554 42.4193 276.966 42.3828C274.414 42.3464 271.734 42.3281 268.927 42.3281C266.156 42.2917 263.44 42.2734 260.778 42.2734C258.117 42.237 255.583 42.237 253.177 42.2734C250.771 42.3099 248.674 42.3646 246.888 42.4375V58.6797C246.888 61.7786 246.924 64.4948 246.997 66.8281C247.107 69.125 247.216 71.112 247.325 72.7891C247.471 74.4661 247.635 75.8698 247.818 77C248.036 78.1302 248.255 79.0781 248.474 79.8438V80.0625H235.349V79.8438C235.568 79.0781 235.768 78.1302 235.95 77C236.169 75.8698 236.351 74.4661 236.497 72.7891C236.643 71.112 236.752 69.125 236.825 66.8281C236.898 64.4948 236.935 61.7786 236.935 58.6797V23.0781C236.935 19.9792 236.898 17.2812 236.825 14.9844C236.752 12.651 236.643 10.6458 236.497 8.96875C236.351 7.25521 236.169 5.83333 235.95 4.70312C235.768 3.57292 235.568 2.625 235.349 1.85938V1.64062H248.474V1.85938C248.255 2.625 248.036 3.57292 247.818 4.70312C247.635 5.83333 247.471 7.25521 247.325 8.96875C247.216 10.6458 247.107 12.651 246.997 14.9844C246.924 17.2812 246.888 19.9792 246.888 23.0781V37.0781C248.784 37.151 250.935 37.2057 253.341 37.2422C255.747 37.2422 258.263 37.2422 260.888 37.2422C263.513 37.2057 266.174 37.1693 268.872 37.1328C271.607 37.0964 274.232 37.0599 276.747 37.0234C279.299 36.9505 281.669 36.8776 283.857 36.8047C286.081 36.7318 287.995 36.6589 289.599 36.5859V23.0781C289.599 19.9792 289.544 17.2812 289.435 14.9844C289.362 12.651 289.252 10.6458 289.107 8.96875C288.997 7.25521 288.833 5.83333 288.614 4.70312C288.432 3.57292 288.232 2.625 288.013 1.85938V1.64062H301.138V1.85938C300.919 2.625 300.7 3.57292 300.482 4.70312C300.299 5.83333 300.135 7.25521 299.989 8.96875C299.844 10.6458 299.734 12.651 299.661 14.9844C299.588 17.2812 299.552 19.9792 299.552 23.0781V58.6797C299.552 61.7786 299.588 64.4948 299.661 66.8281C299.734 69.125 299.844 71.112 299.989 72.7891C300.135 74.4661 300.299 75.8698 300.482 77C300.7 78.1302 300.919 79.0781 301.138 79.8438V80.0625H288.013V79.8438C288.232 79.0781 288.432 78.1302 288.614 77C288.833 75.8698 288.997 74.4661 289.107 72.7891C289.252 71.112 289.362 69.125 289.435 66.8281C289.544 64.4948 289.599 61.7786 289.599 58.6797V42.5469Z" fill="#34312C" fill-opacity="0.1"/>
<path d="M208.123 14.1094H206.92C206.628 13.2708 206.154 12.3229 205.498 11.2656C204.878 10.2083 204.04 9.22396 202.982 8.3125C201.962 7.36458 200.704 6.58073 199.209 5.96094C197.751 5.34115 196.019 5.03125 194.014 5.03125C192.227 5.03125 190.641 5.30469 189.256 5.85156C187.871 6.39844 186.704 7.16406 185.756 8.14844C184.844 9.13281 184.152 10.2995 183.678 11.6484C183.204 12.9974 182.967 14.4922 182.967 16.1328C182.967 18.7578 183.696 21.2734 185.154 23.6797C186.649 26.0495 188.509 28.401 190.732 30.7344C192.956 33.0677 195.363 35.401 197.951 37.7344C200.54 40.0677 202.946 42.4922 205.17 45.0078C207.394 47.5234 209.235 50.1667 210.693 52.9375C212.188 55.6719 212.936 58.625 212.936 61.7969C212.936 64.1667 212.516 66.5547 211.678 68.9609C210.876 71.3307 209.618 73.4635 207.904 75.3594C206.191 77.2552 203.985 78.8047 201.287 80.0078C198.589 81.1745 195.381 81.7578 191.662 81.7578C189.584 81.7578 187.597 81.5573 185.701 81.1562C183.842 80.7917 182.11 80.3359 180.506 79.7891C178.938 79.2057 177.516 78.5859 176.24 77.9297C175.001 77.2734 173.98 76.6719 173.178 76.125L174.436 64.0391H175.803C176.204 65.7526 176.86 67.3932 177.772 68.9609C178.683 70.4922 179.795 71.8594 181.107 73.0625C182.456 74.2292 183.988 75.1771 185.701 75.9062C187.415 76.599 189.292 76.9453 191.334 76.9453C193.193 76.9453 194.852 76.6719 196.311 76.125C197.805 75.5417 199.081 74.7578 200.139 73.7734C201.196 72.7526 201.998 71.5495 202.545 70.1641C203.128 68.7786 203.42 67.2656 203.42 65.625C203.42 63.3281 203.001 61.2135 202.162 59.2812C201.324 57.3125 200.212 55.4531 198.826 53.7031C197.477 51.9531 195.928 50.2578 194.178 48.6172C192.464 46.9766 190.696 45.3359 188.873 43.6953C187.05 42.0182 185.264 40.3047 183.514 38.5547C181.8 36.8047 180.251 34.9453 178.865 32.9766C177.516 30.9714 176.423 28.8385 175.584 26.5781C174.746 24.2812 174.326 21.7656 174.326 19.0312C174.326 16.151 174.873 13.5625 175.967 11.2656C177.097 8.93229 178.574 6.94531 180.397 5.30469C182.256 3.66406 184.352 2.40625 186.686 1.53125C189.019 0.65625 191.425 0.21875 193.904 0.21875C195.727 0.21875 197.404 0.364583 198.936 0.65625C200.467 0.947917 201.834 1.29427 203.037 1.69531C204.277 2.09635 205.352 2.4974 206.264 2.89844C207.175 3.29948 207.923 3.6276 208.506 3.88281L208.123 14.1094Z" fill="#34312C" fill-opacity="0.1"/>
<path d="M144.694 80.0625V79.8438C144.767 79.6615 144.822 79.388 144.858 79.0234C144.895 78.6589 144.913 78.3307 144.913 78.0391C144.913 76.9089 144.749 75.6693 144.421 74.3203C144.129 72.9349 143.546 71.2214 142.671 69.1797L136.054 54.3047C134.012 54.2318 131.296 54.1953 127.905 54.1953C124.515 54.1953 120.851 54.1953 116.913 54.1953C114.033 54.1953 111.244 54.1953 108.546 54.1953C105.885 54.1953 103.478 54.2318 101.327 54.3047L95.0381 68.7422C94.4913 70.0911 93.9079 71.5677 93.2881 73.1719C92.6684 74.776 92.3585 76.3984 92.3585 78.0391C92.3585 78.513 92.3949 78.9141 92.4678 79.2422C92.5408 79.5339 92.6137 79.7344 92.6866 79.8438V80.0625H81.5303V79.8438C82.1866 79.151 83.0069 77.9297 83.9913 76.1797C84.9756 74.3932 86.0512 72.1693 87.2178 69.5078L118.554 0H122.929L152.624 66.8281C153.317 68.3958 154.028 69.9271 154.757 71.4219C155.523 72.8802 156.233 74.1927 156.89 75.3594C157.546 76.526 158.129 77.5104 158.64 78.3125C159.15 79.1146 159.496 79.625 159.679 79.8438V80.0625H144.694ZM109.257 49.4922C111.371 49.4922 113.541 49.4922 115.765 49.4922C117.989 49.4557 120.158 49.4375 122.273 49.4375C124.424 49.401 126.483 49.3828 128.452 49.3828C130.421 49.3464 132.207 49.3099 133.812 49.2734L118.444 14.5469L103.351 49.4922H109.257Z" fill="#34312C" fill-opacity="0.1"/>
<path d="M54.25 42.5469C52.7917 42.5104 50.9688 42.4922 48.7812 42.4922C46.5938 42.4557 44.2057 42.4193 41.6172 42.3828C39.0651 42.3464 36.3854 42.3281 33.5781 42.3281C30.8073 42.2917 28.0911 42.2734 25.4297 42.2734C22.7682 42.237 20.2344 42.237 17.8281 42.2734C15.4219 42.3099 13.3255 42.3646 11.5391 42.4375V58.6797C11.5391 61.7786 11.5755 64.4948 11.6484 66.8281C11.7578 69.125 11.8672 71.112 11.9766 72.7891C12.1224 74.4661 12.2865 75.8698 12.4688 77C12.6875 78.1302 12.9062 79.0781 13.125 79.8438V80.0625H0V79.8438C0.21875 79.0781 0.419271 78.1302 0.601562 77C0.820312 75.8698 1.0026 74.4661 1.14844 72.7891C1.29427 71.112 1.40365 69.125 1.47656 66.8281C1.54948 64.4948 1.58594 61.7786 1.58594 58.6797V23.0781C1.58594 19.9792 1.54948 17.2812 1.47656 14.9844C1.40365 12.651 1.29427 10.6458 1.14844 8.96875C1.0026 7.25521 0.820312 5.83333 0.601562 4.70312C0.419271 3.57292 0.21875 2.625 0 1.85938V1.64062H13.125V1.85938C12.9062 2.625 12.6875 3.57292 12.4688 4.70312C12.2865 5.83333 12.1224 7.25521 11.9766 8.96875C11.8672 10.6458 11.7578 12.651 11.6484 14.9844C11.5755 17.2812 11.5391 19.9792 11.5391 23.0781V37.0781C13.4349 37.151 15.5859 37.2057 17.9922 37.2422C20.3984 37.2422 22.9141 37.2422 25.5391 37.2422C28.1641 37.2057 30.8255 37.1693 33.5234 37.1328C36.2578 37.0964 38.8828 37.0599 41.3984 37.0234C43.9505 36.9505 46.3203 36.8776 48.5078 36.8047C50.7318 36.7318 52.6458 36.6589 54.25 36.5859V23.0781C54.25 19.9792 54.1953 17.2812 54.0859 14.9844C54.013 12.651 53.9036 10.6458 53.7578 8.96875C53.6484 7.25521 53.4844 5.83333 53.2656 4.70312C53.0833 3.57292 52.8828 2.625 52.6641 1.85938V1.64062H65.7891V1.85938C65.5703 2.625 65.3516 3.57292 65.1328 4.70312C64.9505 5.83333 64.7865 7.25521 64.6406 8.96875C64.4948 10.6458 64.3854 12.651 64.3125 14.9844C64.2396 17.2812 64.2031 19.9792 64.2031 23.0781V58.6797C64.2031 61.7786 64.2396 64.4948 64.3125 66.8281C64.3854 69.125 64.4948 71.112 64.6406 72.7891C64.7865 74.4661 64.9505 75.8698 65.1328 77C65.3516 78.1302 65.5703 79.0781 65.7891 79.8438V80.0625H52.6641V79.8438C52.8828 79.0781 53.0833 78.1302 53.2656 77C53.4844 75.8698 53.6484 74.4661 53.7578 72.7891C53.9036 71.112 54.013 69.125 54.0859 66.8281C54.1953 64.4948 54.25 61.7786 54.25 58.6797V42.5469Z" fill="#34312C" fill-opacity="0.1"/>
</svg>
