<svg width="512" height="70" viewBox="0 0 512 70" fill="none" xmlns="http://www.w3.org/2000/svg">
<path d="M172.347 16.6541C172.373 13.0457 172.506 10.3758 172.757 8.71035V8.53852C172.281 8.61782 171.58 8.65748 170.627 8.65748C169.674 8.65748 168.934 8.61782 168.47 8.53852V8.72357C168.735 10.5211 168.881 13.2043 168.881 16.6541V19.7866H155.174V16.6541C155.201 13.0457 155.333 10.3758 155.584 8.71035V8.53852C155.108 8.61782 154.407 8.65748 153.454 8.65748C152.502 8.65748 151.761 8.61782 151.298 8.53852V8.71035C151.589 10.6798 151.735 13.3497 151.735 16.6409V26.3822C151.735 29.9641 151.615 32.6341 151.364 34.2863V34.4581C151.827 34.3788 152.528 34.3391 153.454 34.3391C154.381 34.3391 155.148 34.3788 155.611 34.4581V34.273C155.32 32.3301 155.174 29.6733 155.174 26.3822V21.5974H168.881V26.3822C168.854 30.1227 168.735 32.7927 168.51 34.2863V34.4581C169 34.3788 169.714 34.3391 170.64 34.3391C171.566 34.3391 172.228 34.3788 172.611 34.4449L172.783 34.2995V34.273C172.492 32.3433 172.347 29.6733 172.347 26.3822V16.6409V16.6541Z" fill="white"/>
<path d="M193.316 16.2443C191.53 11.8165 190.406 9.08044 189.943 8.14199H188.792L182.971 21.267L176.977 34.4713C177.401 34.392 177.89 34.3391 178.459 34.3391C179.279 34.3391 179.901 34.3788 180.272 34.4581C180.748 32.568 181.859 29.5015 183.566 25.3248L183.592 25.2719H183.645C184.002 25.219 185.101 25.1926 187.006 25.1662H190.049C191.411 25.1662 192.496 25.2058 193.263 25.2719H193.33L193.356 25.338C194.269 27.8758 194.983 29.9377 195.486 31.4841L196.412 34.4449H196.478C196.994 34.3788 197.656 34.3391 198.436 34.3391C199.362 34.3391 200.196 34.3788 200.91 34.4581L200.871 34.3788C199.865 32.2904 197.325 26.1839 193.343 16.2311L193.316 16.2443ZM192.404 23.3289C191.477 23.395 190.3 23.4347 188.924 23.4347C187.548 23.4347 186.066 23.395 184.532 23.3289H184.386L184.439 23.1835L188.58 13.6934L188.673 13.9048C190.128 17.2224 191.424 20.355 192.496 23.1835L192.549 23.3025H192.417L192.404 23.3289Z" fill="white"/>
<path d="M212.394 19.2051C211.64 18.9143 210.899 18.5706 210.158 18.1873C209.404 17.804 208.769 17.2621 208.253 16.6144C207.737 15.9403 207.472 15.1605 207.472 14.2617C207.472 13.3629 207.658 12.5831 208.002 11.909C208.359 11.2349 208.835 10.7326 209.417 10.4286C209.986 10.1378 210.793 9.97923 211.799 9.97923C212.804 9.97923 213.81 10.3625 214.775 11.1292C215.741 11.8958 216.509 12.9003 217.051 14.1163H217.527V14.0767C217.686 12.9267 217.964 11.5918 218.374 10.085V9.96601L217.739 9.5034C217.316 9.1994 216.641 8.88218 215.728 8.59139C214.815 8.28739 213.558 8.14199 211.997 8.14199C209.735 8.14199 207.843 8.84252 206.361 10.2039C204.906 11.5918 204.165 13.2307 204.165 15.0548C204.139 17.5264 205.356 19.5223 207.764 20.9762C208.809 21.6239 209.841 22.1526 210.833 22.5359C211.825 22.9324 212.685 23.3554 213.386 23.8048C214.087 24.2674 214.643 24.8489 215.053 25.5627C215.463 26.2764 215.675 27.162 215.675 28.2062C215.675 29.2504 215.45 30.136 215 30.8233C214.55 31.5106 213.968 32.0393 213.28 32.3962C212.579 32.753 211.838 32.9249 211.058 32.9249C209.55 32.9249 208.002 32.2111 206.427 30.81C205.7 30.1756 205.144 29.4751 204.76 28.7085L204.734 28.682H204.297V28.7217C204.138 29.9641 203.861 31.3255 203.451 32.7795V32.9381L204.31 33.3875C206.004 34.2995 208.174 34.7621 210.78 34.7621C212.354 34.7621 213.823 34.4449 215.146 33.8236C216.469 33.2024 217.527 32.3168 218.295 31.1801C219.062 30.0434 219.459 28.682 219.459 27.1356C219.432 25.0208 218.625 23.2496 217.064 21.8882C215.834 20.8176 214.273 19.9188 212.407 19.2051H212.394Z" fill="white"/>
<path d="M246.223 16.6541C246.25 13.0457 246.382 10.3758 246.633 8.71035V8.53852C246.157 8.61782 245.456 8.65748 244.503 8.65748C243.551 8.65748 242.81 8.61782 242.347 8.53852V8.72357C242.611 10.5211 242.757 13.2043 242.757 16.6541V19.7866H229.051V16.6541C229.077 13.0457 229.209 10.3758 229.461 8.71035V8.53852C228.984 8.61782 228.283 8.65748 227.331 8.65748C226.378 8.65748 225.637 8.61782 225.174 8.53852V8.71035C225.465 10.6798 225.611 13.3497 225.611 16.6409V26.3822C225.611 29.9641 225.492 32.6341 225.24 34.2863V34.4581C225.703 34.3788 226.405 34.3391 227.331 34.3391C228.257 34.3391 229.024 34.3788 229.487 34.4581V34.273C229.196 32.3301 229.051 29.6733 229.051 26.3822V21.5974H242.757V26.3822C242.73 30.1227 242.611 32.7927 242.386 34.2863V34.4581C242.876 34.3788 243.59 34.3391 244.516 34.3391C245.443 34.3391 246.104 34.3788 246.488 34.4449L246.66 34.2995V34.273C246.369 32.3433 246.223 29.6733 246.223 26.3822V16.6409V16.6541Z" fill="white"/>
<path d="M257.879 16.6541C257.905 12.8871 258.024 10.2171 258.249 8.71035V8.53852C257.773 8.61782 257.085 8.65748 256.159 8.65748C255.167 8.65748 254.465 8.61782 254.002 8.53852V8.71035C254.293 10.6798 254.439 13.3497 254.439 16.6409V26.3822C254.439 30.1227 254.32 32.7795 254.095 34.2863V34.4581C254.558 34.3788 255.246 34.3391 256.159 34.3391C257.125 34.3391 257.852 34.3788 258.315 34.4581V34.273C258.024 32.3301 257.879 29.6733 257.879 26.3822V16.6409V16.6541Z" fill="white"/>
<path d="M290.596 8.06269V8.00982H289.578L279.893 27.6775H279.629L279.602 27.6246C276.956 22.2054 273.98 15.6231 270.765 8.03625L270.738 8.00982H269.362C268.621 12.3452 267.576 17.8701 266.253 24.426C265.023 30.506 264.361 33.7443 264.189 34.4713C264.705 34.392 265.168 34.3523 265.592 34.3523C266.015 34.3523 266.412 34.392 266.769 34.4713L266.796 34.4184C266.981 33.2817 267.298 31.1537 267.788 27.9022C268.304 24.5053 268.661 22.1393 268.939 20.4607C269.243 18.5838 269.481 16.9713 269.693 15.5306L269.746 15.2002L269.891 15.5042C272.683 21.4256 275.461 27.7568 278.121 34.3127L278.147 34.3391H278.994C282.367 26.7126 285.304 20.4343 287.712 15.7024L287.858 15.4116L287.897 15.7289C288.771 22.3244 289.512 28.6027 290.094 34.392V34.4449C290.504 34.3656 291.192 34.3259 292.118 34.3259C293.044 34.3259 293.811 34.3656 294.367 34.4449V34.392C292.74 24.5317 291.483 15.6628 290.596 8.02304V8.06269Z" fill="white"/>
<path d="M311.195 8.15521C307.623 8.15521 304.594 9.51662 302.199 12.1866C299.804 14.8697 298.6 18.1609 298.6 22.0072C298.6 25.8535 299.844 28.9596 302.278 31.2727C304.726 33.5989 307.729 34.7753 311.222 34.7753C313.762 34.7753 316.011 34.207 317.903 33.0702C319.808 31.9335 321.303 30.3342 322.375 28.3119C323.446 26.2897 323.989 23.9237 323.989 21.2802C324.015 17.4075 322.772 14.2221 320.324 11.8032C317.863 9.38444 314.794 8.15521 311.195 8.15521ZM318.829 28.0212C318.154 29.6337 317.215 30.8629 316.038 31.6956C314.86 32.5283 313.484 32.9381 311.963 32.9381C310.441 32.9381 308.96 32.5019 307.544 31.6295C306.128 30.7572 304.964 29.4486 304.078 27.7304C303.191 26.0121 302.755 23.9766 302.755 21.6767C302.755 17.5793 303.615 14.4996 305.308 12.5038C306.763 10.8252 308.563 9.97923 310.679 9.97923C313.445 9.97923 315.68 10.9705 317.334 12.9135C318.988 14.8565 319.821 17.9362 319.821 22.0468C319.821 24.4128 319.491 26.4218 318.816 28.0212H318.829Z" fill="white"/>
<path d="M326.555 11.3274L326.675 11.5257H326.754C328.368 11.2745 330.26 11.1027 332.39 10.9838C333.078 10.9573 333.594 10.9309 333.977 10.9177L334.665 10.878L334.692 10.9573C334.904 11.6711 334.996 13.5347 334.996 16.6541V26.3954C334.996 30.2681 334.89 32.9381 334.692 34.2995V34.4713C335.155 34.392 335.83 34.3523 336.716 34.3523C337.682 34.3523 338.41 34.392 338.873 34.4713V34.2863C338.621 32.5019 338.502 29.8452 338.502 26.3954V16.6541C338.502 13.6934 338.595 11.8165 338.78 11.0631V10.9838H338.873C341.479 10.9838 343.477 11.0763 344.8 11.2481L346.797 11.5125L346.943 11.3142C346.903 11.0366 346.877 10.6533 346.877 10.2039C346.877 9.75453 346.903 9.23905 346.943 8.68391V8.65748H326.542V8.69713C326.569 9.00113 326.569 9.26548 326.569 9.5034V10.8516C326.569 11.0234 326.569 11.182 326.542 11.3274H326.555Z" fill="white"/>
<path d="M362.078 8.15521C358.493 8.15521 355.476 9.51662 353.082 12.1866C350.687 14.8697 349.483 18.1609 349.483 22.0072C349.483 25.8535 350.727 28.9596 353.161 31.2727C355.608 33.5989 358.612 34.7753 362.104 34.7753C364.645 34.7753 366.894 34.207 368.785 33.0702C370.691 31.9335 372.186 30.3342 373.257 28.3119C374.329 26.2897 374.871 23.9237 374.871 21.2802C374.898 17.4075 373.654 14.2221 371.207 11.8032C368.759 9.38444 365.676 8.15521 362.078 8.15521ZM369.712 28.0212C369.037 29.6337 368.111 30.8629 366.92 31.6956C365.729 32.5283 364.367 32.9381 362.845 32.9381C361.324 32.9381 359.842 32.5019 358.426 31.6295C357.011 30.7572 355.847 29.4486 354.96 27.7304C354.074 26.0121 353.637 23.9766 353.637 21.6767C353.637 17.5793 354.497 14.4864 356.191 12.5038C357.646 10.8252 359.458 9.97923 361.562 9.97923C364.327 9.97923 366.563 10.9705 368.217 12.9135C369.87 14.8565 370.704 17.9362 370.704 22.0468C370.704 24.4128 370.36 26.4218 369.698 28.0212H369.712Z" fill="white"/>
<path d="M412.55 28.6688L412.233 28.5102L412.193 28.5366C411.28 29.5676 410.367 30.4003 409.481 31.0083C407.827 32.1186 405.75 32.6737 403.316 32.6737C400.881 32.6737 398.778 31.5238 397.111 29.2372C395.457 26.977 394.61 24.2277 394.61 21.0687C394.61 17.3943 395.603 14.5261 397.574 12.5699C398.434 11.7107 399.36 11.0763 400.313 10.6798C401.265 10.2832 402.165 10.085 402.985 10.085C406.835 10.085 409.56 11.6446 411.082 14.7243L411.108 14.7772H411.598V14.7111C411.73 13.0853 411.955 11.605 412.272 10.2964V10.1643L412.246 10.1378L411.585 9.84705C410.341 9.29192 408.78 8.8293 406.941 8.47243C405.896 8.27417 404.639 8.16843 403.197 8.16843C401.755 8.16843 400.246 8.51208 398.685 9.18618C397.111 9.86027 395.695 10.8384 394.478 12.0676C393.248 13.31 392.269 14.764 391.541 16.4029C390.813 18.0551 390.456 19.8792 390.456 21.8221C390.456 25.4966 391.488 28.5498 393.499 30.9026C395.722 33.48 398.91 34.7753 402.985 34.7753C407.06 34.7753 410.354 33.3082 412.802 30.4267V30.3871C412.788 30.136 412.762 29.8187 412.749 29.5015C412.722 29.1579 412.669 28.8803 412.564 28.682L412.55 28.6688Z" fill="white"/>
<path d="M434.38 31.0083L433.427 31.1537C430.04 31.6295 426.627 31.8674 423.32 31.8674H423.24L423.214 31.8014C423.002 31.0612 422.909 29.3032 422.909 26.4086V16.6673C422.936 12.9003 423.055 10.2304 423.28 8.72357V8.55174C422.804 8.63104 422.102 8.67069 421.15 8.67069C420.197 8.67069 419.562 8.63104 419.179 8.56495L419.033 8.71035V8.73678C419.298 10.693 419.443 13.3629 419.443 16.6673V26.4086C419.443 30.2946 419.311 32.9645 419.059 34.3656H434.512V34.3259C434.459 33.7972 434.446 33.2024 434.446 32.568V31.0083H434.38Z" fill="white"/>
<path d="M443.323 16.6541C443.35 12.9003 443.469 10.2304 443.694 8.71035V8.53852C443.217 8.61782 442.529 8.65748 441.59 8.65748C440.598 8.65748 439.897 8.61782 439.434 8.53852V8.71035C439.725 10.6798 439.87 13.3497 439.87 16.6409V26.3822C439.87 30.1227 439.751 32.7795 439.526 34.2863V34.4581C439.989 34.3788 440.677 34.3391 441.59 34.3391C442.556 34.3391 443.284 34.3788 443.76 34.4581V34.273C443.469 32.3301 443.323 29.6733 443.323 26.3822V16.6409V16.6541Z" fill="white"/>
<path d="M472.429 8.55174C471.529 8.68391 470.458 8.69713 469.598 8.53852V8.72357C469.863 10.5211 470.008 13.1911 470.008 16.6541V27.2413C469.982 28.2591 469.876 28.4573 469.704 28.4573C469.585 28.4441 469.386 28.4177 467.706 26.2632L454.092 8.59139H454.039C453.299 8.69713 452.65 8.71035 452.134 8.61782L451.711 8.53852V8.68391C451.843 11.7372 451.909 15.8875 451.909 21.0159C451.909 26.1443 451.737 30.6118 451.407 34.3259V34.4713C451.843 34.392 452.333 34.3523 452.875 34.3523C453.418 34.3523 453.907 34.392 454.344 34.4713V34.2863C454.079 32.3433 453.934 29.6866 453.934 26.3954V16.8788C453.934 15.1869 454.039 15.0812 454.092 15.0151L454.119 14.9887H454.159C454.251 14.9887 454.41 14.9887 455.389 16.2708L469.267 33.7708C469.823 34.4184 470.418 34.7489 471.014 34.7489C471.331 34.7489 471.53 34.6299 471.635 34.4052C471.741 34.1541 471.807 33.8236 471.834 33.4668C471.9 30.6118 471.953 27.0166 472.019 22.5094C472.072 18.227 472.284 13.5612 472.641 8.6707L472.469 8.53852H472.429V8.55174Z" fill="white"/>
<path d="M483.503 16.6541C483.529 12.8871 483.648 10.2171 483.873 8.71035V8.53852C483.397 8.61782 482.709 8.65748 481.783 8.65748C480.791 8.65748 480.089 8.61782 479.613 8.53852V8.71035C479.904 10.6798 480.05 13.3497 480.05 16.6409V26.3822C480.05 30.1227 479.931 32.7927 479.706 34.2863V34.4581C480.169 34.3788 480.857 34.3391 481.77 34.3391C482.735 34.3391 483.463 34.3788 483.926 34.4581V34.273C483.635 32.3301 483.489 29.6733 483.489 26.3822V16.6409L483.503 16.6541Z" fill="white"/>
<path d="M511.749 28.6688L511.431 28.5102L511.391 28.5366C510.479 29.5676 509.566 30.4003 508.679 31.0083C507.026 32.1186 504.948 32.6737 502.514 32.6737C500.08 32.6737 497.976 31.5238 496.309 29.2372C494.656 26.977 493.809 24.2277 493.809 21.0687C493.809 17.3943 494.801 14.5261 496.772 12.5699C497.632 11.7107 498.558 11.0763 499.511 10.6798C500.463 10.2832 501.363 10.085 502.183 10.085C506.033 10.085 508.759 11.6446 510.28 14.7243L510.307 14.7772H510.796V14.7111C510.928 13.0853 511.153 11.605 511.471 10.2964V10.1643L511.444 10.1378L510.783 9.84705C509.539 9.29192 507.978 8.8293 506.139 8.47243C505.094 8.27417 503.837 8.16843 502.395 8.16843C500.953 8.16843 499.445 8.51208 497.884 9.18618C496.309 9.86027 494.894 10.8384 493.676 12.0676C492.446 13.31 491.467 14.764 490.739 16.4029C490.012 18.0551 489.655 19.8792 489.655 21.8221C489.655 25.4966 490.686 28.5498 492.697 30.9026C494.92 33.48 498.108 34.7753 502.183 34.7753C506.258 34.7753 509.552 33.3082 512 30.4267V30.3871C511.987 30.136 511.96 29.8187 511.947 29.5015C511.921 29.1579 511.868 28.8803 511.762 28.682L511.749 28.6688Z" fill="white"/>
<path d="M193.29 53.1741H191.464C191.081 53.1741 190.842 53.2005 190.34 53.3063L190.128 52.5C190.697 52.6322 190.935 52.6454 191.438 52.6454H193.29V50.9271H190.869C190.445 50.9271 190.168 50.9668 189.665 51.0593L189.453 50.2795C190.009 50.3852 190.326 50.4116 190.856 50.4116H193.303C193.303 49.3939 193.303 48.7727 193.197 47.9928C194.983 48.2043 195.208 48.3365 195.208 48.5612C195.208 48.7066 195.076 48.8387 194.507 49.0899V50.3984H196.399C197.034 49.6186 197.127 49.5525 197.246 49.5525C197.365 49.5525 197.497 49.6186 198.264 50.253C198.582 50.5042 198.648 50.6363 198.648 50.7421C198.648 50.8742 198.582 50.9271 198.37 50.9271H194.507V52.6454H195.989C196.584 51.9449 196.69 51.8788 196.796 51.8788C196.902 51.8788 197.008 51.9184 197.775 52.5529C198.013 52.7379 198.066 52.8701 198.066 52.9494C198.066 53.0948 198 53.1609 197.788 53.1609H194.494V55.0245H196.505C197.166 54.2183 197.246 54.1522 197.378 54.1522C197.51 54.1522 197.629 54.2183 198.37 54.8263C198.688 55.0774 198.754 55.236 198.754 55.355C198.754 55.4739 198.688 55.54 198.476 55.54H190.432C190.009 55.54 189.731 55.5797 189.228 55.6722L189.017 54.8659C189.586 54.9981 189.93 55.0113 190.459 55.0113H193.277V53.1477L193.29 53.1741ZM191.755 62.6378C191.729 65.1227 191.729 66.2859 191.729 66.6295C191.729 67.0525 191.491 67.2508 190.988 67.2508C190.591 67.2508 190.472 67.1054 190.472 66.7485C190.472 66.0744 190.551 63.378 190.551 60.1794C190.551 57.906 190.551 57.4037 190.472 56.5974C191.041 56.8353 191.385 56.994 191.888 57.3244H195.751C196.267 56.756 196.346 56.7032 196.478 56.7032C196.558 56.7032 196.69 56.7428 197.246 57.2319C197.537 57.483 197.59 57.5887 197.59 57.6945C197.59 57.8399 197.55 57.9324 197.127 58.1968V60.4041C197.127 64.29 197.193 64.898 197.193 65.4267C197.193 66.0876 196.941 66.3784 196.624 66.6427C196.373 66.8278 195.79 67.0393 195.539 67.0393C195.327 67.0393 195.261 67.0128 195.221 66.7221C195.142 66.2198 194.944 65.9158 193.541 65.5986C193.409 65.5721 193.435 65.321 193.568 65.3474C194.613 65.4532 195.116 65.4796 195.579 65.4796C195.817 65.4796 195.923 65.4003 195.923 65.1227V62.6643H191.768L191.755 62.6378ZM195.923 57.8267H191.768V59.6903H195.923V57.8267ZM195.923 60.219H191.768V62.1091H195.923V60.219ZM203.689 50.5042C204.258 49.8036 204.39 49.7375 204.496 49.7375C204.628 49.7375 204.787 49.8168 205.382 50.3984C205.673 50.6892 205.766 50.8478 205.766 50.9668C205.766 51.1518 205.554 51.2443 204.919 51.4162C204.218 52.4339 203.543 53.2137 202.855 53.9143H205.038C205.567 53.3195 205.673 53.2798 205.779 53.2798C205.858 53.2798 205.964 53.3195 206.546 53.7821C206.89 54.0597 206.904 54.1654 206.904 54.2712C206.904 54.4165 206.837 54.5091 206.374 54.7999V57.2583H206.798C207.367 56.4256 207.499 56.3199 207.605 56.3199C207.711 56.3199 207.856 56.4256 208.491 57.06C208.769 57.3376 208.809 57.4698 208.809 57.5887C208.809 57.7077 208.729 57.7738 208.518 57.7738H206.374C206.401 60.5098 206.454 61.8051 206.454 62.1488C206.454 62.5321 206.216 62.6511 205.686 62.6511C205.303 62.6511 205.184 62.5189 205.184 62.2017V61.25H202.895C202.895 64.0653 202.974 64.7923 202.974 65.5325C202.974 66.1934 202.802 66.418 202.445 66.6956C202.128 66.9335 201.612 67.0921 201.321 67.0921C201.029 67.0921 200.977 67.0657 200.937 66.7749C200.871 66.2859 200.619 66.0347 199.071 65.625C198.939 65.5853 198.966 65.3342 199.098 65.3474C200.196 65.4796 200.818 65.4928 201.321 65.4928C201.572 65.4928 201.678 65.3871 201.678 65.1756V61.2368H199.998C199.376 61.2368 199.058 61.2632 198.529 61.369L198.317 60.5891C198.992 60.6949 199.362 60.7213 199.998 60.7213H201.678V57.7738H199.508C199.045 57.7738 198.727 57.8002 198.132 57.906L197.947 57.1261C198.582 57.2054 198.939 57.2583 199.521 57.2583H201.691V54.443H200.818C200.156 54.443 199.826 54.4826 199.243 54.5884L199.032 53.7821C199.733 53.8878 200.13 53.9143 200.791 53.9143H202.3C202.855 53.0023 203.345 52.011 203.675 51.0329H201.069C200.368 52.196 199.601 53.1741 198.264 54.2315C198.159 54.3108 197.973 54.1522 198.053 54.0597C199.138 52.7511 200.011 51.0725 200.646 49.0767C200.752 48.733 200.884 48.3497 200.924 47.9135C202.604 48.4158 202.855 48.5876 202.855 48.7859C202.855 48.9974 202.617 49.1295 202.022 49.2353C201.784 49.6847 201.572 50.1076 201.36 50.5042H203.689ZM205.197 54.443H202.908V57.2583H205.197V54.443ZM202.908 57.8002V60.7477H205.197V57.8002H202.908Z" fill="white"/>
<path d="M229.553 49.2749C230.188 48.614 230.254 48.548 230.387 48.548C230.493 48.548 230.625 48.614 231.3 49.1692C231.617 49.4203 231.644 49.5261 231.644 49.6318C231.644 49.8036 231.564 49.9094 231.075 50.2266V55.5136C231.075 63.7613 231.181 64.6072 231.181 65.3342C231.181 66.114 230.837 66.4974 230.334 66.7353C230.043 66.8675 229.527 66.9732 229.249 66.9732C229.064 66.9732 228.971 66.9335 228.958 66.6295C228.892 66.1273 228.601 65.8894 226.749 65.4664C226.616 65.44 226.643 65.1227 226.775 65.1492C228.111 65.2813 228.839 65.2946 229.381 65.2946C229.633 65.2946 229.765 65.1624 229.765 64.898V49.8168H215.926V66.5502C215.926 66.96 215.649 67.1714 215.08 67.1714C214.63 67.1714 214.484 66.9996 214.484 66.6692C214.484 65.44 214.59 63.0211 214.59 56.994C214.59 50.9668 214.59 49.6847 214.484 48.4687C215.119 48.7198 215.569 48.9313 216.138 49.3014H229.58L229.553 49.2749ZM222.105 55.3021H218.639C218.07 55.3021 217.699 55.3285 217.091 55.4343L216.905 54.6545C217.607 54.7602 217.99 54.7866 218.625 54.7866H223.507C223.904 54.0068 224.248 53.1477 224.552 52.3282C224.804 51.6541 224.976 51.0329 225.068 50.5306C226.51 50.9932 227.04 51.2443 227.04 51.4823C227.04 51.7202 226.828 51.7995 226.166 51.8656C225.399 53.1212 224.91 53.7689 224.063 54.7866H226.444C227.212 53.835 227.331 53.7424 227.436 53.7424C227.569 53.7424 227.714 53.8218 228.561 54.5487C228.945 54.8924 229.011 54.9981 229.011 55.1039C229.011 55.236 228.945 55.3153 228.733 55.3153H223.335V62.1224H225.994V59.1352C225.994 58.0381 225.994 57.4169 225.915 56.7825C227.608 57.0204 227.847 57.0997 227.847 57.3376C227.847 57.483 227.767 57.5887 227.212 57.8002V59.4392C227.212 61.9637 227.278 63.1665 227.278 63.4705C227.278 63.8274 227 63.9728 226.51 63.9728C226.153 63.9728 226.008 63.8935 226.008 63.5763V62.6643H219.538V63.6424C219.538 64.0521 219.327 64.1711 218.811 64.1711C218.427 64.1711 218.281 64.0918 218.281 63.7613C218.281 63.4838 218.347 62.3603 218.347 59.9679C218.347 58.0646 218.347 57.5491 218.268 56.8089C220.014 57.0204 220.226 57.0997 220.226 57.3376C220.226 57.5094 220.12 57.5887 219.551 57.8002V62.1224H222.145V55.3153L222.105 55.3021ZM219.075 50.6495C220.517 51.3897 221.43 52.4471 221.43 53.2534C221.43 53.8218 221.113 54.1654 220.689 54.1654C220.345 54.1654 220.186 53.9804 220.067 53.4252C219.829 52.3282 219.565 51.6673 218.903 50.8214C218.824 50.7156 218.969 50.5835 219.075 50.6495Z" fill="white"/>
<path d="M246.316 61.065C247.546 62.7832 248.909 63.7217 250.602 64.409C252.177 65.0434 254.082 65.3871 255.828 65.4267C255.96 65.4267 255.96 65.6118 255.828 65.6647C255.272 65.8101 255.021 66.0215 254.743 66.7485C254.703 66.8939 254.558 66.9996 254.386 66.9996C254.214 66.9996 253.724 66.9203 253.341 66.8146C252.11 66.4974 250.734 65.8761 249.729 65.2813C248.313 64.4486 247.017 63.2723 245.892 61.1839C245.403 62.7304 244.622 63.7878 243.511 64.6469C241.923 65.9158 239.939 66.7088 236.737 67.145C236.605 67.1714 236.552 66.8278 236.671 66.8014C239.489 66.1008 241.632 65.0566 243.035 63.5366C243.709 62.7965 244.186 61.9241 244.477 61.0517H238.536C237.981 61.0517 237.544 61.0782 237.002 61.1839L236.817 60.3776C237.438 60.4834 237.901 60.523 238.536 60.523H244.649C244.715 60.2455 244.781 59.9679 244.821 59.7168C244.887 59.3202 244.927 58.8312 244.9 58.4215C246.66 58.6726 246.977 58.7387 246.977 58.9898C246.977 59.1616 246.911 59.3335 246.25 59.5449C246.183 59.8622 246.117 60.1662 246.064 60.457L246.038 60.523H252.679C253.513 59.5317 253.632 59.4392 253.738 59.4392C253.87 59.4392 254.016 59.5185 254.968 60.2851C255.352 60.6023 255.418 60.7345 255.418 60.8535C255.418 60.9724 255.352 61.0385 255.14 61.0385H246.289L246.316 61.065ZM245.231 54.8527H240.587C240.071 54.8527 239.635 54.8792 239.145 54.9849L238.933 54.1522C239.568 54.2844 239.978 54.324 240.574 54.324H245.244V51.8656H239.383C238.854 51.8656 238.431 51.892 237.915 51.9977L237.703 51.165C238.298 51.2972 238.761 51.3369 239.357 51.3369H247.573C248.141 50.5042 248.512 49.764 248.843 49.0238C249.015 48.6405 249.16 48.2836 249.239 47.9664C250.708 48.5612 251.105 48.7727 251.105 49.0106C251.105 49.1956 250.999 49.3014 250.232 49.3542C249.557 50.1605 248.922 50.7685 248.194 51.3501H252.124C252.957 50.4116 253.063 50.3323 253.182 50.3323C253.288 50.3323 253.433 50.4116 254.28 51.0989C254.703 51.4426 254.77 51.5616 254.77 51.6673C254.77 51.8127 254.69 51.8788 254.492 51.8788H246.527V54.3372H250.787C251.568 53.4252 251.7 53.3591 251.806 53.3591C251.912 53.3591 252.044 53.4252 252.904 54.0993C253.301 54.4165 253.354 54.5487 253.354 54.6545C253.354 54.7866 253.288 54.8659 253.076 54.8659H246.514V57.4962H252.693C253.539 56.5181 253.645 56.452 253.777 56.452C253.883 56.452 254.016 56.5181 254.928 57.2583C255.325 57.602 255.391 57.7077 255.391 57.8267C255.391 57.9456 255.312 58.0117 255.1 58.0117H238.497C237.901 58.0117 237.504 58.0381 236.922 58.1439L236.711 57.3376C237.372 57.4698 237.835 57.483 238.47 57.483H245.204V54.8527H245.231ZM241.54 48.0854C243.193 48.6008 244.106 49.46 244.106 50.2662C244.106 50.7553 243.828 51.0989 243.339 51.0989C243.021 51.0989 242.836 50.9668 242.704 50.5306C242.453 49.6847 242.082 48.9181 241.394 48.2836C241.288 48.2043 241.421 48.0457 241.54 48.0986V48.0854Z" fill="white"/>
<path d="M265.83 66.6824C265.83 67.1054 265.552 67.2508 265.023 67.2508C264.599 67.2508 264.467 67.1186 264.467 66.7617C264.467 66.4048 264.547 65.6118 264.547 62.9815C264.547 61.7258 264.52 61.0782 264.52 60.5495C263.329 61.2632 262.086 61.858 260.723 62.3338C260.591 62.3735 260.485 62.0959 260.591 62.0431C263.396 60.6684 266.042 58.5668 267.656 56.4917C268.251 55.7119 268.714 54.9585 268.992 54.2447C270.407 54.7338 270.857 54.9452 270.857 55.1567C270.857 55.3286 270.712 55.4079 270.235 55.4739C271.294 56.9411 272.551 57.9985 274.125 58.9105C275.766 59.8622 277.671 60.4173 279.351 60.6023C279.457 60.6288 279.43 60.7874 279.324 60.8138C278.901 60.9196 278.703 61.131 278.491 61.6994C278.412 61.9505 278.306 62.0431 278.134 62.0431C277.962 62.0431 277.538 61.9373 276.983 61.6994C276.427 61.4615 275.898 61.2103 275.369 60.9196C275.289 60.9857 275.183 61.065 274.972 61.1707V62.8493C274.972 65.3078 275.038 66.2859 275.038 66.5634C275.038 67.0128 274.787 67.1318 274.231 67.1318C273.808 67.1318 273.675 67.0261 273.675 66.6427V65.9158H265.803V66.6824H265.83ZM269.098 50.6495V49.5525C269.098 49.0899 269.098 48.5612 269.018 48.0193C270.923 48.2307 271.188 48.3761 271.188 48.6405C271.188 48.7859 271.082 48.9313 270.447 49.1956V50.6628H276.599C277.274 49.9226 277.366 49.8829 277.485 49.8829C277.631 49.8829 277.869 50.0151 278.65 50.7685C279.139 51.2576 279.179 51.3369 279.179 51.469C279.179 51.7069 278.994 51.8127 278.398 51.8127C277.988 51.8127 277.869 51.8788 277.552 52.196C277.208 52.5132 276.612 53.0023 276.017 53.3988C275.911 53.4781 275.766 53.3591 275.832 53.2534C276.149 52.6983 276.454 52.0374 276.745 51.1915H263.144C263.038 52.804 262.271 53.8218 261.424 53.8218C260.974 53.8218 260.644 53.4781 260.644 53.0419C260.644 52.7247 260.789 52.5132 261.213 52.2621C262.231 51.6673 262.694 50.9271 262.787 49.6318C262.787 49.4996 263.025 49.4996 263.038 49.6318C263.105 49.9887 263.144 50.3588 263.144 50.676H269.111L269.098 50.6495ZM261.424 57.0997C262.933 56.2273 264.229 55.0642 265.142 53.9143C265.631 53.2931 266.015 52.6983 266.227 52.1563C267.431 52.6718 267.986 52.9626 267.986 53.1609C267.986 53.3724 267.748 53.4517 267.113 53.4781C265.631 55.236 263.951 56.5049 261.57 57.4037C261.438 57.4434 261.318 57.1658 261.424 57.1129V57.0997ZM273.583 60.338C273.728 60.1662 273.834 60.0604 273.927 59.9811C273.715 59.8093 273.503 59.6639 273.305 59.4921C272.141 58.5536 270.976 57.4169 269.891 55.659C269.389 56.3331 268.873 56.9675 268.277 57.5887C267.431 58.5008 266.452 59.2674 265.433 59.9811C265.618 60.1133 265.777 60.1926 265.962 60.338H273.583ZM273.715 60.8799H265.843V65.4003H273.715V60.8799ZM271.585 52.3678C274.787 53.4252 276.93 54.9981 276.93 56.2538C276.93 56.6767 276.692 56.9543 276.334 56.9543C275.977 56.9543 275.818 56.8089 275.382 56.1877C274.403 54.8659 273.239 53.7424 271.479 52.6057C271.373 52.5397 271.453 52.3282 271.585 52.3678Z" fill="white"/>
<path d="M288.797 52.5C288.413 53.4781 287.964 54.4298 287.434 55.3153C289.498 56.2934 290.147 57.3112 290.147 58.1307C290.147 58.699 289.869 59.0427 289.512 59.0427C289.234 59.0427 288.996 58.8576 288.89 58.4215C288.638 57.364 288.043 56.3066 287.236 55.6061C286.429 56.9014 285.41 58.0514 284.153 59.1881C284.074 59.2674 283.836 59.0559 283.915 58.9501C285.701 56.875 287.143 53.9671 287.884 51.1254C288.136 50.1341 288.347 49.1295 288.413 48.244C289.895 48.5347 290.411 48.7462 290.411 48.9445C290.411 49.156 290.213 49.3014 289.684 49.4335C289.472 50.3455 289.234 51.1783 288.956 51.9581H292.303C292.872 51.3236 292.965 51.284 293.07 51.284C293.176 51.284 293.309 51.3236 293.983 51.9052C294.274 52.1431 294.327 52.2885 294.327 52.3943C294.327 52.5397 294.182 52.6718 293.732 52.8833C292.528 59.5185 289.789 63.7613 284.325 66.8807C284.22 66.9468 284.034 66.7088 284.14 66.6295C289.022 62.9551 291.311 58.8709 292.422 52.5H288.771H288.797ZM298.111 57.8663C298.257 57.9985 298.429 58.1042 298.574 58.2232C300.32 59.4921 302.159 60.1529 303.734 60.4702C303.866 60.4966 303.813 60.6552 303.694 60.7081C303.244 60.8138 303.033 60.9989 302.808 61.6597C302.742 61.8051 302.636 61.8712 302.517 61.8712C302.398 61.8712 302.093 61.8051 301.604 61.554C300.413 60.9196 299.169 60.0736 298.19 59.1616L298.124 59.0955C298.151 64.1843 298.19 65.929 298.19 66.5238C298.19 66.9071 297.939 67.1186 297.317 67.1186C296.894 67.1186 296.748 66.9732 296.748 66.6295C296.748 66.0083 296.814 64.1314 296.828 57.7077C296.193 56.875 295.558 55.8837 294.856 54.4562C294.711 54.139 294.671 54.0597 294.473 53.9671C294.367 53.9275 294.288 53.835 294.288 53.7557C294.288 53.6499 294.79 53.3724 294.949 53.3724C295.055 53.3724 295.095 53.4384 295.095 53.5178V53.7292C295.095 53.8614 295.134 53.9804 295.24 54.1786C295.769 55.1567 296.298 55.9233 296.828 56.5578V55.3682C296.828 50.3455 296.828 49.1295 296.748 48.244C298.64 48.4554 298.852 48.5612 298.852 48.8123C298.852 48.9841 298.773 49.1031 298.124 49.4071V57.8663H298.111Z" fill="white"/>
<path d="M312.955 56.0159C314.966 56.6371 316.263 57.8002 316.263 58.7255C316.263 59.1484 315.971 59.5053 315.667 59.5053C315.35 59.5053 315.178 59.3599 314.926 58.8048C314.476 57.787 313.934 57.0072 312.955 56.3727V59.7829C312.955 64.2768 312.982 66.0612 312.982 66.5899C312.982 67.0128 312.704 67.2111 312.135 67.2111C311.725 67.2111 311.632 67.0393 311.632 66.7088C311.632 66.1801 311.738 63.9464 311.817 56.9279C310.666 59.3467 309.502 60.9724 307.769 62.5718C307.69 62.6511 307.451 62.4925 307.531 62.3867C309.396 59.9547 310.693 57.4434 311.566 54.5223H309.423C308.973 54.5223 308.682 54.5487 308.126 54.628L307.914 53.8482C308.51 53.9539 308.867 53.9936 309.423 53.9936H311.738V50.5306C310.759 50.7024 309.674 50.8214 308.391 50.9271C308.258 50.9271 308.205 50.676 308.325 50.6495C310.574 50.1605 312.466 49.4996 313.696 48.8916C314.252 48.6141 314.635 48.3894 314.926 48.125C316.024 48.852 316.329 49.1428 316.329 49.341C316.329 49.5393 316.091 49.6847 315.31 49.5128C314.543 49.8301 313.775 50.068 312.968 50.2795V53.9936H314.384C315.112 53.1477 315.191 53.0816 315.323 53.0816C315.456 53.0816 315.575 53.1477 316.368 53.8085C316.712 54.0861 316.779 54.1918 316.779 54.3108C316.779 54.4562 316.699 54.5223 316.487 54.5223H312.982V56.0291L312.955 56.0159ZM324.955 59.6507C325.524 58.4875 325.696 58.3157 325.828 58.3157C325.96 58.3157 326.145 58.4215 327.19 59.0427C327.587 59.2806 327.654 59.3863 327.654 59.5053C327.654 59.5714 327.574 59.6507 327.376 59.6903L324.002 60.3644C324.042 65.0963 324.108 66.0083 324.108 66.537C324.108 66.9864 323.79 67.1979 323.221 67.1979C322.772 67.1979 322.626 67.0128 322.626 66.6428C322.626 66.0744 322.666 64.8848 322.692 60.6156L316.752 61.8051C316.289 61.9109 315.971 61.977 315.442 62.2017L315.059 61.4615C315.72 61.4218 316.21 61.3557 316.646 61.2764L322.719 60.0869V55.6986C322.719 50.6099 322.692 49.1031 322.573 48.1514C324.373 48.3497 324.756 48.4687 324.756 48.7198C324.756 48.8916 324.677 49.037 324.015 49.2881V59.8225L324.968 59.6375L324.955 59.6507ZM316.739 55.3021C318.816 55.5929 320.284 56.7032 320.284 57.7209C320.284 58.1835 320.007 58.5272 319.61 58.5272C319.266 58.5272 319.107 58.3818 318.909 57.9985C318.406 56.9807 317.758 56.2406 316.62 55.54C316.514 55.4739 316.62 55.2889 316.752 55.3021H316.739ZM317.797 50.5702C319.769 50.9668 321.144 52.077 321.144 53.108C321.144 53.5706 320.867 53.9143 320.483 53.9143C320.165 53.9143 319.927 53.7424 319.649 53.0816C319.239 52.1431 318.498 51.3369 317.652 50.7949C317.546 50.7289 317.652 50.5438 317.784 50.557L317.797 50.5702Z" fill="white"/>
<path d="M335.618 54.9849C337.338 55.7251 337.96 56.6767 337.96 57.4698C337.96 57.8927 337.682 58.21 337.325 58.21C337.087 58.21 336.941 58.0381 336.835 57.5755C336.623 56.69 336.279 55.9894 335.618 55.4079V56.1877C335.618 63.3384 335.658 66.048 335.658 66.7749C335.658 67.1847 335.38 67.3433 334.851 67.3433C334.441 67.3433 334.321 67.2111 334.321 66.8807C334.321 66.3123 334.401 64.0389 334.533 56.386C333.726 58.7387 332.787 60.3776 331.345 62.1752C331.265 62.281 331.054 62.1091 331.107 62.0034C332.641 59.5185 333.567 56.4256 334.229 53.2666H332.959C332.562 53.2666 332.284 53.2931 331.702 53.3988L331.49 52.619C332.086 52.7247 332.43 52.7511 332.959 52.7511H334.427V51.165C334.427 49.2353 334.401 48.7066 334.295 47.9664C336.081 48.1779 336.332 48.2572 336.332 48.5347C336.332 48.7066 336.2 48.8255 335.605 49.0899V52.7643H336.346C336.875 51.9845 336.981 51.9184 337.086 51.9184C337.166 51.9184 337.272 51.9845 337.933 52.6454C338.145 52.8569 338.224 52.989 338.224 53.108C338.224 53.227 338.158 53.2931 337.946 53.2931H335.592V55.0113L335.618 54.9849ZM347.062 55.1303V55.7647C347.062 56.5446 347.128 57.298 347.128 57.483C347.128 57.8663 346.877 57.9853 346.414 57.9853C346.123 57.9853 345.951 57.906 345.951 57.5755V57.2847H341.876V57.5359C341.876 57.9192 341.585 58.0249 341.201 58.0249C340.857 58.0249 340.738 57.9192 340.738 57.6152C340.738 57.3773 340.778 56.7296 340.778 56.0423V54.8263C339.997 55.4475 339.124 55.9762 338.171 56.4124C338.066 56.4785 337.92 56.2009 338.026 56.1348C339.6 55.1435 340.95 53.8218 341.902 52.4207H339.693C339.283 52.4207 338.965 52.4471 338.423 52.5529L338.238 51.7466C338.833 51.8788 339.19 51.892 339.719 51.892H342.246C342.564 51.3633 342.868 50.7024 343.08 50.068C341.783 50.2002 340.381 50.2795 338.833 50.3059C338.701 50.3059 338.687 50.0151 338.806 49.9887C341.439 49.7111 344.178 49.1824 345.911 48.5876C346.691 48.31 347.313 48.0589 347.631 47.8078C348.623 48.614 348.954 48.8652 348.954 49.0767C348.954 49.2617 348.636 49.3675 347.948 49.1031C346.639 49.5128 345.249 49.7772 343.768 49.9887C344.509 50.1737 344.866 50.3323 344.866 50.5174C344.866 50.6892 344.76 50.7553 344.098 50.861C343.913 51.2179 343.701 51.5616 343.477 51.9052H347.829C348.53 51.0725 348.663 50.9535 348.782 50.9535C348.888 50.9535 349.073 51.0857 349.867 51.7202C350.211 51.9977 350.264 52.1035 350.264 52.2356C350.264 52.3678 350.197 52.4471 349.986 52.4471H345.607C346.348 53.2534 346.983 53.8085 347.816 54.2711C348.755 54.7998 349.959 55.2096 351.15 55.4211C351.256 55.4475 351.229 55.5929 351.124 55.6061C350.7 55.7383 350.528 55.8573 350.383 56.3463C350.316 56.5842 350.237 56.6371 350.105 56.6371C349.999 56.6371 349.787 56.5578 349.483 56.3992C348.65 55.9762 347.935 55.5665 347.26 54.9585L347.049 55.1039L347.062 55.1303ZM348.398 58.9501C348.954 58.3289 349.033 58.2893 349.139 58.2893C349.271 58.2893 349.351 58.3289 349.946 58.8444C350.237 59.0955 350.303 59.2013 350.303 59.307C350.303 59.4788 350.224 59.5846 349.748 59.8754V61.5937C349.748 64.6072 349.827 65.2153 349.827 65.81C349.827 66.3387 349.589 66.6956 349.205 66.9732C348.967 67.145 348.583 67.264 348.253 67.264C348.067 67.264 348.014 67.2375 347.975 67.0128C347.895 66.5899 347.697 66.3123 346.149 65.9554C346.017 65.929 346.043 65.6779 346.176 65.7043C347.274 65.81 347.75 65.81 348.173 65.81C348.425 65.81 348.557 65.6779 348.557 65.4267V59.4656H339.322V66.7353C339.322 67.1582 339.071 67.3301 338.581 67.3301C338.185 67.3301 338.052 67.1979 338.052 66.8674C338.052 66.3387 338.118 64.832 338.118 61.8448C338.118 59.5978 338.118 59.0427 338.039 58.1571C338.634 58.4082 339.058 58.6461 339.521 58.9369H348.398V58.9501ZM342.273 64.1182V64.6073C342.273 64.9509 342.035 65.0699 341.611 65.0699C341.294 65.0699 341.161 64.9641 341.161 64.6866C341.161 64.5412 341.201 63.9199 341.201 62.3999C341.201 61.5143 341.201 61.131 341.122 60.3644C341.611 60.5627 341.902 60.7477 342.379 61.0253H345.355C345.845 60.523 345.924 60.457 346.03 60.457C346.136 60.457 346.242 60.523 346.705 60.9196C346.983 61.1575 347.049 61.2764 347.049 61.3822C347.049 61.5143 346.983 61.5937 346.546 61.8712V62.4264C346.546 63.7217 346.586 64.2239 346.586 64.3826C346.586 64.7262 346.374 64.8319 345.924 64.8319C345.58 64.8319 345.474 64.7659 345.474 64.4486V64.1314H342.273V64.1182ZM345.858 54.3372C346.07 54.1258 346.149 54.02 346.255 53.9539C345.832 53.4913 345.421 52.9758 345.091 52.4471H343.119C342.67 53.0684 342.167 53.6103 341.611 54.1258C341.717 54.1918 341.823 54.2579 341.968 54.3372H345.858ZM345.937 54.8792H341.863V56.7693H345.937V54.8792ZM345.474 61.554H342.273V63.5895H345.474V61.554Z" fill="white"/>
<path d="M363.308 52.3282C363.308 49.4071 363.282 48.7462 363.202 47.9532C365.055 48.1382 365.346 48.2968 365.346 48.5215C365.346 48.6934 365.24 48.8123 364.618 49.1163V52.5925H370.558C371.405 51.5351 371.537 51.4426 371.656 51.4426C371.762 51.4426 371.934 51.5219 372.887 52.315C373.337 52.6983 373.416 52.804 373.416 52.9097C373.416 53.0551 373.337 53.1212 373.125 53.1212H364.869C365.968 55.4739 367.264 57.1526 368.521 58.4082C370.267 60.1265 372.344 61.3161 374.17 61.9902C374.276 62.0298 374.236 62.1752 374.13 62.2017C373.681 62.3074 373.456 62.4792 373.178 63.1533C373.112 63.3252 373.032 63.4309 372.9 63.4309C372.768 63.4309 372.45 63.2591 372.053 63.0079C370.611 62.0563 368.918 60.6552 367.727 59.1484C366.629 57.7341 365.584 56.0687 364.525 53.4252C364.592 56.267 364.631 59.1088 364.671 61.9505H366.669C367.41 61.0385 367.555 60.9328 367.661 60.9328C367.767 60.9328 367.952 61.0385 368.786 61.739C369.169 62.0563 369.235 62.162 369.235 62.2942C369.235 62.3999 369.169 62.4792 368.958 62.4792H364.671C364.711 65.2946 364.737 66.2991 364.737 66.6824C364.737 67.1054 364.42 67.3036 363.824 67.3036C363.374 67.3036 363.202 67.1318 363.202 66.7749C363.202 66.4841 363.229 65.3739 363.282 62.4924H360.437C359.921 62.4924 359.591 62.5189 358.995 62.6246L358.784 61.8184C359.419 61.9505 359.802 61.9637 360.371 61.9637H363.282L363.414 54.628C361.271 58.4611 358.347 61.4615 354.537 63.5366C354.431 63.6027 354.246 63.3516 354.352 63.2855C357.646 60.9063 360.742 57.4566 362.567 53.1477H356.879C356.31 53.1477 355.939 53.1741 355.304 53.2798L355.119 52.4736C355.82 52.6057 356.217 52.619 356.879 52.619H363.308V52.3282Z" fill="white"/>
<path d="M380.64 58.7122C380.534 58.7783 380.401 58.8444 380.256 58.8444C380.071 58.8444 379.978 58.7122 379.978 58.5668C379.978 58.4215 380.084 58.2893 380.256 58.1439C382.227 56.3463 383.656 54.6016 385.323 51.892C385.601 51.4294 385.68 51.2179 385.68 50.98C385.68 50.6628 385.336 50.3852 384.939 50.1737C384.807 50.1076 384.688 50.0019 384.688 49.8961C384.688 49.764 384.979 49.6582 385.389 49.6582C385.918 49.6582 386.381 50.0019 386.805 50.3191C387.228 50.6363 387.466 50.9536 387.466 51.2576C387.466 51.5087 387.294 51.707 387.083 51.8127C386.871 51.9184 386.699 52.1299 386.104 52.9362C386.183 52.9626 386.276 52.9626 386.381 52.9626C386.659 52.9626 387.016 52.923 387.36 52.8833C388.339 52.7511 389.146 52.6057 389.927 52.4736C390.218 52.4339 390.35 52.3414 390.549 52.1563C390.681 52.0242 390.787 51.9713 390.999 51.9713C391.237 51.9713 391.501 52.1431 392.044 52.5397C392.507 52.8965 392.639 53.0287 392.639 53.3195C392.639 53.5706 392.428 53.6764 392.242 53.7821C392.057 53.8878 391.885 53.9936 391.779 54.1786C390.522 56.5313 389.041 58.6329 387.625 60.2058C385.932 62.0959 384 63.8539 380.745 65.5854C380.6 65.6647 380.428 65.7307 380.282 65.7307C380.15 65.7307 380.005 65.5986 380.005 65.4135C380.005 65.3078 380.071 65.202 380.243 65.0963C382.783 63.5234 384.953 61.6862 386.699 59.5582C388.207 57.7341 389.543 55.7779 390.628 53.531C390.655 53.4913 390.668 53.3988 390.668 53.3459C390.668 53.2666 390.602 53.2402 390.536 53.2402C390.324 53.2402 388.895 53.4781 388.141 53.6235C387.718 53.7028 387.255 53.7953 386.831 53.7953C386.514 53.7953 386.262 53.7292 385.746 53.5442C384.331 55.5136 382.69 57.2319 380.679 58.7122H380.64Z" fill="white"/>
<path d="M407.576 50.3588C407.338 50.1076 406.954 49.9755 406.517 49.8565C406.345 49.8168 406.24 49.7508 406.24 49.5789C406.24 49.3674 406.636 49.1824 407.02 49.1824C407.377 49.1824 408.105 49.4203 408.528 49.6054C409.097 49.8565 409.574 50.1605 409.574 50.5835C409.574 50.7156 409.534 50.8346 409.388 51.0064C409.256 51.1386 409.177 51.3501 409.15 52.0638C409.111 54.2051 409.11 56.0555 408.939 57.6152C408.767 59.2409 408.37 60.8535 407.457 62.1752C405.988 64.2768 403.911 65.5721 401.053 66.4181C400.948 66.4445 400.762 66.4841 400.643 66.4841C400.471 66.4841 400.352 66.352 400.352 66.233C400.352 66.0876 400.432 65.9951 400.564 65.9554C403.025 65.1227 405.552 63.2458 406.65 61.2897C407.377 60.0208 407.655 58.4479 407.748 57.0733C407.88 55.4343 407.88 53.531 407.854 51.4162C407.854 50.7817 407.814 50.6363 407.576 50.372V50.3588ZM402.099 51.588C401.927 51.3369 401.675 51.1386 401.265 50.9668C401.053 50.8875 400.987 50.861 400.987 50.7289C400.987 50.5174 401.331 50.3455 401.49 50.3455C401.9 50.3455 402.429 50.557 402.972 50.9139C403.527 51.2708 403.858 51.5351 403.858 51.892C403.858 52.0638 403.779 52.1828 403.647 52.315C403.541 52.4207 403.461 52.6322 403.435 53.2534C403.395 54.5223 403.369 56.6503 403.369 59.1749C403.369 59.8754 403.131 60.0472 402.879 60.0472C402.601 60.0472 402.429 59.8754 402.244 59.5449C402.112 59.307 401.993 58.9237 401.993 58.5008C401.993 58.3157 402.019 58.1439 402.072 57.9456C402.112 57.8002 402.152 57.6548 402.178 57.3112C402.244 55.5929 402.257 54.1125 402.257 52.7511C402.257 52.011 402.231 51.8127 402.072 51.588H402.099Z" fill="white"/>
<path d="M422.221 60.9328C425.251 60.5891 429.114 60.338 431.84 60.338C432.157 60.338 432.409 60.2719 432.541 60.1926C432.713 60.0869 432.951 59.9811 433.136 59.9811C433.48 59.9811 433.851 60.1133 434.287 60.3248C434.988 60.6816 435.16 60.8799 435.16 61.3161C435.16 61.6069 435.015 61.8051 434.763 61.8051C434.446 61.8051 434.261 61.7787 434.036 61.7391C433.639 61.673 433.321 61.6069 432.7 61.554C432.038 61.4879 430.742 61.4483 429.776 61.4483C428.691 61.4483 426.164 61.554 422.671 62.0827C422.168 62.162 421.891 62.2678 421.692 62.4264C421.547 62.5321 421.401 62.5718 421.189 62.5718C420.872 62.5718 420.316 62.2942 419.721 61.6862C419.152 61.0914 419.046 60.7345 419.046 60.4966C419.046 60.219 419.126 60.1001 419.258 60.1001C419.39 60.1001 419.496 60.2719 419.708 60.457C420.171 60.9064 420.541 61.0253 421.176 61.0253C421.414 61.0253 421.798 60.9857 422.261 60.946L422.221 60.9328ZM426.243 53.7292C427.288 53.6235 428.307 53.4913 429.326 53.2798C429.617 53.2138 429.71 53.1477 429.829 53.0684C430.001 52.9626 430.12 52.8569 430.358 52.8569C430.702 52.8569 431.35 52.9891 431.694 53.2005C432.012 53.3856 432.157 53.6235 432.157 53.8746C432.157 54.2183 431.906 54.324 431.456 54.3637C429.379 54.5091 427.103 54.7205 424.854 54.932C424.497 54.9717 424.285 54.9981 424.074 55.0378C423.862 55.0774 423.69 55.1039 423.571 55.1039C423.055 55.1039 422.579 54.7205 422.063 54.0861C421.785 53.7424 421.666 53.531 421.666 53.3195C421.666 53.1741 421.798 53.0419 421.877 53.0419C421.944 53.0419 421.983 53.0684 422.116 53.1873C422.645 53.6896 423.161 53.8878 423.69 53.8878C424.431 53.8878 425.158 53.8218 426.257 53.716L426.243 53.7292Z" fill="white"/>
<path d="M442.847 55.4607C442.847 55.3814 442.992 55.2492 443.098 55.2492C443.204 55.2492 443.284 55.3153 443.376 55.355C443.932 55.6722 444.315 56.0291 444.633 56.3992C445.083 56.9014 445.308 57.3905 445.308 57.8795C445.308 58.3686 444.964 58.6594 444.633 58.6594C444.302 58.6594 444.077 58.4875 443.958 57.8134C443.892 57.4698 443.773 57.0733 443.575 56.69C443.403 56.3463 443.217 56.0291 442.979 55.7119C442.9 55.6061 442.847 55.5268 442.847 55.4607ZM451.949 55.2096C451.737 55.1039 451.46 54.9981 451.221 54.9585C451.142 54.932 451.116 54.8924 451.116 54.8131C451.116 54.747 451.182 54.6677 451.261 54.628C451.407 54.5487 451.618 54.5223 451.883 54.5223C452.346 54.5223 453.074 54.7734 453.51 55.0774C453.854 55.3153 454.172 55.6326 454.172 55.9233C454.172 56.0952 454.039 56.2141 453.894 56.3066C453.709 56.4124 453.576 56.4785 453.404 56.7957C452.412 58.7519 451.473 60.2323 449.938 61.8844C448.536 63.4177 446.737 64.8055 444.779 65.7175C444.593 65.7968 444.435 65.8233 444.368 65.8233C444.223 65.8233 444.117 65.6779 444.117 65.5457C444.117 65.4135 444.157 65.3607 444.302 65.2681C446.207 64.0786 447.954 62.5982 449.29 60.9592C450.441 59.5582 451.288 58.2628 452.055 56.6107C452.24 56.2009 452.346 55.9366 452.346 55.6986C452.346 55.4872 452.161 55.3418 451.923 55.2096H451.949ZM446.472 54.4694C446.472 54.3901 446.644 54.2976 446.75 54.2976C446.856 54.2976 446.922 54.3372 447.028 54.4033C447.597 54.7602 447.98 55.1832 448.337 55.6722C448.681 56.1613 448.827 56.6503 448.827 57.0336C448.827 57.6284 448.549 57.9853 448.152 57.9853C447.808 57.9853 447.583 57.8795 447.477 57.0733C447.438 56.69 447.332 56.2934 447.186 55.9101C447.041 55.4872 446.829 55.1303 446.591 54.7602C446.512 54.628 446.485 54.5752 446.485 54.4694H446.472Z" fill="white"/>
<path d="M463.472 58.7122C463.367 58.7783 463.234 58.8444 463.089 58.8444C462.904 58.8444 462.811 58.7122 462.811 58.5668C462.811 58.4215 462.917 58.2893 463.089 58.1439C465.06 56.3463 466.489 54.6016 468.156 51.892C468.434 51.4294 468.513 51.2179 468.513 50.98C468.513 50.6628 468.169 50.3852 467.772 50.1737C467.64 50.1076 467.521 50.0019 467.521 49.8961C467.521 49.764 467.812 49.6582 468.222 49.6582C468.751 49.6582 469.214 50.0019 469.638 50.3191C470.061 50.6363 470.299 50.9536 470.299 51.2576C470.299 51.5087 470.127 51.707 469.915 51.8127C469.704 51.9184 469.532 52.1299 468.936 52.9362C469.016 52.9626 469.108 52.9626 469.214 52.9626C469.492 52.9626 469.849 52.923 470.193 52.8833C471.172 52.7511 471.979 52.6057 472.76 52.4736C473.051 52.4339 473.183 52.3414 473.382 52.1563C473.514 52.0242 473.62 51.9713 473.832 51.9713C474.07 51.9713 474.334 52.1431 474.877 52.5397C475.34 52.8965 475.472 53.0287 475.472 53.3195C475.472 53.5706 475.26 53.6764 475.075 53.7821C474.89 53.8878 474.718 53.9936 474.612 54.1786C473.355 56.5313 471.873 58.6329 470.458 60.2058C468.764 62.0959 466.833 63.8539 463.578 65.5854C463.433 65.6647 463.261 65.7307 463.115 65.7307C462.983 65.7307 462.837 65.5986 462.837 65.4135C462.837 65.3078 462.904 65.202 463.076 65.0963C465.616 63.5234 467.785 61.6862 469.532 59.5582C471.04 57.7341 472.376 55.7779 473.461 53.531C473.488 53.4913 473.501 53.3988 473.501 53.3459C473.501 53.2666 473.435 53.2402 473.368 53.2402C473.157 53.2402 471.728 53.4781 470.974 53.6235C470.55 53.7028 470.087 53.7953 469.664 53.7953C469.347 53.7953 469.095 53.7292 468.579 53.5442C467.164 55.5136 465.523 57.2319 463.512 58.7122H463.472Z" fill="white"/>
<path d="M23.3509 8.98792C23.3509 5.63066 26.0763 2.90786 29.4367 2.90786H32.2415V1.11027H4.47173V2.90786H7.27649C10.6369 2.90786 13.3623 5.63066 13.3623 8.98792V29.8055H23.3509V8.98792Z" fill="white"/>
<path d="M87.9529 3.60838C90.9958 3.60838 94.3562 4.30891 97.7166 5.59101C104.848 8.3006 109.465 15.253 109.465 22.8795H111.687V0H109.465C109.465 3.27795 105.932 5.28701 103.061 3.68769C98.1399 0.925227 92.5701 0.145393 86.5637 0.145393C69.1795 0.145393 54.8118 13.0193 52.2849 29.8055H63.57C65.4619 14.949 75.649 3.60838 87.9529 3.60838Z" fill="white"/>
<path d="M112.045 55.8176C105.734 62.0695 96.936 65.9819 87.9661 65.9819C74.326 65.9819 63.2657 52.011 63.2657 34.7885C63.2657 33.8104 63.3054 32.8323 63.3716 31.8807H0V36.1764H13.349V60.3248C13.349 63.682 10.6237 66.4048 7.26326 66.4048H4.4585V68.2024H32.215V66.4048H29.4102C26.0498 66.4048 23.3244 63.682 23.3244 60.3248V36.1764H51.888C52.4701 54.9585 67.7639 70 86.5505 70C97.5181 70 107.282 64.8716 113.632 56.875L112.018 55.8044L112.045 55.8176Z" fill="white"/>
</svg>
