<svg width="20" height="20" viewBox="0 0 20 20" fill="none" xmlns="http://www.w3.org/2000/svg">
<path d="M18.7492 8.78593C18.7492 4.87079 14.8242 1.68555 9.99959 1.68555C5.17497 1.68555 1.25 4.87079 1.25 8.78593C1.25 12.2959 4.36308 15.2352 8.56771 15.7912C8.85228 15.8527 9.24018 15.979 9.33859 16.2225C9.42716 16.444 9.396 16.79 9.3673 17.0139C9.3673 17.0139 9.26479 17.6315 9.24264 17.7627C9.2041 17.9841 9.06714 18.6279 10.0004 18.2342C10.9345 17.8406 15.0391 15.2671 16.8744 13.1546C18.1423 11.7637 18.7492 10.3531 18.7492 8.78593ZM6.91275 10.8796C6.91275 10.9723 6.83813 11.0469 6.74545 11.0469H4.28763C4.19496 11.0469 4.12033 10.9723 4.12033 10.8796V10.8772V7.06127C4.12033 6.9686 4.19496 6.89397 4.28763 6.89397H4.90844C5.00029 6.89397 5.07574 6.96942 5.07574 7.06127V10.0923H6.74627C6.83812 10.0923 6.91357 10.1678 6.91357 10.2596V10.8804L6.91275 10.8796ZM8.3922 10.8796C8.3922 10.9715 8.31758 11.0469 8.22491 11.0469H7.60409C7.51224 11.0469 7.4368 10.9723 7.4368 10.8796V7.06127C7.4368 6.96942 7.51142 6.89397 7.60409 6.89397H8.22491C8.31758 6.89397 8.3922 6.9686 8.3922 7.06127V10.8796ZM12.6165 10.8796C12.6165 10.9715 12.5419 11.0469 12.4492 11.0469H11.8325C11.8177 11.0469 11.803 11.0445 11.789 11.0412C11.789 11.0412 11.7874 11.0412 11.7866 11.0412C11.7825 11.0404 11.7792 11.0387 11.7751 11.0379C11.7735 11.0379 11.7718 11.0363 11.7702 11.0363C11.7677 11.0354 11.7644 11.0338 11.762 11.033C11.7595 11.0313 11.7562 11.0305 11.7538 11.0289C11.7521 11.0281 11.7505 11.0272 11.7489 11.0264C11.7456 11.0248 11.7415 11.0223 11.7382 11.0199C11.7382 11.0199 11.7366 11.019 11.7366 11.0182C11.7201 11.0067 11.7054 10.9928 11.6931 10.9764L9.94382 8.61371V10.8813C9.94382 10.9731 9.8692 11.0486 9.77652 11.0486H9.15571C9.06386 11.0486 8.98841 10.9739 8.98841 10.8813V7.06291C8.98841 6.97106 9.06304 6.89561 9.15571 6.89561H9.77242C9.77242 6.89561 9.77652 6.89561 9.77816 6.89561C9.78144 6.89561 9.78391 6.89561 9.78719 6.89561C9.79047 6.89561 9.79293 6.89561 9.79621 6.89643C9.79867 6.89643 9.80113 6.89643 9.80359 6.89725C9.80687 6.89725 9.81015 6.89889 9.81343 6.89971C9.81507 6.89971 9.81753 6.90053 9.81917 6.90135C9.82245 6.90217 9.82573 6.90381 9.82901 6.90463C9.83065 6.90463 9.83229 6.90627 9.83475 6.90627C9.83803 6.90791 9.84131 6.90873 9.84459 6.91037C9.84623 6.91119 9.84787 6.91201 9.84951 6.91283C9.85279 6.91447 9.85607 6.91611 9.85853 6.91775C9.86018 6.91857 9.86181 6.91939 9.86345 6.92103C9.86674 6.92267 9.86919 6.92513 9.87248 6.92677C9.87412 6.92759 9.87576 6.92923 9.8774 6.93005C9.88068 6.93251 9.88314 6.93497 9.88642 6.93743C9.88724 6.93825 9.88888 6.93907 9.8897 6.93989C9.89298 6.94317 9.89626 6.94645 9.89954 6.95055C9.89954 6.95055 9.89954 6.95055 9.90036 6.95137C9.90528 6.95712 9.90938 6.96286 9.91348 6.9686L11.6603 9.32801V7.06045C11.6603 6.9686 11.7349 6.89315 11.8276 6.89315H12.4484C12.5402 6.89315 12.6157 6.96778 12.6157 7.06045V10.8788L12.6165 10.8796ZM16.0051 7.68126C16.0051 7.77393 15.9305 7.84856 15.8378 7.84856H14.1673V8.49315H15.8378C15.9297 8.49315 16.0051 8.5686 16.0051 8.66045V9.28126C16.0051 9.37393 15.9305 9.44856 15.8378 9.44856H14.1673V10.0932H15.8378C15.9297 10.0932 16.0051 10.1686 16.0051 10.2605V10.8813C16.0051 10.9739 15.9305 11.0486 15.8378 11.0486H13.38C13.2874 11.0486 13.2127 10.9739 13.2127 10.8813V10.8788V7.06701V7.06291C13.2127 6.97024 13.2874 6.89561 13.38 6.89561H15.8378C15.9297 6.89561 16.0051 6.97106 16.0051 7.06291V7.68372V7.68126Z" fill="#34312C"/>
</svg>
