<svg width="20" height="20" viewBox="0 0 20 20" fill="none" xmlns="http://www.w3.org/2000/svg">
<g clip-path="url(#clip0_4336_6029)">
<path d="M10.4425 0.016875C11.5331 0 12.6175 0.01 13.7006 0C13.7662 1.27562 14.225 2.575 15.1587 3.47688C16.0906 4.40125 17.4087 4.82437 18.6912 4.9675V8.32313C17.4893 8.28375 16.2818 8.03375 15.1912 7.51625C14.7162 7.30125 14.2737 7.02438 13.8406 6.74125C13.835 9.17625 13.8506 11.6081 13.825 14.0331C13.76 15.1981 13.3756 16.3575 12.6981 17.3175C11.6081 18.9156 9.71622 19.9575 7.77309 19.99C6.58122 20.0581 5.39059 19.7331 4.37497 19.1344C2.69184 18.1419 1.50747 16.325 1.33497 14.375C1.31497 13.9581 1.30809 13.5419 1.32497 13.135C1.47497 11.5494 2.25934 10.0325 3.47684 9.00063C4.85684 7.79875 6.78997 7.22625 8.59997 7.565C8.61684 8.79938 8.56747 10.0325 8.56747 11.2669C7.74059 10.9994 6.77434 11.0744 6.05184 11.5762C5.52434 11.9181 5.12372 12.4419 4.91497 13.0344C4.74247 13.4569 4.79184 13.9263 4.80184 14.375C4.99997 15.7425 6.31497 16.8919 7.71872 16.7675C8.64934 16.7575 9.54122 16.2175 10.0262 15.4269C10.1831 15.15 10.3587 14.8669 10.3681 14.5413C10.45 13.0506 10.4175 11.5663 10.4275 10.0756C10.4343 6.71625 10.4175 3.36625 10.4431 0.0175L10.4425 0.016875Z" fill="white"/>
</g>
<defs>
<clipPath id="clip0_4336_6029">
<rect width="20" height="20" fill="white"/>
</clipPath>
</defs>
</svg>
