<svg width="18" height="18" viewBox="0 0 18 18" fill="none" xmlns="http://www.w3.org/2000/svg">
<g clip-path="url(#clip0_4423_2195)">
<path d="M9.39842 0.0151875C10.38 0 11.3559 0.009 12.3307 0C12.3898 1.14806 12.8027 2.3175 13.643 3.12919C14.4817 3.96113 15.668 4.34194 16.8223 4.47075V7.49081C15.7406 7.45538 14.6539 7.23038 13.6723 6.76463C13.2448 6.57113 12.8465 6.32194 12.4567 6.06713C12.4517 8.25863 12.4657 10.4473 12.4427 12.6298C12.3842 13.6783 12.0382 14.7218 11.4285 15.5858C10.4475 17.0241 8.74479 17.9617 6.99598 17.991C5.92329 18.0523 4.85173 17.7598 3.93767 17.2209C2.42285 16.3277 1.35692 14.6925 1.20167 12.9375C1.18367 12.5623 1.17748 12.1877 1.19267 11.8215C1.32767 10.3944 2.0336 9.02925 3.12935 8.10056C4.37135 7.01888 6.11117 6.50363 7.74017 6.8085C7.75535 7.91944 7.71092 9.02925 7.71092 10.1402C6.96673 9.89944 6.0971 9.96694 5.44685 10.4186C4.9721 10.7263 4.61154 11.1977 4.42367 11.7309C4.26842 12.1112 4.31285 12.5336 4.32185 12.9375C4.50017 14.1682 5.68367 15.2027 6.94704 15.0907C7.7846 15.0817 8.58729 14.5958 9.02379 13.8842C9.16498 13.635 9.32304 13.3802 9.33148 13.0871C9.40517 11.7456 9.37592 10.4096 9.38492 9.06806C9.3911 6.04463 9.37591 3.02962 9.39898 0.01575L9.39842 0.0151875Z" fill="#34312C"/>
</g>
<defs>
<clipPath id="clip0_4423_2195">
<rect width="18" height="18" fill="white"/>
</clipPath>
</defs>
</svg>
