<svg width="24" height="24" viewBox="0 0 24 24" fill="none" xmlns="http://www.w3.org/2000/svg">
<g clip-path="url(#clip0_4336_6017)">
<path d="M23.4982 6.1649C23.2227 5.12581 22.4086 4.30763 21.3764 4.02945C19.5055 3.5249 12 3.5249 12 3.5249C12 3.5249 4.49455 3.5249 2.62364 4.02945C1.59136 4.30763 0.777273 5.12581 0.501818 6.1649C0 8.04945 0 11.9794 0 11.9794C0 11.9794 0 15.9094 0.501818 17.794C0.777273 18.8331 1.59136 19.6513 2.62364 19.9294C4.49591 20.434 12 20.434 12 20.434C12 20.434 19.5055 20.434 21.3764 19.9294C22.4086 19.6513 23.2227 18.8331 23.4982 17.794C24 15.9108 24 11.9794 24 11.9794C24 11.9794 24 8.04945 23.4982 6.1649ZM9.54545 15.5481V8.41081L15.8182 11.9794L9.54545 15.5481Z" fill="white"/>
</g>
<defs>
<clipPath id="clip0_4336_6017">
<rect width="24" height="24" fill="white"/>
</clipPath>
</defs>
</svg>
