<svg width="20" height="20" viewBox="0 0 20 20" fill="none" xmlns="http://www.w3.org/2000/svg">
<path d="M19.5818 5.1375C19.3523 4.27159 18.6739 3.58977 17.8136 3.35795C16.2545 2.9375 10 2.9375 10 2.9375C10 2.9375 3.74545 2.9375 2.18636 3.35795C1.32614 3.58977 0.647727 4.27159 0.418182 5.1375C0 6.70795 0 9.98295 0 9.98295C0 9.98295 0 13.258 0.418182 14.8284C0.647727 15.6943 1.32614 16.3761 2.18636 16.608C3.74659 17.0284 10 17.0284 10 17.0284C10 17.0284 16.2545 17.0284 17.8136 16.608C18.6739 16.3761 19.3523 15.6943 19.5818 14.8284C20 13.2591 20 9.98295 20 9.98295C20 9.98295 20 6.70795 19.5818 5.1375ZM7.95455 12.9568V7.00909L13.1818 9.98295L7.95455 12.9568Z" fill="#34312C"/>
</svg>
