<svg width="20" height="20" viewBox="0 0 20 20" fill="none" xmlns="http://www.w3.org/2000/svg">
<g clip-path="url(#clip0_4423_2192)">
<path d="M5.85842 0.0699987C4.79442 0.120199 4.06782 0.289999 3.43262 0.539599C2.77522 0.795799 2.21802 1.1396 1.66362 1.696C1.10922 2.2524 0.767816 2.81 0.513416 3.4684C0.267216 4.105 0.100416 4.8322 0.0534162 5.8968C0.00641622 6.9614 -0.00398378 7.3036 0.00121621 10.0192C0.00641621 12.7348 0.0184162 13.0752 0.0700162 14.142C0.120816 15.2058 0.290016 15.9322 0.539616 16.5676C0.796216 17.225 1.13962 17.782 1.69622 18.3366C2.25282 18.8912 2.81002 19.2318 3.47002 19.4866C4.10602 19.7324 4.83342 19.9 5.89782 19.9466C6.96222 19.9932 7.30482 20.004 10.0196 19.9988C12.7344 19.9936 13.0762 19.9816 14.1428 19.931C15.2094 19.8804 15.932 19.71 16.5676 19.4616C17.225 19.2044 17.7824 18.8616 18.3366 18.3048C18.8908 17.748 19.232 17.19 19.4862 16.5312C19.7326 15.8952 19.9 15.1678 19.9462 14.1042C19.9928 13.0368 20.0038 12.696 19.9986 9.9808C19.9934 7.2656 19.9812 6.9252 19.9306 5.8588C19.88 4.7924 19.7106 4.0682 19.4612 3.4324C19.2042 2.775 18.8612 2.2184 18.3048 1.6634C17.7484 1.1084 17.19 0.767399 16.5314 0.513799C15.895 0.267599 15.168 0.0997986 14.1036 0.0537986C13.0392 0.00779865 12.6966 -0.00400135 9.98082 0.00119865C7.26502 0.00639865 6.92502 0.0179986 5.85842 0.0699987ZM5.97522 18.1476C5.00022 18.1052 4.47082 17.9432 4.11802 17.8076C3.65082 17.6276 3.31802 17.41 2.96642 17.0618C2.61482 16.7136 2.39882 16.3796 2.21642 15.9134C2.07942 15.5606 1.91442 15.0318 1.86882 14.0568C1.81922 13.003 1.80882 12.6866 1.80302 10.0168C1.79722 7.347 1.80742 7.031 1.85362 5.9768C1.89522 5.0026 2.05822 4.4726 2.19362 4.12C2.37362 3.6522 2.59042 3.32 2.93942 2.9686C3.28842 2.6172 3.62142 2.4008 4.08802 2.2184C4.44042 2.0808 4.96922 1.9172 5.94382 1.8708C6.99842 1.8208 7.31442 1.8108 9.98382 1.805C12.6532 1.7992 12.97 1.8092 14.025 1.8556C14.9992 1.898 15.5294 2.0594 15.8816 2.1956C16.349 2.3756 16.6816 2.5918 17.033 2.9414C17.3844 3.291 17.601 3.6228 17.7834 4.0904C17.9212 4.4418 18.0848 4.9704 18.1308 5.9456C18.181 7.0002 18.1924 7.3164 18.1972 9.9856C18.202 12.6548 18.1926 12.9718 18.1464 14.0256C18.1038 15.0006 17.9422 15.5302 17.8064 15.8834C17.6264 16.3504 17.4094 16.6834 17.0602 17.0346C16.711 17.3858 16.3784 17.6022 15.9116 17.7846C15.5596 17.922 15.0302 18.086 14.0564 18.1324C13.0018 18.182 12.6858 18.1924 10.0154 18.1982C7.34502 18.204 7.03002 18.1932 5.97542 18.1476M14.1274 4.6554C14.1278 4.89275 14.1986 5.12466 14.3308 5.32179C14.463 5.51891 14.6507 5.67241 14.8701 5.76285C15.0896 5.8533 15.3309 5.87664 15.5636 5.82992C15.7963 5.78319 16.01 5.66851 16.1775 5.50037C16.345 5.33223 16.4589 5.11818 16.5048 4.8853C16.5507 4.65242 16.5264 4.41117 16.4352 4.19205C16.3439 3.97294 16.1898 3.78581 15.9921 3.65433C15.7945 3.52285 15.5624 3.45292 15.325 3.4534C15.0068 3.45404 14.7019 3.58102 14.4773 3.80643C14.2527 4.03183 14.1269 4.33721 14.1274 4.6554ZM4.86542 10.01C4.87102 12.846 7.17422 15.1398 10.0096 15.1344C12.845 15.129 15.1404 12.826 15.135 9.99C15.1296 7.154 12.8258 4.8596 9.99002 4.8652C7.15422 4.8708 4.86002 7.1744 4.86542 10.01ZM6.66662 10.0064C6.66531 9.34712 6.85954 8.70225 7.22473 8.15335C7.58992 7.60446 8.10968 7.17618 8.71828 6.92268C9.32688 6.66917 9.99698 6.60184 10.6439 6.72918C11.2907 6.85651 11.8853 7.17281 12.3524 7.63807C12.8195 8.10333 13.1382 8.69666 13.2681 9.34302C13.398 9.98938 13.3333 10.6597 13.0822 11.2693C12.8311 11.8789 12.4049 12.4004 11.8574 12.7678C11.31 13.1351 10.6659 13.3319 10.0066 13.3332C9.56885 13.3341 9.1352 13.2488 8.73041 13.0821C8.32563 12.9154 7.95765 12.6706 7.64749 12.3617C7.33734 12.0527 7.09107 11.6857 6.92277 11.2816C6.75447 10.8775 6.66743 10.4442 6.66662 10.0064Z" fill="#34312C"/>
</g>
<defs>
<clipPath id="clip0_4423_2192">
<rect width="20" height="20" fill="white"/>
</clipPath>
</defs>
</svg>
