<svg width="18" height="18" viewBox="0 0 18 18" fill="none" xmlns="http://www.w3.org/2000/svg">
<path d="M16.8743 7.90909C16.8743 4.38547 13.3418 1.51875 8.99963 1.51875C4.65748 1.51875 1.125 4.38547 1.125 7.90909C1.125 11.0681 3.92677 13.7134 7.71093 14.2138C7.96705 14.2692 8.31616 14.3828 8.40473 14.602C8.48445 14.8013 8.4564 15.1128 8.43057 15.3143C8.43057 15.3143 8.33831 15.8701 8.31838 15.9882C8.28369 16.1875 8.16043 16.7669 9.00037 16.4126C9.84105 16.0583 13.5352 13.7422 15.187 11.8409C16.3281 10.5891 16.875 9.31957 16.875 7.90909H16.8743ZM6.22148 9.79342C6.22148 9.87683 6.15431 9.94399 6.07091 9.94399H3.85887C3.77546 9.94399 3.7083 9.87683 3.7083 9.79342V9.79121V6.3569C3.7083 6.27349 3.77546 6.20633 3.85887 6.20633H4.4176C4.50026 6.20633 4.56817 6.27423 4.56817 6.3569V9.08486H6.07165C6.15431 9.08486 6.22222 9.15276 6.22222 9.23543V9.79416L6.22148 9.79342ZM7.55298 9.79342C7.55298 9.87609 7.48582 9.94399 7.40241 9.94399H6.84368C6.76102 9.94399 6.69312 9.87683 6.69312 9.79342V6.3569C6.69312 6.27423 6.76028 6.20633 6.84368 6.20633H7.40241C7.48582 6.20633 7.55298 6.27349 7.55298 6.3569V9.79342ZM11.3549 9.79342C11.3549 9.87609 11.2877 9.94399 11.2043 9.94399H10.6493C10.636 9.94399 10.6227 9.94178 10.6101 9.93883C10.6101 9.93883 10.6087 9.93883 10.6079 9.93883C10.6042 9.93809 10.6013 9.93661 10.5976 9.93587C10.5961 9.93587 10.5946 9.9344 10.5932 9.9344C10.5909 9.93366 10.588 9.93218 10.5858 9.93145C10.5836 9.92997 10.5806 9.92923 10.5784 9.92775C10.5769 9.92702 10.5754 9.92628 10.574 9.92554C10.571 9.92406 10.5673 9.92185 10.5644 9.91963C10.5644 9.91963 10.5629 9.9189 10.5629 9.91816C10.5481 9.90783 10.5348 9.89528 10.5238 9.88052L8.94944 7.75409V9.7949C8.94944 9.87756 8.88228 9.94547 8.79887 9.94547H8.24014C8.15748 9.94547 8.08957 9.8783 8.08957 9.7949V6.35837C8.08957 6.27571 8.15674 6.20781 8.24014 6.20781H8.79518C8.79518 6.20781 8.79887 6.20781 8.80035 6.20781C8.8033 6.20781 8.80551 6.20781 8.80847 6.20781C8.81142 6.20781 8.81363 6.20781 8.81659 6.20854C8.8188 6.20854 8.82101 6.20854 8.82323 6.20928C8.82618 6.20928 8.82913 6.21076 8.83209 6.2115C8.83356 6.2115 8.83578 6.21223 8.83725 6.21297C8.8402 6.21371 8.84316 6.21519 8.84611 6.21592C8.84759 6.21592 8.84906 6.2174 8.85128 6.2174C8.85423 6.21888 8.85718 6.21961 8.86013 6.22109C8.86161 6.22183 8.86309 6.22257 8.86456 6.2233C8.86751 6.22478 8.87047 6.22626 8.87268 6.22773C8.87416 6.22847 8.87563 6.22921 8.87711 6.23069C8.88006 6.23216 8.88228 6.23438 8.88523 6.23585C8.8867 6.23659 8.88818 6.23807 8.88966 6.2388C8.89261 6.24102 8.89482 6.24323 8.89778 6.24545C8.89851 6.24619 8.89999 6.24692 8.90073 6.24766C8.90368 6.25061 8.90663 6.25357 8.90958 6.25726C8.90958 6.25726 8.90958 6.25726 8.91032 6.25799C8.91475 6.26316 8.91844 6.26833 8.92213 6.27349L10.4943 8.39697V6.35616C10.4943 6.27349 10.5614 6.20559 10.6448 6.20559H11.2036C11.2862 6.20559 11.3541 6.27276 11.3541 6.35616V9.79268L11.3549 9.79342ZM14.4046 6.91489C14.4046 6.99829 14.3375 7.06546 14.2541 7.06546H12.7506V7.6456H14.2541C14.3367 7.6456 14.4046 7.7135 14.4046 7.79616V8.3549C14.4046 8.4383 14.3375 8.50546 14.2541 8.50546H12.7506V9.0856H14.2541C14.3367 9.0856 14.4046 9.1535 14.4046 9.23617V9.7949C14.4046 9.8783 14.3375 9.94547 14.2541 9.94547H12.042C11.9586 9.94547 11.8914 9.8783 11.8914 9.7949V9.79268V6.36206V6.35837C11.8914 6.27497 11.9586 6.20781 12.042 6.20781H14.2541C14.3367 6.20781 14.4046 6.27571 14.4046 6.35837V6.9171V6.91489Z" fill="white"/>
</svg>
