<svg width="165" height="80" viewBox="0 0 165 80" fill="none" xmlns="http://www.w3.org/2000/svg">
<g clip-path="url(#clip0_7030_139)">
<path d="M9.63977 56.8033C9.64895 55.1517 9.71322 53.9267 9.82798 53.1697V53.0917C9.60764 53.1284 9.29091 53.1468 8.85482 53.1468C8.41874 53.1468 8.07905 53.1284 7.8679 53.0963V53.1789C7.99184 54.0047 8.05151 55.2297 8.05151 56.8079V58.244H1.77651V56.8079C1.78569 55.1563 1.84996 53.9313 1.96472 53.1743V53.0963C1.74438 53.133 1.42765 53.1513 0.991563 53.1513C0.55548 53.1513 0.215795 53.133 0.00463867 53.1009V53.1835C0.137759 54.0873 0.206614 55.3077 0.206614 56.8125V61.272C0.206614 62.9145 0.15153 64.1303 0.0367711 64.8919V64.9699C0.247927 64.9332 0.569251 64.9194 0.996153 64.9194C1.42306 64.9194 1.77192 64.9378 1.98308 64.9699V64.8873C1.84996 64.0018 1.7811 62.7814 1.7811 61.2766V59.0836H8.05151V61.2766C8.04233 62.9879 7.98266 64.2083 7.88167 64.8965V64.9745C8.10201 64.9378 8.42792 64.9194 8.85482 64.9194C9.28173 64.9194 9.5801 64.9332 9.75912 64.9653H9.76371L9.84175 64.8965V64.8873C9.70863 64.0018 9.63977 62.7814 9.63977 61.2766V56.8171V56.8033Z" fill="#231815"/>
<path d="M19.2336 56.6198C18.4211 54.5966 17.9024 53.3486 17.6866 52.9128H17.1587L14.5009 58.923L11.7605 64.9699C11.9533 64.9332 12.1782 64.9102 12.4399 64.9102C12.8255 64.9102 13.0963 64.9286 13.2707 64.9653C13.4911 64.0982 14.0006 62.6943 14.7764 60.7857L14.7855 60.7627H14.8131C14.9829 60.7398 15.4833 60.7215 16.3463 60.7123H17.7371C18.366 60.7123 18.8572 60.726 19.2106 60.7582H19.2382L19.2474 60.7903C19.6651 61.951 19.991 62.8961 20.2205 63.6027L20.6428 64.9607H20.6704C20.8999 64.9286 21.1983 64.9148 21.5655 64.9148C21.9924 64.9148 22.3734 64.9332 22.6993 64.9699L22.6855 64.9332C22.2265 63.9789 21.0651 61.1848 19.2428 56.629L19.2336 56.6198ZM18.8159 59.8589C18.3935 59.891 17.8565 59.9048 17.223 59.9048C16.5895 59.9048 15.9148 59.891 15.2124 59.8589H15.1436L15.1711 59.7947L17.0669 55.4545L17.1083 55.5508C17.7739 57.0649 18.3614 58.4963 18.8526 59.7993L18.8755 59.8543H18.8159V59.8589Z" fill="#231815"/>
<path d="M27.9552 57.9733C27.6155 57.8402 27.2713 57.6842 26.9316 57.5099C26.5873 57.331 26.2935 57.0878 26.0594 56.785C25.8207 56.4822 25.7014 56.1152 25.7014 55.7068C25.7014 55.2985 25.784 54.9361 25.9447 54.6287C26.1099 54.3167 26.3257 54.0919 26.5919 53.9542C26.8535 53.8166 27.2208 53.7478 27.6798 53.7478C28.1388 53.7478 28.5979 53.9267 29.0431 54.2754C29.4838 54.6241 29.8373 55.0829 30.0852 55.6426H30.3055V55.6242C30.3789 55.0966 30.5075 54.4864 30.6911 53.7982V53.7478L30.4019 53.5321C30.2091 53.3899 29.9015 53.2523 29.4792 53.1146C29.0569 52.977 28.4831 52.9082 27.7716 52.9082C26.7388 52.9082 25.8712 53.2248 25.1918 53.8533C24.5262 54.491 24.1866 55.2343 24.1866 56.0739C24.1774 57.2025 24.7282 58.1155 25.8345 58.7808C26.3165 59.079 26.7893 59.3175 27.2391 59.4965C27.6982 59.6754 28.0884 59.8727 28.4051 60.0791C28.7218 60.2856 28.9789 60.5563 29.1671 60.882C29.3553 61.2078 29.4517 61.6161 29.4517 62.0932C29.4517 62.5704 29.3461 62.9787 29.1441 63.2907C28.9376 63.6027 28.6759 63.8458 28.3546 64.0064C28.0379 64.167 27.6936 64.2496 27.3401 64.2496C26.6516 64.2496 25.9401 63.9238 25.224 63.2815C24.8935 62.9925 24.6364 62.6667 24.462 62.3181L24.4482 62.3043H24.2508V62.3226C24.1774 62.8915 24.0488 63.5155 23.8652 64.1808V64.2542L24.2554 64.456C25.0266 64.8735 26.0227 65.0846 27.2162 65.0846C27.9369 65.0846 28.6071 64.9424 29.213 64.6579C29.8143 64.3735 30.3009 63.9651 30.6544 63.4467C31.0078 62.9283 31.1868 62.3043 31.1868 61.5977C31.1777 60.6297 30.8058 59.8176 30.0897 59.1937C29.5297 58.7073 28.8136 58.2944 27.9552 57.9687V57.9733Z" fill="#231815"/>
<path d="M43.4339 56.8033C43.4431 55.1517 43.5073 53.9267 43.6221 53.1697V53.0917C43.4018 53.1284 43.085 53.1468 42.6489 53.1468C42.2129 53.1468 41.8732 53.1284 41.662 53.0963V53.1789C41.786 54.0047 41.8456 55.2297 41.8456 56.8079V58.244H35.5752V56.8079C35.5844 55.1563 35.6487 53.9313 35.7634 53.1743V53.0963C35.5431 53.133 35.2264 53.1513 34.7903 53.1513C34.3542 53.1513 34.0145 53.133 33.8033 53.1009V53.1835C33.9365 54.0873 34.0053 55.3077 34.0053 56.8125V61.272C34.0053 62.9145 33.9502 64.1303 33.8355 64.8919V64.9699C34.0466 64.9332 34.368 64.9194 34.7949 64.9194C35.2218 64.9194 35.5706 64.9378 35.7818 64.9699V64.8873C35.6487 64.0018 35.5798 62.7814 35.5798 61.2766V59.0836H41.8502V61.2766C41.841 62.9879 41.7814 64.2083 41.6804 64.8965V64.9745C41.9007 64.9378 42.2266 64.9194 42.6535 64.9194C43.0804 64.9194 43.3788 64.9332 43.5578 64.9653H43.5624L43.6405 64.8965V64.8873C43.5073 64.0018 43.4385 62.7814 43.4385 61.2766V56.8171L43.4339 56.8033Z" fill="#231815"/>
<path d="M48.7588 56.8033C48.7679 55.0783 48.8276 53.8579 48.9286 53.1697V53.0917C48.7129 53.1284 48.3961 53.1468 47.9692 53.1468C47.5148 53.1468 47.1935 53.1284 46.9823 53.0963V53.1789C47.1154 54.0827 47.1843 55.3031 47.1843 56.8079V61.2674C47.1843 62.9787 47.1338 64.1991 47.0282 64.8873V64.9653C47.2394 64.9286 47.5561 64.9148 47.9738 64.9148C48.4191 64.9148 48.7496 64.9332 48.9607 64.9653V64.8827C48.8276 63.9972 48.7588 62.7769 48.7588 61.272V56.8125V56.8033Z" fill="#231815"/>
<path d="M63.7278 52.8715V52.8485H63.2596L58.8253 61.8501H58.7059L58.6922 61.8226C57.4849 59.3497 56.1262 56.3354 54.6481 52.8623L54.6389 52.8485H54.01C53.6703 54.8305 53.1929 57.3585 52.587 60.359C52.0362 63.1026 51.724 64.6166 51.646 64.9561C51.8801 64.924 52.0959 64.9057 52.2886 64.9057C52.4814 64.9057 52.6696 64.924 52.8303 64.9607L52.8441 64.9378C52.9221 64.4423 53.0598 63.5247 53.2985 61.9602C53.5189 60.5058 53.6933 59.3634 53.8218 58.5559C53.9503 57.7576 54.0651 57.0006 54.1707 56.3033L54.1936 56.1519L54.2579 56.2895C55.5386 59.001 56.8055 61.896 58.022 64.8965L58.0312 64.9057H58.4168C59.9637 61.4096 61.3041 58.5422 62.4012 56.3767L62.47 56.2436L62.4884 56.3904C62.8878 59.4093 63.2274 62.2814 63.4937 64.9286V64.9561C63.6819 64.924 63.9848 64.9057 64.4209 64.9057C64.857 64.9057 65.1967 64.924 65.4492 64.9561L65.44 64.9332C64.7009 60.4049 64.1226 56.3491 63.7232 52.8669L63.7278 52.8715Z" fill="#231815"/>
<path d="M73.1472 52.9128C71.5085 52.9128 70.1268 53.5321 69.0343 54.7571C67.9418 55.9821 67.3864 57.4961 67.3864 59.2487C67.3864 61.0013 67.951 62.4282 69.071 63.4926C70.1911 64.5524 71.5636 65.0938 73.1656 65.0938C74.327 65.0938 75.3552 64.8323 76.2228 64.3138C77.0903 63.7954 77.7789 63.0659 78.2655 62.1391C78.752 61.2124 78.9999 60.1296 78.9999 58.9184C79.0091 57.1474 78.4445 55.6885 77.3244 54.5828C76.1998 53.4771 74.7952 52.9128 73.1472 52.9128ZM76.6405 62.0061C76.3329 62.7401 75.906 63.3045 75.3644 63.6853C74.8227 64.0661 74.1984 64.2588 73.5007 64.2588C72.803 64.2588 72.1236 64.0569 71.4764 63.6577C70.8291 63.2586 70.2966 62.6576 69.8927 61.873C69.4887 61.0885 69.2868 60.1571 69.2868 59.1065C69.2868 57.23 69.6815 55.8169 70.4573 54.9085C71.1229 54.1423 71.9492 53.7524 72.9177 53.7524C74.1801 53.7524 75.2083 54.2066 75.9657 55.0966C76.7231 55.9867 77.1041 57.3952 77.1041 59.2763C77.1041 60.359 76.948 61.2766 76.6451 62.0107L76.6405 62.0061Z" fill="#231815"/>
<path d="M80.1751 54.3672L80.2302 54.4589H80.2669C80.9967 54.3442 81.8689 54.2616 82.8421 54.2112C83.1404 54.202 83.3837 54.1928 83.5673 54.179L83.8795 54.1607L83.8887 54.1974C83.9851 54.5231 84.031 55.3765 84.031 56.8033V61.2628C84.031 63.0384 83.9851 64.2542 83.8933 64.8827V64.9607C84.1044 64.924 84.4166 64.9102 84.8205 64.9102C85.2658 64.9102 85.5963 64.9286 85.8074 64.9607V64.8781C85.6973 64.0661 85.6376 62.8457 85.6376 61.2674V56.8079C85.6376 55.4316 85.6789 54.5965 85.7615 54.2525L85.7707 54.2157H85.8074C87.0009 54.2157 87.9098 54.257 88.5157 54.3396L89.4292 54.4635L89.4981 54.3717C89.4797 54.2433 89.4659 54.0689 89.4659 53.8625C89.4659 53.656 89.4751 53.422 89.4981 53.1651V53.1513H80.1659V53.1697C80.1751 53.3073 80.1797 53.4266 80.1797 53.5413V54.1607C80.1797 54.2433 80.1751 54.3167 80.1659 54.3809L80.1751 54.3672Z" fill="#231815"/>
<path d="M96.4249 52.9128C94.7862 52.9128 93.4045 53.5321 92.312 54.7571C91.2195 55.9821 90.6641 57.4961 90.6641 59.2487C90.6641 61.0013 91.2287 62.4282 92.3487 63.4926C93.4688 64.5524 94.8413 65.0938 96.4433 65.0938C97.6047 65.0938 98.6329 64.8323 99.5005 64.3138C100.368 63.7954 101.057 63.0659 101.543 62.1391C102.03 61.2124 102.278 60.1296 102.278 58.9184C102.287 57.1474 101.722 55.6885 100.602 54.5828C99.4775 53.4771 98.0729 52.9128 96.4249 52.9128ZM99.9182 62.0061C99.6106 62.7401 99.1837 63.3045 98.6421 63.6853C98.1004 64.0661 97.4761 64.2588 96.7784 64.2588C96.0807 64.2588 95.4013 64.0569 94.7541 63.6577C94.1068 63.2586 93.5743 62.6576 93.1704 61.873C92.7664 61.0885 92.5645 60.1571 92.5645 59.1065C92.5645 57.23 92.9592 55.8169 93.735 54.9085C94.4006 54.1423 95.2269 53.7524 96.1954 53.7524C97.4578 53.7524 98.486 54.2066 99.2434 55.0966C100.001 55.9867 100.382 57.3952 100.382 59.2763C100.382 60.359 100.226 61.2766 99.9228 62.0107L99.9182 62.0061Z" fill="#231815"/>
<path d="M119.51 62.2997L119.363 62.2263L119.345 62.2401C118.922 62.7126 118.505 63.0934 118.105 63.3687C117.348 63.878 116.398 64.1349 115.282 64.1349C114.167 64.1349 113.203 63.6073 112.441 62.5658C111.683 61.5289 111.298 60.2718 111.298 58.8266C111.298 57.1429 111.752 55.8353 112.656 54.9361C113.051 54.5415 113.469 54.2525 113.905 54.0689C114.341 53.89 114.754 53.7937 115.126 53.7937C116.889 53.7937 118.133 54.5094 118.826 55.9179L118.84 55.9362H119.065V55.9041C119.129 55.1609 119.23 54.4818 119.377 53.8854V53.8212L119.363 53.8074L119.06 53.6744C118.486 53.422 117.775 53.2064 116.939 53.0458C116.462 52.9541 115.883 52.9082 115.227 52.9082C114.571 52.9082 113.877 53.0642 113.161 53.3762C112.445 53.6881 111.798 54.1286 111.238 54.6929C110.678 55.2572 110.228 55.9271 109.898 56.6795C109.567 57.4319 109.402 58.2669 109.402 59.1616C109.402 60.8407 109.87 62.2401 110.797 63.3136C111.812 64.4927 113.272 65.0892 115.135 65.0892C116.999 65.0892 118.509 64.4193 119.625 63.098V63.0797C119.62 62.9833 119.611 62.8411 119.597 62.6713C119.588 62.5153 119.56 62.3915 119.514 62.2951L119.51 62.2997Z" fill="#231815"/>
<path d="M129.521 63.3733H129.498L129.062 63.4421C127.511 63.6577 125.955 63.7679 124.44 63.7679H124.403L124.394 63.7357C124.298 63.4008 124.252 62.5933 124.252 61.2674V56.8079C124.261 55.0829 124.32 53.8625 124.421 53.1743V53.0963C124.201 53.133 123.884 53.1513 123.448 53.1513C123.012 53.1513 122.723 53.1376 122.544 53.1055L122.48 53.1743V53.1881C122.604 54.0827 122.663 55.3077 122.663 56.8171V61.2766C122.663 63.0521 122.604 64.2771 122.489 64.9194H129.553V64.9011C129.535 64.6579 129.521 64.3872 129.521 64.0982V63.3825V63.3733Z" fill="#231815"/>
<path d="M133.584 56.8033C133.593 55.0783 133.653 53.8579 133.754 53.1697V53.0917C133.538 53.1284 133.221 53.1468 132.794 53.1468C132.34 53.1468 132.018 53.1284 131.807 53.0963V53.1789C131.94 54.0827 132.009 55.3031 132.009 56.8079V61.2674C132.009 62.9787 131.959 64.1991 131.853 64.8873V64.9653C132.064 64.9286 132.381 64.9148 132.799 64.9148C133.244 64.9148 133.575 64.9332 133.786 64.9653V64.8827C133.653 63.9972 133.584 62.7769 133.584 61.272V56.8125V56.8033Z" fill="#231815"/>
<path d="M146.896 53.0963C146.689 53.1284 146.455 53.1422 146.216 53.1422C145.996 53.1422 145.789 53.1238 145.597 53.0917V53.1743C145.721 54.0001 145.78 55.2205 145.78 56.8033V61.6528C145.766 62.1162 145.721 62.2079 145.642 62.2079C145.592 62.2034 145.496 62.1896 144.724 61.2032L138.5 53.1146H138.477C138.142 53.1651 137.843 53.1697 137.605 53.1284L137.412 53.0917V53.1605C137.472 54.5644 137.504 56.4593 137.504 58.8037C137.504 61.1481 137.426 63.1944 137.274 64.8965V64.9653C137.472 64.9286 137.697 64.9148 137.944 64.9148C138.192 64.9148 138.422 64.9332 138.615 64.9653V64.8827C138.491 63.9927 138.431 62.7769 138.431 61.272V56.918C138.431 56.1427 138.482 56.0922 138.505 56.0693L138.518 56.0555H138.537C138.578 56.0555 138.651 56.0555 139.097 56.6428L145.445 64.6533C145.702 64.9469 145.968 65.0984 146.244 65.0984C146.391 65.0984 146.483 65.0479 146.524 64.9424C146.574 64.8231 146.602 64.6763 146.611 64.5111C146.643 63.1301 146.671 61.4418 146.694 59.4965C146.721 57.5374 146.818 55.4086 146.978 53.1651L146.9 53.1055H146.882L146.896 53.0963Z" fill="#231815"/>
<path d="M151.963 56.8033C151.973 55.0783 152.032 53.8579 152.133 53.1697V53.0917C151.918 53.1284 151.601 53.1468 151.174 53.1468C150.719 53.1468 150.398 53.1284 150.187 53.0963V53.1789C150.32 54.0827 150.389 55.3031 150.389 56.8079V61.2674C150.389 62.9787 150.338 64.1991 150.233 64.8873V64.9653C150.444 64.9286 150.761 64.9148 151.179 64.9148C151.624 64.9148 151.954 64.9332 152.165 64.9653V64.8827C152.032 63.9972 151.963 62.7769 151.963 61.272V56.8125V56.8033Z" fill="#231815"/>
<path d="M164.89 62.2997L164.743 62.2263L164.725 62.2401C164.302 62.7126 163.885 63.0934 163.485 63.3687C162.728 63.878 161.778 64.1349 160.662 64.1349C159.547 64.1349 158.583 63.6073 157.821 62.5658C157.063 61.5289 156.678 60.2718 156.678 58.8266C156.678 57.1429 157.132 55.8353 158.037 54.9361C158.431 54.5415 158.849 54.2525 159.285 54.0689C159.721 53.89 160.134 53.7937 160.506 53.7937C162.269 53.7937 163.513 54.5094 164.206 55.9179L164.22 55.9362H164.445V55.9041C164.509 55.1609 164.61 54.4818 164.757 53.8854V53.8212L164.743 53.8074L164.44 53.6744C163.866 53.422 163.155 53.2064 162.319 53.0458C161.842 52.9541 161.264 52.9082 160.607 52.9082C159.951 52.9082 159.258 53.0642 158.541 53.3762C157.825 53.6881 157.178 54.1286 156.618 54.6929C156.058 55.2572 155.608 55.9271 155.278 56.6795C154.947 57.4319 154.782 58.2669 154.782 59.1616C154.782 60.8407 155.25 62.2401 156.177 63.3136C157.192 64.4927 158.652 65.0892 160.515 65.0892C162.379 65.0892 163.889 64.4193 165.005 63.098V63.0797C165 62.9833 164.991 62.8411 164.977 62.6713C164.968 62.5153 164.94 62.3915 164.895 62.2951L164.89 62.2997Z" fill="#231815"/>
<path d="M19.2198 73.5127H18.3844C18.2099 73.5127 18.1044 73.5218 17.8703 73.5723L17.7739 73.2053C18.0355 73.2649 18.1411 73.2741 18.3752 73.2741H19.2198V72.4895H18.1135C17.9208 72.4895 17.7922 72.5079 17.5581 72.5492L17.4617 72.1913C17.7142 72.2372 17.8611 72.251 18.1044 72.251H19.2198C19.2198 71.7876 19.2198 71.5031 19.1693 71.1453C19.9864 71.2416 20.092 71.3013 20.092 71.4068C20.092 71.4756 20.0323 71.5352 19.7707 71.6499V72.251H20.6336C20.9274 71.8931 20.9642 71.861 21.0238 71.861C21.0835 71.861 21.1386 71.8885 21.492 72.1821C21.6389 72.2968 21.6665 72.3565 21.6665 72.407C21.6665 72.4666 21.6389 72.4941 21.5425 72.4941H19.7753V73.2787H20.4546C20.7255 72.9575 20.7759 72.93 20.8219 72.93C20.8678 72.93 20.9182 72.9483 21.2671 73.242C21.3727 73.3291 21.4048 73.3888 21.4048 73.4255C21.4048 73.4943 21.3773 73.5218 21.2809 73.5218H19.7753V74.3752H20.6979C21.0009 74.0082 21.0376 73.976 21.0973 73.976C21.1569 73.976 21.212 74.0036 21.5517 74.288C21.6986 74.4027 21.7262 74.4715 21.7262 74.5312C21.7262 74.5908 21.6986 74.6183 21.6022 74.6183H17.9208C17.728 74.6183 17.5994 74.6367 17.3653 74.678L17.2689 74.311C17.5306 74.3706 17.6866 74.3798 17.9299 74.3798H19.2198V73.5264V73.5127ZM18.5221 77.8437C18.5129 78.9815 18.5129 79.5137 18.5129 79.6697C18.5129 79.8624 18.4073 79.9495 18.1732 79.9495C17.9896 79.9495 17.9391 79.8807 17.9391 79.7156C17.9391 79.4036 17.9758 78.174 17.9758 76.7059C17.9758 75.669 17.9758 75.435 17.9391 75.0634C18.2008 75.1689 18.3568 75.2469 18.5909 75.3937H20.3582C20.5923 75.1322 20.6291 75.1138 20.6887 75.1138C20.7255 75.1138 20.7851 75.1322 21.0376 75.357C21.1753 75.4717 21.1937 75.5222 21.1937 75.5726C21.1937 75.6415 21.1753 75.6782 20.9779 75.8066V76.816C20.9779 78.5915 21.0055 78.876 21.0055 79.1145C21.0055 79.4173 20.8907 79.5504 20.7438 79.6697C20.6291 79.7568 20.3628 79.8532 20.2481 79.8532C20.1517 79.8532 20.1195 79.844 20.1012 79.7064C20.0644 79.4724 19.9772 79.3393 19.3346 79.1925C19.2749 79.1834 19.2841 79.0641 19.3438 79.0778C19.8212 79.1283 20.0507 79.1375 20.2664 79.1375C20.372 79.1375 20.4225 79.0962 20.4225 78.9723V77.8483H18.5175L18.5221 77.8437ZM20.4225 75.6415H18.5175V76.4948H20.4225V75.6415ZM20.4225 76.738H18.5175V77.6005H20.4225V76.738ZM23.98 72.2923C24.2417 71.9711 24.3013 71.9436 24.3472 71.9436C24.4069 71.9436 24.4849 71.9803 24.7558 72.2464C24.8935 72.384 24.9302 72.4528 24.9302 72.5079C24.9302 72.5951 24.8338 72.6364 24.54 72.7144C24.2187 73.1777 23.9066 73.5402 23.599 73.8613H24.5997C24.843 73.5907 24.8889 73.5677 24.9394 73.5677C24.9761 73.5677 25.0266 73.5861 25.2883 73.8017C25.4443 73.9302 25.4535 73.976 25.4535 74.0265C25.4535 74.0953 25.426 74.132 25.2102 74.2697V75.3937H25.403C25.6647 75.0129 25.7243 74.967 25.7702 74.967C25.8161 74.967 25.885 75.0175 26.1788 75.3065C26.3073 75.435 26.3257 75.4901 26.3257 75.5497C26.3257 75.6093 26.289 75.6369 26.188 75.6369H25.2056C25.2148 76.8894 25.2424 77.4812 25.2424 77.6372C25.2424 77.8116 25.1368 77.8712 24.8935 77.8712C24.7191 77.8712 24.6594 77.8116 24.6594 77.6647V77.2289H23.6082C23.6082 78.5181 23.6449 78.8484 23.6449 79.1879C23.6449 79.4907 23.5669 79.5963 23.4016 79.7201C23.2547 79.8257 23.0206 79.9037 22.8875 79.9037C22.7544 79.9037 22.7314 79.8945 22.7131 79.7568C22.6855 79.532 22.5662 79.4173 21.8593 79.2338C21.7996 79.2155 21.8088 79.0962 21.8684 79.1054C22.3734 79.165 22.6534 79.1742 22.8875 79.1742C23.0023 79.1742 23.0528 79.1237 23.0528 79.0274V77.2197H22.2862C22.0062 77.2197 21.8593 77.2289 21.616 77.2794L21.5196 76.9215C21.8317 76.972 21.997 76.9811 22.2862 76.9811H23.0528V75.6323H22.0612C21.8455 75.6323 21.7032 75.6415 21.4278 75.6919L21.3406 75.3341C21.6343 75.3708 21.795 75.3937 22.0612 75.3937H23.0528V74.1045H22.6534C22.3504 74.1045 22.199 74.1228 21.9327 74.1733L21.8363 73.8063C22.1576 73.8567 22.3413 73.8659 22.6442 73.8659H23.3328C23.5852 73.4484 23.8102 72.9896 23.9662 72.5446H22.7727C22.4514 73.0768 22.1026 73.5264 21.492 74.0127C21.4415 74.0494 21.3543 73.9714 21.3956 73.9347C21.8914 73.3337 22.2908 72.5675 22.58 71.6545C22.6304 71.4985 22.6855 71.3242 22.7039 71.1223C23.4705 71.3563 23.5898 71.4343 23.5898 71.5215C23.5898 71.6178 23.4843 71.6775 23.2088 71.7234C23.1033 71.9298 23.0069 72.1225 22.9059 72.306H23.9662L23.98 72.2923ZM24.6686 74.0953H23.6174V75.3845H24.6686V74.0953ZM23.622 75.6277V76.9766H24.6732V75.6277H23.622Z" fill="#231815"/>
<path d="M35.8094 71.7279C36.1031 71.4251 36.1307 71.3976 36.1903 71.3976C36.2408 71.3976 36.2959 71.4251 36.6081 71.6775C36.755 71.7922 36.7641 71.8426 36.7641 71.8931C36.7641 71.9711 36.7274 72.017 36.5025 72.1638V74.5816C36.5025 78.3575 36.553 78.7475 36.553 79.0778C36.553 79.4357 36.3969 79.61 36.1628 79.7201C36.0251 79.7798 35.7956 79.8257 35.667 79.8257C35.5798 79.8257 35.5385 79.8073 35.5293 79.6697C35.5018 79.4357 35.3641 79.3302 34.5195 79.1375C34.4598 79.1283 34.469 78.9815 34.5286 78.9906C35.1392 79.0503 35.4697 79.0595 35.7221 79.0595C35.8369 79.0595 35.8966 78.9998 35.8966 78.876V71.9711H29.5619V79.633C29.5619 79.8165 29.4334 79.9128 29.1717 79.9128C28.9697 79.9128 28.9009 79.8348 28.9009 79.6788C28.9009 79.1145 28.9514 78.0088 28.9514 75.2515C28.9514 72.4941 28.9514 71.9023 28.9009 71.3471C29.1947 71.4664 29.3966 71.5628 29.6583 71.7279H35.8048H35.8094ZM32.4033 74.4853H30.8196C30.558 74.4853 30.3927 74.4945 30.1127 74.5449L30.0255 74.1871C30.3468 74.2375 30.5213 74.2467 30.8105 74.2467H33.046C33.2296 73.8889 33.3856 73.4989 33.5234 73.1227C33.6381 72.8107 33.7162 72.5308 33.7575 72.2968C34.4185 72.5125 34.6618 72.6272 34.6618 72.7327C34.6618 72.8382 34.5654 72.8795 34.2624 72.907C33.9135 73.4805 33.6886 73.7833 33.303 74.2467H34.3909C34.7398 73.8109 34.7995 73.7696 34.8454 73.7696C34.9051 73.7696 34.9693 73.8109 35.3595 74.1366C35.5339 74.2926 35.5615 74.3385 35.5615 74.3889C35.5615 74.4486 35.5339 74.4853 35.4329 74.4853H32.9679V77.6005H34.1844V76.2333C34.1844 75.7286 34.1844 75.4488 34.1476 75.1551C34.9234 75.2606 35.0336 75.3019 35.0336 75.4075C35.0336 75.4763 34.9969 75.5222 34.7444 75.6231V76.3709C34.7444 77.5271 34.7719 78.0776 34.7719 78.2153C34.7719 78.3805 34.648 78.4493 34.4231 78.4493C34.2578 78.4493 34.189 78.4126 34.189 78.2658V77.8482H31.2282V78.2933C31.2282 78.4768 31.1318 78.5364 30.8977 78.5364C30.7232 78.5364 30.6544 78.4952 30.6544 78.3529C30.6544 78.2245 30.6819 77.7106 30.6819 76.6141C30.6819 75.7424 30.6819 75.5084 30.6452 75.1689C31.4439 75.2652 31.5403 75.3065 31.5403 75.412C31.5403 75.49 31.4898 75.5267 31.2282 75.6277V77.6097H32.4125V74.4945L32.4033 74.4853ZM31.0124 72.3565C31.6734 72.696 32.0912 73.1823 32.0912 73.5493C32.0912 73.8109 31.9443 73.9668 31.7515 73.9668C31.5954 73.9668 31.5174 73.8797 31.4715 73.6273C31.3659 73.1227 31.2374 72.8199 30.939 72.4345C30.9023 72.384 30.9665 72.329 31.017 72.3565H31.0124Z" fill="#231815"/>
<path d="M43.4753 77.1234C44.0399 77.9079 44.6596 78.3346 45.4353 78.6557C46.156 78.9448 47.0282 79.1008 47.8269 79.1191C47.8866 79.1191 47.8866 79.2063 47.8269 79.2246C47.5744 79.2935 47.4597 79.3898 47.3311 79.7201C47.3128 79.789 47.2439 79.8348 47.1659 79.8348C47.0879 79.8348 46.8629 79.7981 46.6885 79.7477C46.1239 79.6009 45.495 79.321 45.036 79.0503C44.3841 78.6695 43.792 78.1281 43.2779 77.1784C43.0529 77.8896 42.6949 78.3713 42.19 78.7613C41.4601 79.3439 40.5604 79.7018 39.0915 79.9082C39.0318 79.9174 39.0043 79.7614 39.0639 79.7523C40.3538 79.4311 41.3361 78.954 41.9788 78.2566C42.2909 77.9171 42.5021 77.5179 42.6398 77.1188H39.9177C39.6653 77.1188 39.4633 77.128 39.22 77.1784L39.1328 76.8114C39.4128 76.8618 39.6285 76.8802 39.9177 76.8802H42.7133C42.7408 76.7517 42.7729 76.6279 42.7913 76.5132C42.8188 76.3297 42.8418 76.1048 42.828 75.9213C43.6359 76.036 43.7782 76.0681 43.7782 76.1828C43.7782 76.2608 43.7507 76.3388 43.4477 76.4352C43.4202 76.582 43.388 76.715 43.3605 76.8527L43.3513 76.8802H46.3901C46.7711 76.426 46.8262 76.3847 46.8767 76.3847C46.9364 76.3847 47.0006 76.4214 47.4413 76.7747C47.6157 76.9215 47.6433 76.9811 47.6433 77.0362C47.6433 77.0912 47.6157 77.1234 47.5148 77.1234H43.4661H43.4753ZM42.9795 74.2788H40.8542C40.6201 74.2788 40.4181 74.288 40.1932 74.3385L40.0968 73.9577C40.3859 74.0173 40.5742 74.0357 40.845 74.0357H42.9841V72.9116H40.3033C40.06 72.9116 39.8672 72.9208 39.6331 72.9713L39.5367 72.5905C39.8076 72.6501 40.0233 72.6685 40.2941 72.6685H44.0536C44.3153 72.2877 44.4805 71.9482 44.6366 71.6087C44.7146 71.4343 44.7835 71.2691 44.8202 71.1223C45.4904 71.393 45.674 71.4894 45.674 71.5995C45.674 71.6866 45.6235 71.7371 45.2747 71.7555C44.9625 72.1225 44.6733 72.407 44.3428 72.6685H46.1377C46.5187 72.2418 46.5646 72.2051 46.6242 72.2051C46.6747 72.2051 46.739 72.2418 47.1292 72.5538C47.322 72.7098 47.3541 72.7694 47.3541 72.8153C47.3541 72.8841 47.3174 72.9116 47.2256 72.9116H43.5854V74.0357H45.5363C45.8944 73.6182 45.954 73.5906 46.0045 73.5906C46.055 73.5906 46.1101 73.6182 46.5095 73.9302C46.6931 74.077 46.7114 74.1366 46.7114 74.1825C46.7114 74.2421 46.6839 74.2788 46.5829 74.2788H43.5808V75.4809H46.4085C46.7987 75.0359 46.8446 75.0037 46.9042 75.0037C46.9547 75.0037 47.0098 75.0313 47.4275 75.3708C47.6112 75.5268 47.6433 75.5726 47.6433 75.6323C47.6433 75.6919 47.6066 75.7194 47.5056 75.7194H39.9086C39.6377 75.7194 39.4541 75.7286 39.1879 75.7791L39.0915 75.4121C39.3944 75.4717 39.6056 75.4809 39.8994 75.4809H42.9795V74.2788ZM41.2902 71.182C42.0477 71.416 42.4654 71.8151 42.4654 72.1821C42.4654 72.407 42.3368 72.5629 42.1165 72.5629C41.9696 72.5629 41.8824 72.5033 41.8227 72.3014C41.708 71.9115 41.5427 71.5628 41.2214 71.2737C41.1709 71.2324 41.2306 71.1682 41.2902 71.1866V71.182Z" fill="#231815"/>
<path d="M52.4034 79.6972C52.4034 79.8899 52.2795 79.9587 52.0362 79.9587C51.8434 79.9587 51.7837 79.8991 51.7837 79.7339C51.7837 79.5687 51.8204 79.2109 51.8204 78.0042C51.8204 77.4308 51.8113 77.1279 51.8113 76.8894C51.265 77.2197 50.6958 77.4904 50.0715 77.706C50.0118 77.7244 49.9659 77.6005 50.0118 77.5684C51.2926 76.9353 52.509 75.9764 53.248 75.0267C53.5189 74.6688 53.7346 74.3293 53.8586 73.999C54.5104 74.2238 54.7124 74.3201 54.7124 74.4165C54.7124 74.4945 54.6435 74.5312 54.4324 74.5633C54.9189 75.2331 55.4927 75.7194 56.2088 76.1369C56.957 76.5728 57.8292 76.8251 58.6004 76.9123C58.6509 76.9215 58.6371 76.9995 58.5912 77.0087C58.3984 77.0591 58.3112 77.1555 58.2102 77.417C58.1735 77.5317 58.123 77.573 58.045 77.573C57.9669 77.573 57.7741 77.5225 57.5217 77.417C57.2692 77.3115 57.0259 77.1922 56.7826 77.0591C56.7459 77.0867 56.6954 77.1279 56.599 77.1738V77.94C56.599 79.0641 56.6265 79.5137 56.6265 79.6376C56.6265 79.8394 56.5118 79.8991 56.2593 79.8991C56.0665 79.8991 56.0068 79.8486 56.0068 79.6743V79.3439H52.4034V79.6926V79.6972ZM53.8999 72.3565V71.8518C53.8999 71.6362 53.8999 71.3976 53.8631 71.1544C54.7353 71.2508 54.8547 71.3196 54.8547 71.4343C54.8547 71.5031 54.8042 71.5719 54.515 71.6866V72.3565H57.3335C57.6456 72.017 57.6823 71.9986 57.742 71.9986C57.8108 71.9986 57.9164 72.0583 58.2745 72.407C58.4994 72.6318 58.5178 72.6685 58.5178 72.7281C58.5178 72.8336 58.4305 72.8841 58.1597 72.8841C57.9761 72.8841 57.9164 72.9116 57.7695 73.0584C57.6135 73.2053 57.3426 73.4255 57.0718 73.6136C57.0213 73.6503 56.957 73.5952 56.9846 73.5448C57.1315 73.2924 57.2646 72.9896 57.4023 72.6042H51.1778C51.1273 73.3429 50.7784 73.8063 50.3928 73.8063C50.1909 73.8063 50.0348 73.6503 50.0348 73.4484C50.0348 73.3016 50.1037 73.2053 50.2964 73.0906C50.7647 72.8199 50.9758 72.4804 51.0171 71.8885C51.0171 71.8289 51.1227 71.8289 51.1319 71.8885C51.1594 72.0537 51.1824 72.2188 51.1824 72.3657H53.9136L53.8999 72.3565ZM50.3837 75.3111C51.0722 74.912 51.6644 74.3798 52.0821 73.8567C52.307 73.5769 52.4815 73.3016 52.5779 73.0493C53.1333 73.2832 53.3858 73.4163 53.3858 73.5035C53.3858 73.5998 53.2802 73.6411 52.9864 73.6503C52.307 74.4578 51.5404 75.0404 50.4525 75.4442C50.3928 75.4625 50.3378 75.3386 50.3837 75.3065V75.3111ZM55.9472 76.793C56.016 76.715 56.0619 76.6646 56.1032 76.6279C56.0068 76.5499 55.9104 76.481 55.8232 76.403C55.2907 75.9764 54.7537 75.4533 54.2579 74.6459C54.0238 74.9578 53.7897 75.2469 53.5189 75.5313C53.1287 75.9488 52.6834 76.2975 52.2152 76.6279C52.3024 76.6875 52.3713 76.7242 52.4585 76.793H55.9472ZM56.0068 77.0362H52.4034V79.1054H56.0068V77.0362ZM55.0337 73.1456C56.498 73.6319 57.4803 74.3477 57.4803 74.9211C57.4803 75.1138 57.3748 75.2423 57.2095 75.2423C57.0443 75.2423 56.9754 75.1735 56.7734 74.8936C56.3282 74.2926 55.7911 73.7787 54.9878 73.2511C54.9373 73.2236 54.9786 73.1227 55.0383 73.1456H55.0337Z" fill="#231815"/>
<path d="M62.9015 73.2007C62.7271 73.6457 62.5205 74.0861 62.2818 74.4899C63.2228 74.9349 63.5258 75.4029 63.5258 75.7791C63.5258 76.0406 63.4019 76.1966 63.232 76.1966C63.1081 76.1966 62.9979 76.1094 62.952 75.9167C62.8372 75.4304 62.5618 74.9441 62.1946 74.6275C61.8274 75.2194 61.3592 75.7424 60.7854 76.27C60.7486 76.3067 60.6385 76.2104 60.6798 76.1645C61.4969 75.2148 62.1579 73.8843 62.4976 72.5813C62.6123 72.1271 62.7133 71.6683 62.7408 71.26C63.4202 71.3976 63.6543 71.494 63.6543 71.5811C63.6543 71.6775 63.5671 71.7463 63.3238 71.8059C63.2274 72.2234 63.1218 72.6042 62.9933 72.9621H64.5265C64.7881 72.6685 64.8295 72.6501 64.8754 72.6501C64.9213 72.6501 64.9809 72.6685 65.2931 72.93C65.4308 73.0355 65.4492 73.1043 65.4492 73.1548C65.4492 73.2236 65.3803 73.2833 65.1783 73.3796C64.6229 76.4168 63.3697 78.3575 60.8772 79.7844C60.8267 79.8119 60.7395 79.7064 60.7899 79.6697C63.0254 77.9905 64.072 76.1186 64.577 73.2053H62.9061L62.9015 73.2007ZM67.1659 75.6598C67.2348 75.7195 67.3128 75.7653 67.3817 75.825C68.1758 76.4076 69.025 76.7104 69.7411 76.8527C69.8008 76.8618 69.7778 76.9398 69.7228 76.9582C69.5208 77.0087 69.4198 77.0958 69.3142 77.3941C69.2867 77.4629 69.2362 77.4904 69.1765 77.4904C69.1168 77.4904 68.9837 77.4629 68.7588 77.3436C68.2171 77.0545 67.6433 76.6646 67.1935 76.2471L67.1659 76.2195C67.1751 78.5502 67.1935 79.3439 67.1935 79.6146C67.1935 79.789 67.0787 79.8853 66.7941 79.8853C66.6013 79.8853 66.5325 79.8165 66.5325 79.6605C66.5325 79.3806 66.56 78.5135 66.5692 75.5726C66.2754 75.1918 65.9862 74.7376 65.6649 74.0861C65.596 73.9393 65.5777 73.9026 65.4905 73.8613C65.44 73.843 65.4032 73.8017 65.4032 73.765C65.4032 73.7145 65.6374 73.5906 65.7062 73.5906C65.7567 73.5906 65.7751 73.6182 65.7751 73.6595V73.7558C65.7751 73.8155 65.7934 73.8705 65.8439 73.9623C66.0872 74.4073 66.3305 74.756 66.5738 75.0496V74.5082C66.5738 72.2051 66.5738 71.6545 66.5371 71.2462C67.4 71.3425 67.501 71.393 67.501 71.5077C67.501 71.5857 67.4643 71.6454 67.1705 71.7784V75.6506L67.1659 75.6598Z" fill="#231815"/>
<path d="M73.9597 74.8156C74.8824 75.0955 75.4746 75.6323 75.4746 76.059C75.4746 76.2517 75.3369 76.4168 75.2037 76.4168C75.0568 76.4168 74.9788 76.348 74.864 76.0957C74.6621 75.6277 74.4096 75.2698 73.9597 74.9808V76.5453C73.9597 78.6053 73.9689 79.4173 73.9689 79.6605C73.9689 79.8532 73.8404 79.9404 73.5787 79.9404C73.3951 79.9404 73.3446 79.8624 73.3446 79.7064C73.3446 79.4632 73.3951 78.4447 73.4319 75.2285C72.9086 76.3342 72.3715 77.0821 71.5774 77.8116C71.5406 77.8483 71.4305 77.7749 71.4718 77.7244C72.3256 76.6095 72.9177 75.4625 73.3171 74.1228H72.3348C72.1328 74.1228 71.9951 74.132 71.7426 74.1733L71.6462 73.8155C71.917 73.8659 72.0823 73.8843 72.3348 73.8843H73.3951V72.3014C72.9499 72.3794 72.4541 72.4391 71.862 72.485C71.8023 72.485 71.7747 72.3703 71.8344 72.3565C72.8627 72.1317 73.7302 71.8335 74.2903 71.549C74.5427 71.4205 74.7172 71.315 74.8549 71.2003C75.3598 71.5307 75.4975 71.6637 75.4975 71.7509C75.4975 71.8381 75.3919 71.9069 75.0293 71.8289C74.6804 71.9757 74.3316 72.0812 73.9597 72.1776V73.8751H74.6116C74.9421 73.4851 74.9788 73.4576 75.0385 73.4576C75.0982 73.4576 75.1532 73.4851 75.5159 73.7879C75.6719 73.9164 75.6995 73.9623 75.6995 74.0219C75.6995 74.0907 75.6628 74.1183 75.5618 74.1183H73.9597V74.8065V74.8156ZM79.4452 76.4765C79.7069 75.9443 79.7849 75.8663 79.8446 75.8663C79.9042 75.8663 79.9915 75.9167 80.4643 76.1966C80.6479 76.3021 80.68 76.3526 80.68 76.4122C80.68 76.4398 80.6433 76.4811 80.5561 76.4994L79.0137 76.8114C79.0321 78.9769 79.0642 79.3944 79.0642 79.6376C79.0642 79.8394 78.9173 79.9404 78.6557 79.9404C78.4537 79.9404 78.3848 79.8532 78.3848 79.688C78.3848 79.4265 78.4032 78.8805 78.4124 76.9307L75.6949 77.4766C75.4791 77.5271 75.3368 77.5546 75.0936 77.6602L74.9191 77.3206C75.2221 77.3023 75.4424 77.2702 75.649 77.2335L78.4262 76.6875V74.678C78.4262 72.3473 78.417 71.6591 78.3573 71.2233C79.1836 71.3104 79.358 71.3701 79.358 71.4848C79.358 71.5628 79.3213 71.6316 79.0183 71.7463V76.5728L79.4544 76.4856L79.4452 76.4765ZM75.6857 74.4853C76.6359 74.6229 77.3061 75.1276 77.3061 75.591C77.3061 75.8066 77.1822 75.958 76.994 75.958C76.8379 75.958 76.7599 75.8892 76.6726 75.7149C76.4385 75.2469 76.1493 74.9074 75.6215 74.5908C75.571 74.5633 75.6214 74.4761 75.6811 74.4853H75.6857ZM76.1723 72.3198C77.0766 72.5033 77.7055 73.008 77.7055 73.4851C77.7055 73.7008 77.5769 73.8522 77.4025 73.8522C77.2556 73.8522 77.15 73.7742 77.0215 73.4714C76.8379 73.0447 76.4982 72.6776 76.108 72.4207C76.0575 72.3932 76.108 72.306 76.1677 72.3152L76.1723 72.3198Z" fill="#231815"/>
<path d="M84.3201 74.3385C85.1051 74.678 85.3897 75.1138 85.3897 75.4763C85.3897 75.669 85.2657 75.8158 85.1005 75.8158C84.9949 75.8158 84.9261 75.7378 84.8756 75.5222C84.7792 75.1138 84.6231 74.7927 84.3201 74.5312V74.889C84.3201 78.1602 84.3385 79.4036 84.3385 79.7339C84.3385 79.9174 84.21 79.9954 83.9713 79.9954C83.7877 79.9954 83.728 79.9358 83.728 79.7798C83.728 79.5183 83.7647 78.4814 83.8244 74.9762C83.4572 76.0544 83.0303 76.8022 82.3692 77.628C82.3325 77.6785 82.2315 77.6005 82.2637 77.55C82.9614 76.4122 83.3883 74.9991 83.6913 73.5494H83.1083C82.9247 73.5494 82.7961 73.5585 82.5345 73.609L82.4381 73.2511C82.7089 73.3016 82.865 73.3108 83.1083 73.3108H83.7785V72.5813C83.7785 71.6958 83.7693 71.4573 83.7188 71.1132C84.5359 71.2095 84.6506 71.2508 84.6506 71.3747C84.6506 71.4527 84.591 71.5123 84.3201 71.627V73.3062H84.6598C84.9031 72.9483 84.9536 72.9162 84.9995 72.9162C85.0362 72.9162 85.0867 72.9437 85.3897 73.2466C85.4861 73.3429 85.5274 73.4025 85.5274 73.4622C85.5274 73.5218 85.4999 73.5494 85.3989 73.5494H84.3201V74.3339V74.3385ZM89.5577 74.4073V74.6963C89.5577 75.0542 89.5853 75.3937 89.5853 75.4809C89.5853 75.6552 89.4705 75.7149 89.2548 75.7149C89.1171 75.7149 89.039 75.6736 89.039 75.5314V75.3937H87.1753V75.5084C87.1753 75.6828 87.0376 75.7332 86.8632 75.7332C86.7071 75.7332 86.6474 75.6828 86.6474 75.5497C86.6474 75.4442 86.6658 75.1414 86.6658 74.8294V74.2743C86.3078 74.5541 85.9084 74.7973 85.4723 75.0037C85.4218 75.0313 85.3576 74.9074 85.4035 74.8799C86.1241 74.4257 86.7438 73.82 87.1799 73.1823H86.17C85.9864 73.1823 85.8395 73.1915 85.5871 73.242L85.4999 72.8749C85.7707 72.9346 85.9359 72.9438 86.1792 72.9438H87.336C87.4829 72.7006 87.616 72.4024 87.717 72.1087C87.1248 72.1684 86.4822 72.2051 85.7753 72.2143C85.7156 72.2143 85.7064 72.0766 85.7661 72.0675C86.9688 71.9436 88.2219 71.7004 89.0206 71.4251C89.3787 71.3013 89.6633 71.182 89.8056 71.0673C90.26 71.4343 90.4069 71.5536 90.4069 71.6499C90.4069 71.7371 90.26 71.7876 89.9525 71.6591C89.3512 71.8426 88.7177 71.9711 88.0383 72.0675C88.378 72.1546 88.5433 72.2234 88.5433 72.3106C88.5433 72.3886 88.4928 72.4161 88.1944 72.4666C88.1072 72.6318 88.0108 72.7878 87.9144 72.9438H89.9066C90.2279 72.563 90.2876 72.5079 90.3427 72.5079C90.3932 72.5079 90.4804 72.5675 90.8384 72.8566C90.9945 72.985 91.022 73.0309 91.022 73.0906C91.022 73.1502 90.9945 73.1869 90.8935 73.1869H88.8921C89.2318 73.5539 89.5256 73.8063 89.902 74.0219C90.3289 74.2651 90.8843 74.4486 91.426 74.5449C91.4765 74.5541 91.4627 74.6229 91.4168 74.6321C91.224 74.6918 91.146 74.7468 91.0771 74.9716C91.0496 75.0771 91.0083 75.1093 90.9532 75.1093C90.9027 75.1093 90.8063 75.0726 90.6732 75.0037C90.2922 74.811 89.9663 74.6229 89.6541 74.3431L89.5577 74.4119V74.4073ZM90.1682 76.1553C90.4207 75.8754 90.462 75.8525 90.5079 75.8525C90.5676 75.8525 90.6043 75.8709 90.8752 76.1048C91.0129 76.2241 91.0404 76.27 91.0404 76.3205C91.0404 76.3985 91.0037 76.4489 90.7879 76.582V77.3711C90.7879 78.7475 90.8247 79.032 90.8247 79.3026C90.8247 79.5458 90.7191 79.711 90.5446 79.8348C90.4391 79.9128 90.2646 79.9725 90.1086 79.9725C90.0213 79.9725 90.003 79.9633 89.9846 79.8578C89.9479 79.6651 89.8561 79.5366 89.1492 79.3715C89.0895 79.3623 89.0987 79.243 89.1584 79.2568C89.6633 79.3072 89.879 79.3072 90.0718 79.3072C90.1866 79.3072 90.2463 79.2476 90.2463 79.1329V76.4031H86.0232V79.7339C86.0232 79.9266 85.9084 80.0046 85.6835 80.0046C85.4999 80.0046 85.4402 79.945 85.4402 79.789C85.4402 79.5458 85.4677 78.8576 85.4677 77.4904C85.4677 76.4627 85.4677 76.2104 85.431 75.802C85.7018 75.9213 85.8992 76.0268 86.1104 76.1599H90.1682V76.1553ZM87.3635 78.5227V78.7475C87.3635 78.9035 87.258 78.9631 87.0606 78.9631C86.9137 78.9631 86.8586 78.9127 86.8586 78.7888C86.8586 78.72 86.877 78.4401 86.877 77.7382C86.877 77.3298 86.877 77.1555 86.8402 76.8068C87.0652 76.894 87.1983 76.9811 87.414 77.1096H88.7728C88.9977 76.8756 89.0344 76.8481 89.0849 76.8481C89.1354 76.8481 89.1813 76.8756 89.3971 77.0637C89.5256 77.1692 89.5531 77.2289 89.5531 77.2794C89.5531 77.339 89.5256 77.3757 89.319 77.5042V77.7565C89.319 78.3483 89.3374 78.5823 89.3374 78.6512C89.3374 78.8071 89.241 78.8576 89.0344 78.8576C88.8784 78.8576 88.8324 78.8301 88.8324 78.6833V78.5365H87.3635V78.5227ZM89.0023 74.0494C89.0987 73.9531 89.14 73.9026 89.1859 73.8751C88.9931 73.6595 88.8049 73.4301 88.6534 73.1869H87.7491C87.5472 73.4668 87.313 73.7191 87.0606 73.9531C87.1111 73.9806 87.157 74.0127 87.2258 74.0494H89.0023ZM89.0436 74.288H87.1799V75.1506H89.0436V74.288ZM88.8279 77.3482H87.3589V78.2795H88.8279V77.3482Z" fill="#231815"/>
<path d="M96.9895 73.1227C96.9895 71.783 96.9803 71.4802 96.939 71.1223C97.7836 71.2095 97.9214 71.2783 97.9214 71.3838C97.9214 71.4618 97.8709 71.5215 97.5908 71.6545V73.2465H100.313C100.703 72.7602 100.758 72.7235 100.818 72.7235C100.868 72.7235 100.946 72.7602 101.382 73.1227C101.584 73.297 101.626 73.3475 101.626 73.3934C101.626 73.4622 101.589 73.4897 101.488 73.4897H97.7102C98.2151 74.5679 98.8073 75.3341 99.3811 75.9076C100.175 76.6921 101.13 77.2381 101.965 77.55C102.016 77.5684 101.993 77.6372 101.947 77.6464C101.745 77.6969 101.635 77.7749 101.511 78.0822C101.483 78.1602 101.442 78.2061 101.382 78.2061C101.323 78.2061 101.18 78.1281 100.992 78.0134C100.331 77.5776 99.5555 76.9353 99.0093 76.2471C98.5043 75.5956 98.0269 74.8386 97.5449 73.6273C97.5725 74.9303 97.5954 76.2287 97.6138 77.5317H98.5273C98.867 77.1142 98.9358 77.0637 98.9817 77.0637C99.0276 77.0637 99.1194 77.1142 99.4958 77.4308C99.6703 77.5776 99.6978 77.6235 99.6978 77.6831C99.6978 77.7336 99.6703 77.7703 99.5693 77.7703H97.6092C97.6276 79.0595 97.6367 79.5183 97.6367 79.6926C97.6367 79.8853 97.4899 79.9725 97.219 79.9725C97.017 79.9725 96.939 79.8945 96.939 79.7293C96.939 79.5917 96.9482 79.087 96.9757 77.7703H95.6721C95.438 77.7703 95.2819 77.7794 95.0111 77.8299L94.9147 77.4629C95.2039 77.5225 95.3829 77.5317 95.6445 77.5317H96.9757L97.0354 74.1733C96.0531 75.9305 94.7127 77.2977 92.9775 78.252C92.9271 78.2795 92.8398 78.1648 92.8903 78.1373C94.396 77.05 95.8144 75.4671 96.6498 73.4989H94.0471C93.7854 73.4989 93.6202 73.5081 93.3264 73.5585L93.2392 73.1915C93.5605 73.2511 93.7441 73.2603 94.0471 73.2603H96.9895V73.1318V73.1227Z" fill="#231815"/>
<path d="M104.917 76.0452C104.866 76.0727 104.811 76.1048 104.743 76.1048C104.655 76.1048 104.619 76.0452 104.619 75.981C104.619 75.9167 104.669 75.8525 104.743 75.7883C105.647 74.9624 106.299 74.1687 107.065 72.9254C107.189 72.7098 107.231 72.6134 107.231 72.5079C107.231 72.3611 107.074 72.2372 106.891 72.1409C106.831 72.1133 106.776 72.0629 106.776 72.0124C106.776 71.9527 106.914 71.9069 107.097 71.9069C107.341 71.9069 107.552 72.0629 107.749 72.2097C107.947 72.3565 108.052 72.5033 108.052 72.6364C108.052 72.751 107.974 72.8382 107.878 72.8887C107.781 72.9391 107.703 73.0355 107.432 73.4025C107.469 73.4117 107.511 73.4117 107.556 73.4117C107.685 73.4117 107.85 73.3934 108.002 73.375C108.447 73.3154 108.819 73.2465 109.177 73.1915C109.315 73.1731 109.37 73.1318 109.457 73.0447C109.517 72.985 109.562 72.9575 109.659 72.9575C109.764 72.9575 109.893 73.0355 110.136 73.219C110.352 73.3842 110.407 73.4438 110.407 73.5769C110.407 73.6962 110.311 73.742 110.223 73.7925C110.136 73.8384 110.058 73.8889 110.008 73.976C109.434 75.0542 108.755 76.0131 108.103 76.7334C107.327 77.5959 106.441 78.4034 104.954 79.1971C104.885 79.2384 104.807 79.2659 104.738 79.2659C104.678 79.2659 104.614 79.2063 104.614 79.1191C104.614 79.0686 104.642 79.0228 104.72 78.9723C105.886 78.252 106.877 77.4078 107.671 76.4398C108.36 75.6047 108.975 74.7101 109.466 73.6824C109.475 73.664 109.484 73.6228 109.484 73.5952C109.484 73.5539 109.457 73.5448 109.425 73.5448C109.328 73.5448 108.676 73.6503 108.328 73.7191C108.135 73.7604 107.919 73.7971 107.726 73.7971C107.579 73.7971 107.465 73.7696 107.231 73.6824C106.579 74.5862 105.83 75.3708 104.908 76.0498L104.917 76.0452Z" fill="#231815"/>
<path d="M117.233 72.2234C117.127 72.1087 116.953 72.0491 116.746 71.9895C116.668 71.9711 116.622 71.939 116.622 71.861C116.622 71.7646 116.806 71.6775 116.981 71.6775C117.146 71.6775 117.476 71.783 117.669 71.8702C117.931 71.9849 118.146 72.1225 118.146 72.3152C118.146 72.3748 118.128 72.4299 118.059 72.5079C118 72.5675 117.963 72.6639 117.954 72.9942C117.935 73.976 117.935 74.8202 117.857 75.5359C117.779 76.2838 117.596 77.0224 117.178 77.6235C116.508 78.5823 115.558 79.1788 114.245 79.5642C114.194 79.5733 114.107 79.5917 114.061 79.5917C113.983 79.5917 113.923 79.532 113.923 79.477C113.923 79.4082 113.96 79.3715 114.02 79.3485C115.144 78.9677 116.301 78.1052 116.806 77.2151C117.137 76.6325 117.261 75.9121 117.311 75.2836C117.371 74.5358 117.371 73.6641 117.362 72.6914C117.362 72.3978 117.343 72.3335 117.238 72.2143L117.233 72.2234ZM114.727 72.7832C114.649 72.6685 114.534 72.5813 114.346 72.5033C114.249 72.4666 114.217 72.4528 114.217 72.3978C114.217 72.3014 114.373 72.2234 114.451 72.2234C114.635 72.2234 114.878 72.3198 115.131 72.485C115.383 72.6501 115.539 72.7648 115.539 72.93C115.539 73.008 115.502 73.0676 115.443 73.1227C115.392 73.1731 115.356 73.2695 115.346 73.5494C115.328 74.132 115.319 75.1047 115.319 76.2562C115.319 76.5774 115.213 76.6554 115.094 76.6554C114.97 76.6554 114.892 76.5774 114.805 76.4214C114.745 76.3159 114.69 76.1415 114.69 75.9443C114.69 75.8571 114.699 75.7791 114.727 75.6919C114.745 75.6231 114.763 75.5543 114.777 75.4029C114.805 74.6183 114.814 73.9347 114.814 73.3154C114.814 72.9759 114.805 72.8887 114.727 72.7832Z" fill="#231815"/>
<path d="M123.935 77.0683C125.326 76.9123 127.093 76.7976 128.337 76.7976C128.484 76.7976 128.599 76.7701 128.658 76.7288C128.736 76.6783 128.842 76.6325 128.929 76.6325C129.085 76.6325 129.26 76.6921 129.452 76.7884C129.774 76.9536 129.852 77.0408 129.852 77.2427C129.852 77.3803 129.783 77.4675 129.668 77.4675C129.521 77.4675 129.434 77.4583 129.338 77.4399C129.154 77.4124 129.007 77.3803 128.727 77.3528C128.424 77.3252 127.832 77.3023 127.387 77.3023C126.891 77.3023 125.734 77.3528 124.132 77.5959C123.898 77.6372 123.774 77.6831 123.687 77.7519C123.618 77.8024 123.549 77.8207 123.453 77.8207C123.306 77.8207 123.053 77.6923 122.783 77.4124C122.521 77.1417 122.47 76.9766 122.47 76.871C122.47 76.7426 122.507 76.6875 122.567 76.6875C122.627 76.6875 122.672 76.7655 122.769 76.8527C122.985 77.0545 123.15 77.1142 123.439 77.1142C123.545 77.1142 123.719 77.0958 123.935 77.0729V77.0683ZM125.771 73.765C126.248 73.7145 126.712 73.6595 127.18 73.5631C127.318 73.5356 127.355 73.5035 127.414 73.4668C127.492 73.4163 127.552 73.3704 127.658 73.3704C127.814 73.3704 128.112 73.4301 128.268 73.5264C128.415 73.6136 128.484 73.7191 128.484 73.8384C128.484 73.9944 128.369 74.0448 128.163 74.0632C127.212 74.132 126.17 74.2284 125.142 74.3247C124.977 74.3431 124.88 74.3522 124.784 74.3752C124.688 74.3981 124.61 74.4027 124.55 74.4027C124.316 74.4027 124.095 74.2284 123.861 73.9347C123.737 73.7787 123.678 73.6824 123.678 73.5861C123.678 73.5172 123.737 73.4576 123.774 73.4576C123.802 73.4576 123.825 73.4668 123.88 73.5264C124.123 73.7604 124.357 73.8476 124.6 73.8476C124.94 73.8476 125.271 73.82 125.776 73.7696L125.771 73.765Z" fill="#231815"/>
<path d="M133.368 74.5633C133.368 74.5266 133.437 74.4669 133.483 74.4669C133.529 74.4669 133.57 74.4945 133.611 74.5174C133.864 74.6642 134.038 74.8294 134.185 74.9946C134.387 75.2285 134.497 75.4488 134.497 75.6736C134.497 75.8984 134.341 76.0314 134.185 76.0314C134.029 76.0314 133.933 75.9534 133.873 75.6415C133.845 75.4855 133.786 75.3019 133.698 75.1276C133.62 74.9716 133.533 74.8248 133.428 74.6826C133.391 74.6321 133.368 74.5954 133.368 74.5679V74.5633ZM137.536 74.444C137.44 74.3935 137.311 74.3477 137.205 74.3293C137.169 74.3201 137.155 74.3018 137.155 74.2605C137.155 74.233 137.182 74.1917 137.224 74.1733C137.293 74.1366 137.389 74.1228 137.504 74.1228C137.72 74.1228 138.05 74.2375 138.252 74.3752C138.408 74.4807 138.555 74.6275 138.555 74.7652C138.555 74.8432 138.495 74.9028 138.431 74.9395C138.344 74.99 138.284 75.0175 138.206 75.1643C137.752 76.059 137.32 76.738 136.622 77.495C135.98 78.1924 135.158 78.8347 134.263 79.2522C134.176 79.2889 134.107 79.3026 134.079 79.3026C134.011 79.3026 133.965 79.2338 133.965 79.1742C133.965 79.1145 133.983 79.087 134.052 79.0457C134.924 78.5043 135.723 77.8207 136.333 77.0775C136.857 76.4352 137.247 75.8433 137.596 75.0863C137.683 74.9028 137.733 74.7743 137.733 74.6688C137.733 74.5725 137.646 74.5036 137.541 74.444H137.536ZM135.03 74.1045C135.03 74.0678 135.108 74.0265 135.158 74.0265C135.209 74.0265 135.236 74.0449 135.282 74.077C135.544 74.2421 135.718 74.4348 135.883 74.6596C136.039 74.8844 136.108 75.1047 136.108 75.279C136.108 75.5497 135.984 75.7149 135.796 75.7149C135.64 75.7149 135.535 75.6644 135.484 75.2974C135.466 75.123 135.415 74.9395 135.346 74.7652C135.278 74.5725 135.181 74.4073 135.076 74.2421C135.039 74.1825 135.025 74.155 135.025 74.1045H135.03Z" fill="#231815"/>
<path d="M142.801 76.0452C142.751 76.0727 142.696 76.1048 142.627 76.1048C142.539 76.1048 142.503 76.0452 142.503 75.981C142.503 75.9167 142.553 75.8525 142.627 75.7883C143.531 74.9624 144.183 74.1687 144.949 72.9254C145.073 72.7098 145.115 72.6134 145.115 72.5079C145.115 72.3611 144.959 72.2372 144.775 72.1409C144.715 72.1133 144.66 72.0629 144.66 72.0124C144.66 71.9527 144.798 71.9069 144.982 71.9069C145.225 71.9069 145.436 72.0629 145.633 72.2097C145.831 72.3565 145.936 72.5033 145.936 72.6364C145.936 72.751 145.858 72.8382 145.762 72.8887C145.666 72.9391 145.587 73.0355 145.317 73.4025C145.353 73.4117 145.395 73.4117 145.441 73.4117C145.569 73.4117 145.734 73.3934 145.886 73.375C146.331 73.3154 146.703 73.2465 147.061 73.1915C147.199 73.1731 147.254 73.1318 147.341 73.0447C147.401 72.985 147.447 72.9575 147.543 72.9575C147.649 72.9575 147.777 73.0355 148.02 73.219C148.236 73.3842 148.291 73.4438 148.291 73.5769C148.291 73.6962 148.195 73.742 148.108 73.7925C148.02 73.8384 147.942 73.8889 147.892 73.976C147.318 75.0542 146.639 76.0131 145.987 76.7334C145.211 77.5959 144.325 78.4034 142.838 79.1971C142.769 79.2384 142.691 79.2659 142.622 79.2659C142.562 79.2659 142.498 79.2063 142.498 79.1191C142.498 79.0686 142.526 79.0228 142.604 78.9723C143.77 78.252 144.761 77.4078 145.555 76.4398C146.244 75.6047 146.859 74.7101 147.35 73.6824C147.359 73.664 147.369 73.6228 147.369 73.5952C147.369 73.5539 147.341 73.5448 147.309 73.5448C147.212 73.5448 146.561 73.6503 146.212 73.7191C146.019 73.7604 145.803 73.7971 145.61 73.7971C145.464 73.7971 145.349 73.7696 145.115 73.6824C144.463 74.5862 143.715 75.3708 142.792 76.0498L142.801 76.0452Z" fill="#231815"/>
<path d="M64.3338 4.87699C64.3338 3.05557 65.8119 1.57825 67.6342 1.57825H69.1536V0.601021H54.0973V1.57825H55.6167C57.4391 1.57825 58.9172 3.05557 58.9172 4.87699V16.1771H64.3384V4.87699H64.3338Z" fill="#231815"/>
<path d="M99.3902 1.95447C101.043 1.95447 102.86 2.33526 104.687 3.02804C108.557 4.50078 111.063 8.27665 111.063 12.415H112.266V0H111.063C111.063 1.78012 109.145 2.87205 107.589 2.00034C104.917 0.504674 101.892 0.0779951 98.642 0.0779951C89.2134 0.0779951 81.4098 7.06544 80.0419 16.1817H86.1654C87.1936 8.12067 92.7204 1.95905 99.3948 1.95905L99.3902 1.95447Z" fill="#231815"/>
<path d="M112.454 30.2988C109.035 33.6893 104.251 35.8181 99.3902 35.8181C91.9906 35.8181 85.991 28.2388 85.991 18.8886C85.991 18.3564 86.0139 17.8288 86.0506 17.3103H51.6689V19.641H58.9125V32.7442C58.9125 34.5656 57.4344 36.0429 55.6121 36.0429H54.0926V37.0201H69.149V36.0429H67.6296C65.8072 36.0429 64.3291 34.5656 64.3291 32.7442V19.641H79.8261C80.1429 29.8354 88.4376 38.0019 98.6328 38.0019C104.582 38.0019 109.879 35.2216 113.331 30.8815L112.454 30.3034V30.2988Z" fill="#231815"/>
</g>
<defs>
<clipPath id="clip0_7030_139">
<rect width="165" height="80" fill="white"/>
</clipPath>
</defs>
</svg>
