<svg width="9" height="12" viewBox="0 0 9 12" fill="none" xmlns="http://www.w3.org/2000/svg">
<path fill-rule="evenodd" clip-rule="evenodd" d="M4.85236 11.8496C4.75887 11.9459 4.63213 12 4.5 12C4.36787 12 4.24113 11.9459 4.14764 11.8496L0.158698 7.73515C0.10971 7.68806 0.0704174 7.63128 0.0431652 7.5682C0.0159121 7.50511 0.00125885 7.43701 7.72476e-05 7.36795C-0.0011034 7.29889 0.0112114 7.2303 0.0362892 7.16626C0.061367 7.10222 0.0986938 7.04405 0.146042 6.99521C0.19339 6.94637 0.249789 6.90787 0.311876 6.882C0.373963 6.85614 0.440464 6.84343 0.507414 6.84465C0.574364 6.84587 0.64039 6.86099 0.701553 6.8891C0.762717 6.91721 0.817764 6.95773 0.863413 7.00826L4.00138 10.245V0.514305C4.00138 0.377902 4.05392 0.247087 4.14742 0.150636C4.24093 0.0541849 4.36776 0 4.5 0C4.63224 0 4.75907 0.0541849 4.85258 0.150636C4.94608 0.247087 4.99862 0.377902 4.99862 0.514305V10.245L8.13659 7.00826C8.18224 6.95773 8.23728 6.91721 8.29845 6.8891C8.35961 6.86099 8.42564 6.84587 8.49259 6.84465C8.55954 6.84343 8.62604 6.85614 8.68812 6.882C8.75021 6.90787 8.80661 6.94637 8.85396 6.99521C8.90131 7.04405 8.93863 7.10222 8.96371 7.16626C8.98879 7.2303 9.0011 7.29889 8.99992 7.36795C8.99874 7.43701 8.98409 7.50511 8.95683 7.5682C8.92958 7.63128 8.89029 7.68806 8.8413 7.73515L4.85236 11.8496Z" fill="#34312C"/>
</svg>
