<svg width="500" height="68" viewBox="0 0 500 68" fill="none" xmlns="http://www.w3.org/2000/svg">
<path d="M168.307 16.1782C168.333 12.673 168.462 10.0793 168.708 8.46148V8.29456C168.243 8.3716 167.558 8.41012 166.628 8.41012C165.698 8.41012 164.974 8.3716 164.522 8.29456V8.47432C164.78 10.2205 164.922 12.827 164.922 16.1782V19.2213H151.537V16.1782C151.563 12.673 151.692 10.0793 151.938 8.46148V8.29456C151.473 8.3716 150.788 8.41012 149.858 8.41012C148.928 8.41012 148.204 8.3716 147.752 8.29456V8.46148C148.036 10.3746 148.178 12.9683 148.178 16.1654V25.6284C148.178 29.108 148.062 31.7017 147.816 33.3066V33.4736C148.269 33.3965 148.953 33.358 149.858 33.358C150.762 33.358 151.512 33.3965 151.964 33.4736V33.2938C151.68 31.4063 151.537 28.8255 151.537 25.6284V20.9804H164.922V25.6284C164.897 29.2621 164.78 31.8557 164.561 33.3066V33.4736C165.039 33.3965 165.736 33.358 166.641 33.358C167.545 33.358 168.191 33.3965 168.566 33.4607L168.734 33.3195V33.2938C168.45 31.4192 168.307 28.8255 168.307 25.6284V16.1654V16.1782Z" fill="#231815"/>
<path d="M188.786 15.7802C187.041 11.4789 185.943 8.821 185.491 7.90937H184.367L178.682 20.6594L172.829 33.4864C173.243 33.4094 173.721 33.358 174.276 33.358C175.078 33.358 175.685 33.3965 176.047 33.4736C176.512 31.6375 177.597 28.6586 179.264 24.6012L179.289 24.5499H179.341C179.69 24.4985 180.762 24.4728 182.623 24.4471H185.594C186.925 24.4471 187.985 24.4857 188.734 24.5499H188.798L188.824 24.614C189.716 27.0793 190.413 29.0823 190.904 30.5846L191.809 33.4607H191.873C192.377 33.3965 193.023 33.358 193.786 33.358C194.69 33.358 195.504 33.3965 196.202 33.4736L196.163 33.3965C195.181 31.3678 192.7 25.4358 188.811 15.7674L188.786 15.7802ZM187.894 22.6624C186.99 22.7266 185.84 22.7651 184.496 22.7651C183.152 22.7651 181.705 22.7266 180.207 22.6624H180.065L180.116 22.5211L184.16 13.3021L184.251 13.5076C185.672 16.7304 186.938 19.7734 187.984 22.5211L188.036 22.6367H187.907L187.894 22.6624Z" fill="#231815"/>
<path d="M207.416 18.6563C206.68 18.3739 205.956 18.04 205.233 17.6677C204.496 17.2953 203.876 16.7689 203.372 16.1397C202.868 15.4849 202.61 14.7273 202.61 13.8542C202.61 12.9811 202.791 12.2236 203.127 11.5687C203.476 10.9139 203.941 10.426 204.509 10.1307C205.065 9.84819 205.853 9.69411 206.835 9.69411C207.817 9.69411 208.799 10.0665 209.742 10.8112C210.685 11.5559 211.434 12.5317 211.964 13.713H212.429V13.6745C212.584 12.5574 212.855 11.2606 213.256 9.79683V9.68127L212.636 9.23187C212.222 8.93656 211.563 8.6284 210.672 8.34592C209.78 8.0506 208.553 7.90937 207.028 7.90937C204.819 7.90937 202.972 8.58988 201.525 9.91239C200.103 11.2606 199.38 12.8527 199.38 14.6246C199.354 17.0257 200.543 18.9645 202.894 20.3769C203.915 21.006 204.923 21.5196 205.892 21.892C206.861 22.2772 207.7 22.6881 208.385 23.1246C209.07 23.574 209.612 24.139 210.013 24.8323C210.414 25.5257 210.62 26.386 210.62 27.4003C210.62 28.4147 210.401 29.2749 209.961 29.9426C209.522 30.6103 208.954 31.1239 208.282 31.4705C207.597 31.8172 206.873 31.9841 206.111 31.9841C204.638 31.9841 203.127 31.2908 201.589 29.9298C200.879 29.3134 200.336 28.6329 199.961 27.8882L199.935 27.8625H199.509V27.9011C199.354 29.108 199.083 30.4305 198.682 31.8429V31.997L199.522 32.4335C201.176 33.3195 203.295 33.7689 205.84 33.7689C207.377 33.7689 208.811 33.4607 210.103 32.8573C211.395 32.2538 212.429 31.3935 213.178 30.2893C213.928 29.1851 214.315 27.8625 214.315 26.3603C214.289 24.3059 213.501 22.5853 211.977 21.2628C210.775 20.2228 209.251 19.3497 207.429 18.6563H207.416Z" fill="#231815"/>
<path d="M240.452 16.1782C240.478 12.673 240.607 10.0793 240.853 8.46148V8.29456C240.388 8.3716 239.703 8.41012 238.773 8.41012C237.842 8.41012 237.119 8.3716 236.667 8.29456V8.47432C236.925 10.2205 237.067 12.827 237.067 16.1782V19.2213H223.682V16.1782C223.708 12.673 223.837 10.0793 224.083 8.46148V8.29456C223.618 8.3716 222.933 8.41012 222.003 8.41012C221.072 8.41012 220.349 8.3716 219.897 8.29456V8.46148C220.181 10.3746 220.323 12.9683 220.323 16.1654V25.6284C220.323 29.108 220.207 31.7017 219.961 33.3066V33.4736C220.413 33.3965 221.098 33.358 222.003 33.358C222.907 33.358 223.656 33.3965 224.109 33.4736V33.2938C223.824 31.4063 223.682 28.8255 223.682 25.6284V20.9804H237.067V25.6284C237.041 29.2621 236.925 31.8557 236.705 33.3066V33.4736C237.183 33.3965 237.881 33.358 238.786 33.358C239.69 33.358 240.336 33.3965 240.711 33.4607L240.879 33.3195V33.2938C240.594 31.4192 240.452 28.8255 240.452 25.6284V16.1654V16.1782Z" fill="#231815"/>
<path d="M251.835 16.1782C251.86 12.5189 251.977 9.92523 252.196 8.46148V8.29456C251.731 8.3716 251.059 8.41012 250.155 8.41012C249.186 8.41012 248.501 8.3716 248.049 8.29456V8.46148C248.333 10.3746 248.475 12.9683 248.475 16.1654V25.6284C248.475 29.2621 248.359 31.8429 248.139 33.3066V33.4736C248.592 33.3965 249.264 33.358 250.155 33.358C251.098 33.358 251.809 33.3965 252.261 33.4736V33.2938C251.977 31.4063 251.835 28.8255 251.835 25.6284V16.1654V16.1782Z" fill="#231815"/>
<path d="M283.785 7.83233V7.78097H282.791L273.333 26.8867H273.075L273.049 26.8353C270.465 21.571 267.558 15.1767 264.419 7.80665L264.393 7.78097H263.049C262.326 11.9924 261.305 17.3595 260.013 23.7281C258.811 29.6344 258.165 32.7802 257.997 33.4864C258.501 33.4094 258.953 33.3708 259.367 33.3708C259.78 33.3708 260.168 33.4094 260.517 33.4864L260.543 33.435C260.723 32.3308 261.034 30.2636 261.512 27.105C262.015 23.8051 262.364 21.5068 262.636 19.8761C262.933 18.0529 263.165 16.4864 263.372 15.0869L263.424 14.7659L263.566 15.0612C266.292 20.8134 269.005 26.9637 271.602 33.3323L271.628 33.358H272.455C275.749 25.9494 278.618 19.8505 280.969 15.2538L281.111 14.9713L281.15 15.2795C282.003 21.6866 282.726 27.7855 283.295 33.4094V33.4607C283.695 33.3837 284.367 33.3452 285.271 33.3452C286.176 33.3452 286.925 33.3837 287.468 33.4607V33.4094C285.879 23.8308 284.651 15.2153 283.785 7.79381V7.83233Z" fill="#231815"/>
<path d="M303.902 7.92221C300.413 7.92221 297.455 9.24471 295.116 11.8384C292.778 14.4449 291.602 17.642 291.602 21.3784C291.602 25.1148 292.816 28.1322 295.194 30.3792C297.584 32.639 300.517 33.7817 303.928 33.7817C306.408 33.7817 308.605 33.2296 310.452 32.1254C312.313 31.0212 313.773 29.4675 314.819 27.503C315.866 25.5385 316.395 23.2402 316.395 20.6722C316.421 16.9101 315.207 13.8157 312.816 11.466C310.413 9.11631 307.416 7.92221 303.902 7.92221ZM311.357 27.2205C310.698 28.787 309.78 29.9811 308.63 30.79C307.481 31.5989 306.137 31.997 304.651 31.997C303.165 31.997 301.718 31.5733 300.336 30.7258C298.953 29.8784 297.816 28.6073 296.951 26.9381C296.085 25.2689 295.659 23.2915 295.659 21.0574C295.659 17.077 296.499 14.0853 298.152 12.1465C299.574 10.5159 301.331 9.69411 303.398 9.69411C306.098 9.69411 308.282 10.6571 309.897 12.5446C311.512 14.432 312.326 17.4237 312.326 21.4169C312.326 23.7153 312.002 25.6669 311.344 27.2205H311.357Z" fill="#231815"/>
<path d="M318.902 11.0038L319.018 11.1964H319.096C320.672 10.9524 322.519 10.7855 324.6 10.6699C325.271 10.6443 325.775 10.6186 326.15 10.6057L326.822 10.5672L326.848 10.6443C327.054 11.3376 327.145 13.148 327.145 16.1782V25.6412C327.145 29.4033 327.041 31.997 326.848 33.3195V33.4864C327.3 33.4094 327.959 33.3708 328.824 33.3708C329.767 33.3708 330.478 33.4094 330.93 33.4864V33.3066C330.685 31.5733 330.568 28.9924 330.568 25.6412V16.1782C330.568 13.3021 330.659 11.4789 330.84 10.747V10.6699H330.93C333.475 10.6699 335.426 10.7598 336.718 10.9267L338.669 11.1835L338.811 10.9909C338.773 10.7213 338.747 10.3489 338.747 9.91239C338.747 9.47583 338.773 8.97508 338.811 8.4358V8.41012H318.889V8.44864C318.915 8.74396 318.915 9.00075 318.915 9.23187V10.5415C318.915 10.7085 318.915 10.8625 318.889 11.0038H318.902Z" fill="#231815"/>
<path d="M353.592 7.92221C350.09 7.92221 347.145 9.24471 344.806 11.8384C342.468 14.4449 341.292 17.642 341.292 21.3784C341.292 25.1148 342.506 28.1322 344.884 30.3792C347.274 32.639 350.207 33.7817 353.617 33.7817C356.098 33.7817 358.294 33.2296 360.142 32.1254C362.002 31.0212 363.462 29.4675 364.509 27.503C365.555 25.5385 366.085 23.2402 366.085 20.6722C366.111 16.9101 364.897 13.8157 362.506 11.466C360.116 9.11631 357.106 7.92221 353.592 7.92221ZM361.046 27.2205C360.388 28.787 359.483 29.9811 358.32 30.79C357.158 31.5989 355.827 31.997 354.341 31.997C352.855 31.997 351.408 31.5733 350.026 30.7258C348.643 29.8784 347.506 28.6073 346.641 26.9381C345.775 25.2689 345.349 23.2915 345.349 21.0574C345.349 17.077 346.189 14.0725 347.842 12.1465C349.263 10.5159 351.034 9.69411 353.088 9.69411C355.788 9.69411 357.971 10.6571 359.586 12.5446C361.201 14.432 362.015 17.4237 362.015 21.4169C362.015 23.7153 361.68 25.6669 361.034 27.2205H361.046Z" fill="#231815"/>
<path d="M402.881 27.8497L402.571 27.6956L402.532 27.7213C401.641 28.7228 400.749 29.5317 399.884 30.1224C398.269 31.2009 396.24 31.7402 393.863 31.7402C391.486 31.7402 389.432 30.6231 387.804 28.4018C386.189 26.2062 385.362 23.5355 385.362 20.4668C385.362 16.8973 386.331 14.111 388.256 12.2107C389.096 11.3761 390 10.7598 390.93 10.3746C391.861 9.98942 392.739 9.79682 393.54 9.79682C397.3 9.79682 399.961 11.3119 401.447 14.3036L401.473 14.355H401.951V14.2908C402.08 12.7115 402.3 11.2734 402.61 10.0023V9.87386L402.584 9.84818L401.938 9.56571C400.724 9.02643 399.199 8.57703 397.403 8.23036C396.382 8.03776 395.155 7.93504 393.747 7.93504C392.339 7.93504 390.866 8.26888 389.341 8.92371C387.804 9.57855 386.421 10.5287 385.233 11.7228C384.031 12.9298 383.075 14.3421 382.364 15.9343C381.654 17.5393 381.305 19.3112 381.305 21.1986C381.305 24.7681 382.313 27.7341 384.277 30.0196C386.447 32.5234 389.561 33.7817 393.54 33.7817C397.519 33.7817 400.736 32.3565 403.127 29.5574V29.5189C403.114 29.2749 403.088 28.9668 403.075 28.6586C403.049 28.3248 402.997 28.0551 402.894 27.8625L402.881 27.8497Z" fill="#231815"/>
<path d="M424.199 30.1223L423.269 30.2636C419.961 30.7258 416.628 30.9569 413.398 30.9569H413.32L413.295 30.8927C413.088 30.1737 412.997 28.466 412.997 25.6541V16.1911C413.023 12.5317 413.14 9.93807 413.359 8.47432V8.3074C412.894 8.38444 412.209 8.42296 411.279 8.42296C410.349 8.42296 409.729 8.38444 409.354 8.32024L409.212 8.46148V8.48716C409.47 10.3875 409.612 12.9811 409.612 16.1911V25.6541C409.612 29.429 409.483 32.0227 409.238 33.3837H424.328V33.3452C424.276 32.8316 424.264 32.2538 424.264 31.6375V30.1223H424.199Z" fill="#231815"/>
<path d="M432.933 16.1782C432.958 12.5317 433.075 9.93806 433.294 8.46148V8.29456C432.829 8.3716 432.157 8.41012 431.24 8.41012C430.271 8.41012 429.586 8.3716 429.134 8.29456V8.46148C429.418 10.3746 429.56 12.9683 429.56 16.1654V25.6284C429.56 29.2621 429.444 31.8429 429.225 33.3066V33.4736C429.677 33.3965 430.349 33.358 431.24 33.358C432.183 33.358 432.894 33.3965 433.359 33.4736V33.2938C433.075 31.4063 432.933 28.8255 432.933 25.6284V16.1654V16.1782Z" fill="#231815"/>
<path d="M461.356 8.3074C460.478 8.4358 459.431 8.44864 458.592 8.29456V8.47432C458.85 10.2205 458.992 12.8142 458.992 16.1782V26.463C458.966 27.4517 458.863 27.6443 458.695 27.6443C458.579 27.6314 458.385 27.6057 456.744 25.5128L443.45 8.34592H443.398C442.674 8.44864 442.041 8.46148 441.537 8.3716L441.124 8.29456V8.4358C441.253 11.4018 441.318 15.4335 441.318 20.4154C441.318 25.3973 441.15 29.7372 440.827 33.3452V33.4864C441.253 33.4094 441.731 33.3708 442.261 33.3708C442.791 33.3708 443.269 33.4094 443.695 33.4864V33.3066C443.437 31.4192 443.294 28.8384 443.294 25.6412V16.3965C443.294 14.753 443.398 14.6503 443.45 14.5861L443.475 14.5604H443.514C443.605 14.5604 443.76 14.5604 444.716 15.8059L458.269 32.8059C458.811 33.435 459.393 33.756 459.974 33.756C460.284 33.756 460.478 33.6405 460.581 33.4222C460.685 33.1782 460.749 32.8573 460.775 32.5106C460.84 29.7372 460.891 26.2447 460.956 21.8663C461.008 17.7062 461.214 13.1737 461.563 8.42296L461.395 8.29456H461.356V8.3074Z" fill="#231815"/>
<path d="M472.17 16.1782C472.196 12.5189 472.313 9.92523 472.532 8.46148V8.29456C472.067 8.3716 471.395 8.41012 470.491 8.41012C469.522 8.41012 468.837 8.3716 468.372 8.29456V8.46148C468.656 10.3746 468.798 12.9683 468.798 16.1654V25.6284C468.798 29.2621 468.682 31.8557 468.462 33.3066V33.4736C468.915 33.3965 469.586 33.358 470.478 33.358C471.421 33.358 472.132 33.3965 472.584 33.4736V33.2938C472.3 31.4063 472.158 28.8255 472.158 25.6284V16.1654L472.17 16.1782Z" fill="#231815"/>
<path d="M499.754 27.8497L499.444 27.6956L499.406 27.7213C498.514 28.7228 497.623 29.5317 496.757 30.1224C495.142 31.2009 493.114 31.7402 490.736 31.7402C488.359 31.7402 486.305 30.6231 484.677 28.4018C483.062 26.2062 482.235 23.5355 482.235 20.4668C482.235 16.8973 483.204 14.111 485.129 12.2107C485.969 11.3761 486.873 10.7598 487.803 10.3746C488.734 9.98942 489.612 9.79682 490.413 9.79682C494.173 9.79682 496.834 11.3119 498.32 14.3036L498.346 14.355H498.824V14.2908C498.953 12.7115 499.173 11.2734 499.483 10.0023V9.87386L499.457 9.84818L498.811 9.56571C497.597 9.02643 496.072 8.57703 494.276 8.23036C493.256 8.03776 492.028 7.93504 490.62 7.93504C489.212 7.93504 487.739 8.26888 486.214 8.92371C484.677 9.57855 483.294 10.5287 482.106 11.7228C480.904 12.9298 479.948 14.3421 479.238 15.9343C478.527 17.5393 478.178 19.3112 478.178 21.1986C478.178 24.7681 479.186 27.7341 481.15 30.0196C483.32 32.5234 486.434 33.7817 490.413 33.7817C494.393 33.7817 497.61 32.3565 500 29.5574V29.5189C499.987 29.2749 499.961 28.9668 499.948 28.6586C499.922 28.3248 499.871 28.0551 499.767 27.8625L499.754 27.8497Z" fill="#231815"/>
<path d="M188.76 51.6548H186.977C186.602 51.6548 186.369 51.6805 185.879 51.7832L185.672 51C186.227 51.1284 186.46 51.1412 186.951 51.1412H188.76V49.4721H186.395C185.982 49.4721 185.711 49.5106 185.22 49.6005L185.013 48.8429C185.556 48.9456 185.866 48.9713 186.382 48.9713H188.773C188.773 47.9826 188.773 47.3792 188.669 46.6216C190.413 46.827 190.633 46.9554 190.633 47.1737C190.633 47.315 190.504 47.4434 189.948 47.6873V48.9585H191.796C192.416 48.2009 192.506 48.1367 192.623 48.1367C192.739 48.1367 192.868 48.2009 193.618 48.8172C193.928 49.0612 193.992 49.1896 193.992 49.2923C193.992 49.4207 193.928 49.4721 193.721 49.4721H189.948V51.1412H191.395C191.977 50.4607 192.08 50.3965 192.183 50.3965C192.287 50.3965 192.39 50.435 193.14 51.0514C193.372 51.2311 193.424 51.3595 193.424 51.4366C193.424 51.5778 193.359 51.642 193.152 51.642H189.935V53.4524H191.899C192.545 52.6692 192.623 52.605 192.752 52.605C192.881 52.605 192.997 52.6692 193.721 53.2598C194.031 53.5038 194.096 53.6579 194.096 53.7734C194.096 53.889 194.031 53.9532 193.824 53.9532H185.969C185.556 53.9532 185.284 53.9917 184.793 54.0816L184.587 53.2983C185.142 53.4267 185.478 53.4396 185.995 53.4396H188.747V51.6292L188.76 51.6548ZM187.261 60.8482C187.235 63.2621 187.235 64.392 187.235 64.7258C187.235 65.1367 187.003 65.3293 186.512 65.3293C186.124 65.3293 186.008 65.1881 186.008 64.8414C186.008 64.1866 186.085 61.5672 186.085 58.46C186.085 56.2515 186.085 55.7636 186.008 54.9804C186.563 55.2115 186.899 55.3656 187.39 55.6866H191.163C191.667 55.1344 191.744 55.0831 191.873 55.0831C191.951 55.0831 192.08 55.1216 192.623 55.5967C192.907 55.8406 192.959 55.9434 192.959 56.0461C192.959 56.1873 192.92 56.2772 192.506 56.534V58.6783C192.506 62.4532 192.571 63.0438 192.571 63.5574C192.571 64.1994 192.326 64.4819 192.016 64.7387C191.77 64.9184 191.202 65.1239 190.956 65.1239C190.749 65.1239 190.685 65.0982 190.646 64.8157C190.568 64.3278 190.375 64.0325 189.005 63.7243C188.876 63.6986 188.902 63.4547 189.031 63.4804C190.052 63.5831 190.543 63.6088 190.995 63.6088C191.227 63.6088 191.331 63.5317 191.331 63.2621V60.8739H187.274L187.261 60.8482ZM191.331 56.1745H187.274V57.9849H191.331V56.1745ZM191.331 58.4985H187.274V60.3346H191.331V58.4985ZM198.915 49.0612C199.47 48.3807 199.599 48.3165 199.703 48.3165C199.832 48.3165 199.987 48.3935 200.568 48.9585C200.853 49.2409 200.943 49.395 200.943 49.5106C200.943 49.6903 200.736 49.7802 200.116 49.9471C199.432 50.9358 198.773 51.6934 198.101 52.3739H200.233C200.749 51.7961 200.853 51.7576 200.956 51.7576C201.034 51.7576 201.137 51.7961 201.705 52.2455C202.041 52.5151 202.054 52.6178 202.054 52.7205C202.054 52.8618 201.99 52.9517 201.537 53.2341V55.6224H201.951C202.506 54.8134 202.636 54.7107 202.739 54.7107C202.842 54.7107 202.985 54.8134 203.605 55.4298C203.876 55.6994 203.915 55.8278 203.915 55.9434C203.915 56.0589 203.837 56.1231 203.63 56.1231H201.537C201.563 58.781 201.615 60.0393 201.615 60.3731C201.615 60.7455 201.382 60.861 200.866 60.861C200.491 60.861 200.375 60.7326 200.375 60.4245V59.5H198.14C198.14 62.2349 198.217 62.9411 198.217 63.6601C198.217 64.3021 198.049 64.5204 197.7 64.79C197.39 65.0212 196.886 65.1752 196.602 65.1752C196.318 65.1752 196.266 65.1496 196.227 64.8671C196.163 64.392 195.917 64.148 194.406 63.75C194.276 63.7115 194.302 63.4675 194.432 63.4804C195.504 63.6088 196.111 63.6216 196.602 63.6216C196.848 63.6216 196.951 63.5189 196.951 63.3135V59.4872H195.31C194.703 59.4872 194.393 59.5128 193.876 59.6156L193.669 58.858C194.328 58.9607 194.69 58.9864 195.31 58.9864H196.951V56.1231H194.832C194.38 56.1231 194.07 56.1488 193.488 56.2515L193.307 55.494C193.928 55.571 194.276 55.6224 194.845 55.6224H196.964V52.8875H196.111C195.465 52.8875 195.142 52.926 194.574 53.0287L194.367 52.2455C195.052 52.3482 195.439 52.3739 196.085 52.3739H197.558C198.101 51.4879 198.579 50.5249 198.902 49.5748H196.357C195.672 50.7047 194.922 51.6548 193.618 52.682C193.514 52.7591 193.333 52.605 193.411 52.5151C194.47 51.244 195.323 49.6133 195.943 47.6745C196.047 47.3406 196.176 46.9683 196.214 46.5446C197.855 47.0325 198.101 47.1994 198.101 47.392C198.101 47.5974 197.868 47.7258 197.287 47.8286C197.054 48.2651 196.848 48.676 196.641 49.0612H198.915ZM200.388 52.8875H198.152V55.6224H200.388V52.8875ZM198.152 56.1488V59.0121H200.388V56.1488H198.152Z" fill="#231815"/>
<path d="M224.173 47.8671C224.793 47.2251 224.858 47.1609 224.987 47.1609C225.09 47.1609 225.22 47.2251 225.879 47.7644C226.189 48.0083 226.214 48.111 226.214 48.2137C226.214 48.3807 226.137 48.4834 225.659 48.7915V53.9275C225.659 61.9396 225.762 62.7613 225.762 63.4675C225.762 64.2251 225.426 64.5974 224.935 64.8286C224.651 64.957 224.147 65.0597 223.876 65.0597C223.695 65.0597 223.605 65.0212 223.592 64.7258C223.527 64.2379 223.243 64.0068 221.434 63.5959C221.305 63.5702 221.331 63.2621 221.46 63.2878C222.765 63.4162 223.475 63.429 224.005 63.429C224.251 63.429 224.38 63.3006 224.38 63.0438V48.3935H210.866V64.6488C210.866 65.0468 210.594 65.2523 210.039 65.2523C209.599 65.2523 209.457 65.0854 209.457 64.7644C209.457 63.5702 209.561 61.2205 209.561 55.3656C209.561 49.5106 209.561 48.2651 209.457 47.0838C210.077 47.3278 210.517 47.5332 211.072 47.8927H224.199L224.173 47.8671ZM216.899 53.7221H213.514C212.959 53.7221 212.597 53.7477 212.003 53.8505L211.822 53.0929C212.506 53.1956 212.881 53.2213 213.501 53.2213H218.269C218.656 52.4637 218.992 51.6292 219.289 50.8331C219.535 50.1783 219.703 49.5748 219.793 49.0869C221.202 49.5363 221.718 49.7802 221.718 50.0113C221.718 50.2425 221.512 50.3195 220.866 50.3837C220.116 51.6035 219.638 52.2326 218.811 53.2213H221.137C221.886 52.2968 222.003 52.207 222.106 52.207C222.235 52.207 222.377 52.284 223.204 52.9902C223.579 53.324 223.643 53.4267 223.643 53.5295C223.643 53.6579 223.579 53.7349 223.372 53.7349H218.101V60.3474H220.698V57.4456C220.698 56.3799 220.698 55.7764 220.62 55.1601C222.274 55.3912 222.506 55.4683 222.506 55.6994C222.506 55.8406 222.429 55.9434 221.886 56.1488V57.7409C221.886 60.1934 221.951 61.3618 221.951 61.6571C221.951 62.0038 221.68 62.145 221.202 62.145C220.853 62.145 220.711 62.068 220.711 61.7598V60.8739H214.393V61.824C214.393 62.2221 214.186 62.3376 213.682 62.3376C213.307 62.3376 213.165 62.2606 213.165 61.9396C213.165 61.6699 213.23 60.5786 213.23 58.2545C213.23 56.4056 213.23 55.9048 213.152 55.1858C214.858 55.3912 215.065 55.4683 215.065 55.6994C215.065 55.8663 214.961 55.9434 214.406 56.1488V60.3474H216.938V53.7349L216.899 53.7221ZM213.941 49.2024C215.349 49.9215 216.24 50.9486 216.24 51.7319C216.24 52.284 215.93 52.6178 215.517 52.6178C215.181 52.6178 215.026 52.4381 214.91 51.8988C214.677 50.8331 214.419 50.1911 213.773 49.3693C213.695 49.2666 213.837 49.1382 213.941 49.2024Z" fill="#231815"/>
<path d="M240.543 59.3202C241.744 60.9894 243.075 61.9011 244.729 62.5687C246.266 63.185 248.127 63.5189 249.832 63.5574C249.961 63.5574 249.961 63.7372 249.832 63.7885C249.289 63.9298 249.044 64.1352 248.773 64.8414C248.734 64.9826 248.592 65.0853 248.424 65.0853C248.256 65.0853 247.778 65.0083 247.403 64.9056C246.202 64.5974 244.858 63.994 243.876 63.4162C242.494 62.6072 241.227 61.4645 240.129 59.4358C239.651 60.9381 238.889 61.9653 237.804 62.7998C236.253 64.0325 234.315 64.8029 231.189 65.2266C231.059 65.2523 231.008 64.9184 231.124 64.8927C233.876 64.2122 235.969 63.1979 237.339 61.7213C237.997 61.0023 238.463 60.1548 238.747 59.3074H232.946C232.403 59.3074 231.977 59.3331 231.447 59.4358L231.266 58.6526C231.873 58.7553 232.326 58.7938 232.946 58.7938H238.915C238.979 58.5242 239.044 58.2545 239.083 58.0106C239.147 57.6254 239.186 57.1503 239.16 56.7523C240.879 56.9962 241.189 57.0604 241.189 57.3044C241.189 57.4713 241.124 57.6382 240.478 57.8437C240.413 58.1518 240.349 58.4471 240.297 58.7296L240.271 58.7938H246.757C247.571 57.8308 247.687 57.7409 247.791 57.7409C247.92 57.7409 248.062 57.818 248.992 58.5627C249.367 58.8708 249.432 58.9992 249.432 59.1148C249.432 59.2304 249.367 59.2946 249.16 59.2946H240.517L240.543 59.3202ZM239.483 53.2855H234.948C234.444 53.2855 234.018 53.3112 233.54 53.4139L233.333 52.605C233.953 52.7334 234.354 52.7719 234.935 52.7719H239.496V50.3837H233.773C233.256 50.3837 232.842 50.4094 232.339 50.5121L232.132 49.7032C232.713 49.8316 233.165 49.8701 233.747 49.8701H241.77C242.326 49.0612 242.687 48.3421 243.01 47.6231C243.178 47.2508 243.32 46.9041 243.398 46.5959C244.832 47.1737 245.22 47.3792 245.22 47.6103C245.22 47.79 245.116 47.8928 244.367 47.9441C243.708 48.7273 243.088 49.318 242.377 49.8829H246.214C247.028 48.9713 247.132 48.8943 247.248 48.8943C247.351 48.8943 247.494 48.9713 248.32 49.639C248.734 49.9728 248.798 50.0884 248.798 50.1911C248.798 50.3323 248.721 50.3965 248.527 50.3965H240.749V52.7847H244.91C245.672 51.8988 245.801 51.8346 245.904 51.8346C246.008 51.8346 246.137 51.8988 246.977 52.5536C247.364 52.8618 247.416 52.9902 247.416 53.0929C247.416 53.2213 247.351 53.2983 247.145 53.2983H240.736V55.8535H246.77C247.597 54.9033 247.7 54.8391 247.829 54.8391C247.933 54.8391 248.062 54.9033 248.953 55.6224C249.341 55.9562 249.406 56.0589 249.406 56.1745C249.406 56.29 249.328 56.3542 249.121 56.3542H232.907C232.326 56.3542 231.938 56.3799 231.37 56.4826L231.163 55.6994C231.809 55.8278 232.261 55.8406 232.881 55.8406H239.457V53.2855H239.483ZM235.879 46.7115C237.494 47.2122 238.385 48.0468 238.385 48.8301C238.385 49.3051 238.114 49.639 237.636 49.639C237.326 49.639 237.145 49.5106 237.016 49.0869C236.77 48.2651 236.408 47.5204 235.736 46.9041C235.633 46.827 235.762 46.673 235.879 46.7243V46.7115Z" fill="#231815"/>
<path d="M259.599 64.7772C259.599 65.1881 259.328 65.3293 258.811 65.3293C258.398 65.3293 258.269 65.2009 258.269 64.8542C258.269 64.5076 258.346 63.7372 258.346 61.182C258.346 59.9622 258.32 59.3331 258.32 58.8195C257.158 59.5128 255.943 60.0906 254.612 60.5529C254.483 60.5914 254.38 60.3218 254.483 60.2704C257.222 58.935 259.806 56.8935 261.382 54.8777C261.964 54.1201 262.416 53.3882 262.687 52.6949C264.07 53.1699 264.509 53.3754 264.509 53.5808C264.509 53.7477 264.367 53.8248 263.902 53.889C264.935 55.3142 266.163 56.3414 267.7 57.2273C269.302 58.1518 271.163 58.6911 272.804 58.8708C272.907 58.8965 272.881 59.0506 272.778 59.0763C272.364 59.179 272.171 59.3844 271.964 59.9366C271.886 60.1805 271.783 60.2704 271.615 60.2704C271.447 60.2704 271.034 60.1677 270.491 59.9366C269.948 59.7054 269.432 59.4615 268.915 59.179C268.837 59.2432 268.734 59.3202 268.527 59.423V61.0536C268.527 63.4418 268.592 64.392 268.592 64.6616C268.592 65.0982 268.346 65.2138 267.804 65.2138C267.39 65.2138 267.261 65.111 267.261 64.7387V64.0325H259.574V64.7772H259.599ZM262.791 49.2024V48.1367C262.791 47.6873 262.791 47.1737 262.713 46.6473C264.574 46.8527 264.832 46.994 264.832 47.2508C264.832 47.392 264.729 47.5332 264.109 47.79V49.2153H270.116C270.775 48.4962 270.866 48.4577 270.982 48.4577C271.124 48.4577 271.357 48.5861 272.119 49.318C272.597 49.7931 272.636 49.8701 272.636 49.9985C272.636 50.2296 272.455 50.3323 271.873 50.3323C271.473 50.3323 271.357 50.3965 271.047 50.7047C270.711 51.0128 270.129 51.4879 269.548 51.8731C269.444 51.9502 269.302 51.8346 269.367 51.7319C269.677 51.1926 269.974 50.5506 270.258 49.7289H256.977C256.873 51.2953 256.124 52.284 255.297 52.284C254.858 52.284 254.535 51.9502 254.535 51.5264C254.535 51.2183 254.677 51.0128 255.09 50.7689C256.085 50.1911 256.537 49.4721 256.628 48.2137C256.628 48.0853 256.86 48.0853 256.873 48.2137C256.938 48.5604 256.977 48.9199 256.977 49.2281H262.804L262.791 49.2024ZM255.297 55.4683C256.77 54.6209 258.036 53.4909 258.928 52.3739C259.406 51.7704 259.78 51.1926 259.987 50.6662C261.163 51.1669 261.705 51.4494 261.705 51.642C261.705 51.8474 261.473 51.9245 260.853 51.9502C259.406 53.6579 257.765 54.8905 255.439 55.7636C255.31 55.8021 255.194 55.5325 255.297 55.4811V55.4683ZM267.171 58.6141C267.313 58.4471 267.416 58.3444 267.506 58.2674C267.3 58.1005 267.093 57.9592 266.899 57.7923C265.762 56.8807 264.625 55.7764 263.566 54.0687C263.075 54.7236 262.571 55.3399 261.99 55.9434C261.163 56.8293 260.207 57.574 259.212 58.2674C259.393 58.3958 259.548 58.4728 259.729 58.6141H267.171ZM267.3 59.1405H259.612V63.5317H267.3V59.1405ZM265.22 50.8716C268.346 51.8988 270.439 53.4267 270.439 54.6465C270.439 55.0574 270.207 55.327 269.858 55.327C269.509 55.327 269.354 55.1858 268.928 54.5823C267.972 53.2983 266.835 52.207 265.116 51.1027C265.013 51.0385 265.09 50.8331 265.22 50.8716Z" fill="#231815"/>
<path d="M282.028 51C281.654 51.9502 281.214 52.8746 280.698 53.7349C282.713 54.685 283.346 55.6737 283.346 56.4698C283.346 57.0219 283.075 57.3557 282.726 57.3557C282.455 57.3557 282.222 57.176 282.119 56.7523C281.873 55.7251 281.292 54.6979 280.504 54.0174C279.716 55.2757 278.721 56.3928 277.494 57.497C277.416 57.574 277.183 57.3686 277.261 57.2659C279.005 55.25 280.413 52.4252 281.137 49.6647C281.382 48.7017 281.589 47.7258 281.654 46.8656C283.101 47.148 283.605 47.3535 283.605 47.5461C283.605 47.7515 283.411 47.8928 282.894 48.0212C282.687 48.9071 282.455 49.716 282.183 50.4736H285.452C286.008 49.8573 286.098 49.8187 286.202 49.8187C286.305 49.8187 286.434 49.8573 287.093 50.4222C287.377 50.6533 287.429 50.7946 287.429 50.8973C287.429 51.0385 287.287 51.1669 286.848 51.3724C285.672 57.818 282.997 61.9396 277.661 64.9698C277.558 65.034 277.377 64.8029 277.481 64.7258C282.248 61.1564 284.483 57.1888 285.568 51H282.003H282.028ZM291.124 56.213C291.266 56.3414 291.434 56.4441 291.576 56.5597C293.282 57.7923 295.078 58.4343 296.615 58.7425C296.744 58.7681 296.693 58.9222 296.576 58.9736C296.137 59.0763 295.93 59.256 295.711 59.898C295.646 60.0393 295.543 60.1035 295.426 60.1035C295.31 60.1035 295.013 60.0393 294.535 59.7953C293.372 59.179 292.158 58.3573 291.202 57.4713L291.137 57.4071C291.163 62.3505 291.202 64.0453 291.202 64.6231C291.202 64.9955 290.956 65.2009 290.349 65.2009C289.935 65.2009 289.793 65.0597 289.793 64.7258C289.793 64.1224 289.858 62.2991 289.871 56.0589C289.251 55.25 288.63 54.287 287.946 52.9003C287.804 52.5921 287.765 52.5151 287.571 52.4252C287.468 52.3867 287.39 52.2968 287.39 52.2198C287.39 52.1171 287.881 51.8474 288.036 51.8474C288.14 51.8474 288.178 51.9116 288.178 51.9887V52.1941C288.178 52.3225 288.217 52.4381 288.32 52.6307C288.837 53.5808 289.354 54.3255 289.871 54.9418V53.7863C289.871 48.9071 289.871 47.7258 289.793 46.8656C291.641 47.071 291.848 47.1737 291.848 47.4177C291.848 47.5846 291.77 47.7002 291.137 47.9955V56.213H291.124Z" fill="#231815"/>
<path d="M305.62 54.4154C307.584 55.0189 308.85 56.1488 308.85 57.0476C308.85 57.4585 308.566 57.8051 308.269 57.8051C307.959 57.8051 307.791 57.6639 307.545 57.1246C307.106 56.136 306.576 55.3784 305.62 54.7621V58.0748C305.62 62.4403 305.646 64.1737 305.646 64.6873C305.646 65.0982 305.375 65.2908 304.819 65.2908C304.419 65.2908 304.328 65.1239 304.328 64.8029C304.328 64.2893 304.432 62.1193 304.509 55.3014C303.385 57.6511 302.248 59.2304 300.556 60.784C300.478 60.861 300.245 60.707 300.323 60.6042C302.145 58.2417 303.411 55.8021 304.264 52.9645H302.171C301.731 52.9645 301.447 52.9902 300.904 53.0672L300.698 52.3097C301.279 52.4124 301.628 52.4509 302.171 52.4509H304.432V49.0869C303.475 49.2538 302.416 49.3693 301.163 49.4721C301.034 49.4721 300.982 49.2281 301.098 49.2024C303.295 48.7273 305.142 48.0854 306.344 47.4947C306.886 47.2251 307.261 47.0068 307.545 46.75C308.618 47.4562 308.915 47.7387 308.915 47.9313C308.915 48.1239 308.682 48.2651 307.92 48.0982C307.171 48.4063 306.421 48.6375 305.633 48.8429V52.4509H307.016C307.726 51.6292 307.804 51.565 307.933 51.565C308.062 51.565 308.178 51.6292 308.954 52.2711C309.289 52.5408 309.354 52.6435 309.354 52.7591C309.354 52.9003 309.277 52.9645 309.07 52.9645H305.646V54.4282L305.62 54.4154ZM317.339 57.9464C317.894 56.8165 318.062 56.6496 318.191 56.6496C318.32 56.6496 318.501 56.7523 319.522 57.3557C319.91 57.5869 319.974 57.6896 319.974 57.8051C319.974 57.8693 319.897 57.9464 319.703 57.9849L316.408 58.6397C316.447 63.2364 316.512 64.1224 316.512 64.636C316.512 65.0725 316.202 65.278 315.646 65.278C315.207 65.278 315.065 65.0982 315.065 64.7387C315.065 64.1866 315.103 63.031 315.129 58.8837L309.328 60.0393C308.876 60.142 308.566 60.2062 308.049 60.4245L307.674 59.7054C308.32 59.6669 308.798 59.6027 309.225 59.5257L315.155 58.3701V54.1073C315.155 49.1639 315.129 47.7002 315.013 46.7757C316.77 46.9683 317.145 47.0838 317.145 47.3278C317.145 47.4947 317.067 47.636 316.421 47.8799V58.1133L317.351 57.9335L317.339 57.9464ZM309.315 53.7221C311.344 54.0045 312.778 55.0831 312.778 56.0718C312.778 56.5212 312.506 56.855 312.119 56.855C311.783 56.855 311.628 56.7138 311.434 56.3414C310.943 55.3527 310.31 54.6337 309.199 53.9532C309.096 53.889 309.199 53.7092 309.328 53.7221H309.315ZM310.349 49.1254C312.274 49.5106 313.618 50.5891 313.618 51.5906C313.618 52.04 313.346 52.3739 312.972 52.3739C312.662 52.3739 312.429 52.207 312.158 51.565C311.757 50.6533 311.034 49.8701 310.207 49.3437C310.103 49.2795 310.207 49.0997 310.336 49.1125L310.349 49.1254Z" fill="#231815"/>
<path d="M327.752 53.4139C329.432 54.1329 330.039 55.0574 330.039 55.8278C330.039 56.2387 329.767 56.5468 329.419 56.5468C329.186 56.5468 329.044 56.3799 328.941 55.9305C328.734 55.0702 328.398 54.3897 327.752 53.8248V54.5823C327.752 61.5287 327.791 64.1609 327.791 64.8671C327.791 65.2651 327.519 65.4192 327.003 65.4192C326.602 65.4192 326.486 65.2908 326.486 64.9698C326.486 64.4177 326.563 62.2092 326.693 54.7749C325.904 57.0604 324.987 58.6526 323.579 60.3988C323.501 60.5015 323.295 60.3346 323.346 60.2319C324.845 57.818 325.749 54.8134 326.395 51.7447H325.155C324.767 51.7447 324.496 51.7704 323.928 51.8731L323.721 51.1156C324.302 51.2183 324.638 51.244 325.155 51.244H326.589V49.7032C326.589 47.8286 326.563 47.315 326.46 46.5959C328.204 46.8014 328.45 46.8784 328.45 47.148C328.45 47.315 328.32 47.4305 327.739 47.6873V51.2568H328.463C328.979 50.4992 329.083 50.435 329.186 50.435C329.264 50.435 329.367 50.4992 330.013 51.1412C330.22 51.3467 330.297 51.4751 330.297 51.5906C330.297 51.7062 330.233 51.7704 330.026 51.7704H327.726V53.4396L327.752 53.4139ZM338.928 53.5551V54.1715C338.928 54.929 338.992 55.6609 338.992 55.8406C338.992 56.213 338.747 56.3286 338.295 56.3286C338.01 56.3286 337.842 56.2515 337.842 55.9305V55.648H333.863V55.892C333.863 56.2644 333.579 56.3671 333.204 56.3671C332.868 56.3671 332.752 56.2644 332.752 55.969C332.752 55.7379 332.791 55.1088 332.791 54.4411V53.2598C332.028 53.8633 331.176 54.3769 330.246 54.8006C330.142 54.8648 330 54.5952 330.103 54.531C331.641 53.568 332.959 52.284 333.889 50.923H331.731C331.331 50.923 331.021 50.9486 330.491 51.0514L330.31 50.2681C330.892 50.3965 331.24 50.4094 331.757 50.4094H334.225C334.535 49.8958 334.832 49.2538 335.039 48.6375C333.773 48.7659 332.403 48.8429 330.891 48.8686C330.762 48.8686 330.749 48.5861 330.866 48.5604C333.437 48.2908 336.111 47.7772 337.804 47.1994C338.566 46.9298 339.173 46.6858 339.483 46.4418C340.452 47.2251 340.775 47.469 340.775 47.6745C340.775 47.8542 340.465 47.957 339.793 47.7002C338.514 48.0982 337.158 48.355 335.711 48.5604C336.434 48.7402 336.783 48.8943 336.783 49.074C336.783 49.2409 336.68 49.3051 336.034 49.4079C335.853 49.7545 335.646 50.0884 335.426 50.4222H339.677C340.362 49.6133 340.491 49.4977 340.607 49.4977C340.711 49.4977 340.892 49.6261 341.667 50.2425C342.003 50.5121 342.054 50.6148 342.054 50.7432C342.054 50.8716 341.99 50.9486 341.783 50.9486H337.507C338.23 51.7319 338.85 52.2712 339.664 52.7206C340.581 53.2341 341.757 53.6322 342.92 53.8376C343.023 53.8633 342.997 54.0045 342.894 54.0174C342.481 54.1458 342.313 54.2613 342.171 54.7364C342.106 54.9675 342.028 55.0189 341.899 55.0189C341.796 55.0189 341.589 54.9418 341.292 54.7878C340.478 54.3769 339.78 53.9789 339.121 53.3882L338.915 53.5295L338.928 53.5551ZM340.233 57.2659C340.775 56.6624 340.853 56.6239 340.956 56.6239C341.085 56.6239 341.163 56.6624 341.744 57.1631C342.028 57.4071 342.093 57.5098 342.093 57.6125C342.093 57.7795 342.015 57.8822 341.55 58.1647V59.8338C341.55 62.7613 341.628 63.352 341.628 63.9298C341.628 64.4434 341.395 64.79 341.021 65.0597C340.788 65.2266 340.413 65.3421 340.09 65.3421C339.91 65.3421 339.858 65.3165 339.819 65.0982C339.742 64.6873 339.548 64.4177 338.036 64.071C337.907 64.0453 337.933 63.8014 338.062 63.827C339.134 63.9298 339.6 63.9298 340.013 63.9298C340.258 63.9298 340.388 63.8014 340.388 63.5574V57.7666H331.37V64.8286C331.37 65.2394 331.124 65.4063 330.646 65.4063C330.258 65.4063 330.129 65.278 330.129 64.957C330.129 64.4434 330.194 62.9796 330.194 60.0778C330.194 57.895 330.194 57.3557 330.116 56.4955C330.698 56.7394 331.111 56.9705 331.563 57.253H340.233V57.2659ZM334.251 62.2863V62.7613C334.251 63.0952 334.018 63.2107 333.605 63.2107C333.295 63.2107 333.165 63.108 333.165 62.8384C333.165 62.6971 333.204 62.0937 333.204 60.6171C333.204 59.7568 333.204 59.3844 333.127 58.6397C333.605 58.8323 333.889 59.0121 334.354 59.2817H337.261C337.739 58.7938 337.817 58.7296 337.92 58.7296C338.023 58.7296 338.127 58.7938 338.579 59.179C338.85 59.4101 338.915 59.5257 338.915 59.6284C338.915 59.7568 338.85 59.8338 338.424 60.1035V60.6428C338.424 61.9011 338.463 62.389 338.463 62.5431C338.463 62.8769 338.256 62.9796 337.817 62.9796C337.481 62.9796 337.377 62.9154 337.377 62.6073V62.2991H334.251V62.2863ZM337.752 52.7847C337.959 52.5793 338.036 52.4766 338.14 52.4124C337.726 51.963 337.326 51.4622 337.003 50.9486H335.078C334.638 51.5521 334.147 52.0786 333.605 52.5793C333.708 52.6435 333.811 52.7077 333.954 52.7847H337.752ZM337.829 53.3112H333.85V55.1473H337.829V53.3112ZM337.377 59.7953H334.251V61.7727H337.377V59.7953Z" fill="#231815"/>
<path d="M354.793 50.8331C354.793 47.9955 354.767 47.3535 354.69 46.5831C356.499 46.7628 356.783 46.9169 356.783 47.1352C356.783 47.3021 356.68 47.4177 356.072 47.713V51.0899H361.873C362.7 50.0627 362.83 49.9728 362.946 49.9728C363.049 49.9728 363.217 50.0499 364.147 50.8202C364.587 51.1926 364.664 51.2953 364.664 51.398C364.664 51.5393 364.587 51.6035 364.38 51.6035H356.318C357.39 53.889 358.656 55.5196 359.884 56.7394C361.589 58.4086 363.618 59.5642 365.401 60.219C365.504 60.2576 365.465 60.3988 365.362 60.4245C364.923 60.5272 364.703 60.6941 364.432 61.3489C364.367 61.5159 364.289 61.6186 364.16 61.6186C364.031 61.6186 363.721 61.4517 363.333 61.2077C361.925 60.2832 360.271 58.9222 359.109 57.4585C358.036 56.0846 357.016 54.4668 355.982 51.8988C356.047 54.6594 356.085 57.4199 356.124 60.1805H358.075C358.798 59.2946 358.941 59.1918 359.044 59.1918C359.147 59.1918 359.328 59.2946 360.142 59.9751C360.517 60.2832 360.581 60.386 360.581 60.5144C360.581 60.6171 360.517 60.6941 360.31 60.6941H356.124C356.163 63.429 356.189 64.4048 356.189 64.7772C356.189 65.1881 355.879 65.3807 355.297 65.3807C354.858 65.3807 354.69 65.2137 354.69 64.8671C354.69 64.5846 354.716 63.506 354.767 60.707H351.99C351.486 60.707 351.163 60.7326 350.581 60.8354L350.375 60.0521C350.995 60.1805 351.37 60.1934 351.925 60.1934H354.767L354.897 53.0672C352.804 56.7908 349.948 59.7054 346.227 61.7213C346.124 61.7855 345.943 61.5415 346.047 61.4773C349.264 59.1662 352.287 55.815 354.07 51.6292H348.514C347.959 51.6292 347.597 51.6548 346.977 51.7576L346.796 50.9743C347.481 51.1027 347.868 51.1156 348.514 51.1156H354.793V50.8331Z" fill="#231815"/>
<path d="M371.718 57.0347C371.615 57.0989 371.486 57.1631 371.344 57.1631C371.163 57.1631 371.072 57.0347 371.072 56.8935C371.072 56.7523 371.176 56.6239 371.344 56.4826C373.269 54.7364 374.664 53.0415 376.292 50.4094C376.563 49.96 376.641 49.7545 376.641 49.5234C376.641 49.2153 376.305 48.9456 375.917 48.7402C375.788 48.676 375.672 48.5733 375.672 48.4705C375.672 48.3421 375.956 48.2394 376.357 48.2394C376.873 48.2394 377.326 48.5733 377.739 48.8814C378.152 49.1896 378.385 49.4977 378.385 49.793C378.385 50.037 378.217 50.2296 378.01 50.3323C377.804 50.435 377.636 50.6405 377.054 51.4237C377.132 51.4494 377.222 51.4494 377.326 51.4494C377.597 51.4494 377.946 51.4109 378.282 51.3724C379.238 51.244 380.026 51.1027 380.788 50.9743C381.072 50.9358 381.202 50.8459 381.395 50.6662C381.525 50.5378 381.628 50.4864 381.835 50.4864C382.067 50.4864 382.326 50.6533 382.855 51.0385C383.308 51.3852 383.437 51.5136 383.437 51.7961C383.437 52.04 383.23 52.1427 383.049 52.2455C382.868 52.3482 382.7 52.4509 382.597 52.6307C381.37 54.9162 379.922 56.9577 378.54 58.4856C376.886 60.3218 375 62.0295 371.822 63.7115C371.68 63.7885 371.512 63.8527 371.37 63.8527C371.24 63.8527 371.098 63.7243 371.098 63.5446C371.098 63.4418 371.163 63.3391 371.331 63.2364C373.811 61.7085 375.93 59.9237 377.636 57.8565C379.109 56.0846 380.413 54.1843 381.473 52.0015C381.499 51.963 381.512 51.8731 381.512 51.8218C381.512 51.7447 381.447 51.719 381.382 51.719C381.176 51.719 379.78 51.9501 379.044 52.0914C378.631 52.1684 378.178 52.2583 377.765 52.2583C377.455 52.2583 377.209 52.1941 376.705 52.0143C375.323 53.9275 373.721 55.5967 371.757 57.0347H371.718Z" fill="#231815"/>
<path d="M398.023 48.9199C397.791 48.676 397.416 48.5476 396.99 48.432C396.822 48.3935 396.718 48.3293 396.718 48.1624C396.718 47.9569 397.106 47.7772 397.481 47.7772C397.829 47.7772 398.54 48.0083 398.954 48.1881C399.509 48.432 399.974 48.7273 399.974 49.1382C399.974 49.2666 399.935 49.3822 399.793 49.5491C399.664 49.6775 399.587 49.8829 399.561 50.5763C399.522 52.6563 399.522 54.4539 399.354 55.969C399.186 57.5483 398.798 59.1148 397.907 60.3988C396.473 62.4403 394.444 63.6986 391.654 64.5204C391.55 64.5461 391.37 64.5846 391.253 64.5846C391.085 64.5846 390.969 64.4562 390.969 64.3406C390.969 64.1994 391.047 64.1095 391.176 64.071C393.579 63.2621 396.047 61.4388 397.119 59.5385C397.829 58.3059 398.101 56.7779 398.191 55.4426C398.32 53.8505 398.32 52.0015 398.295 49.9471C398.295 49.3308 398.256 49.1896 398.023 48.9328V48.9199ZM392.674 50.114C392.506 49.8701 392.261 49.6775 391.86 49.5106C391.654 49.4335 391.589 49.4079 391.589 49.2795C391.589 49.074 391.925 48.9071 392.08 48.9071C392.481 48.9071 392.997 49.1125 393.527 49.4592C394.07 49.8059 394.393 50.0627 394.393 50.4094C394.393 50.5763 394.315 50.6918 394.186 50.8202C394.083 50.923 394.005 51.1284 393.979 51.7319C393.941 52.9645 393.915 55.0317 393.915 57.4841C393.915 58.1647 393.682 58.3316 393.437 58.3316C393.165 58.3316 392.997 58.1647 392.817 57.8437C392.687 57.6125 392.571 57.2402 392.571 56.8293C392.571 56.6495 392.597 56.4826 392.649 56.29C392.687 56.1488 392.726 56.0076 392.752 55.6737C392.817 54.0045 392.829 52.5665 392.829 51.244C392.829 50.5249 392.804 50.3323 392.649 50.114H392.674Z" fill="#231815"/>
<path d="M412.326 59.1918C415.284 58.858 419.057 58.6141 421.718 58.6141C422.028 58.6141 422.274 58.5499 422.403 58.4728C422.571 58.3701 422.804 58.2674 422.985 58.2674C423.32 58.2674 423.682 58.3958 424.109 58.6012C424.793 58.9479 424.961 59.1405 424.961 59.5642C424.961 59.8467 424.819 60.0393 424.574 60.0393C424.264 60.0393 424.083 60.0136 423.863 59.9751C423.475 59.9109 423.165 59.8467 422.558 59.7953C421.912 59.7311 420.646 59.6926 419.703 59.6926C418.643 59.6926 416.176 59.7953 412.765 60.3089C412.274 60.386 412.003 60.4887 411.809 60.6428C411.667 60.7455 411.525 60.784 411.318 60.784C411.008 60.784 410.465 60.5144 409.884 59.9237C409.328 59.3459 409.225 58.9992 409.225 58.7681C409.225 58.4985 409.302 58.3829 409.432 58.3829C409.561 58.3829 409.664 58.5499 409.871 58.7296C410.323 59.1662 410.685 59.2817 411.305 59.2817C411.537 59.2817 411.912 59.2432 412.364 59.2047L412.326 59.1918ZM416.253 52.1941C417.274 52.0914 418.269 51.963 419.264 51.7576C419.548 51.6934 419.638 51.6292 419.755 51.5521C419.923 51.4494 420.039 51.3467 420.271 51.3467C420.607 51.3467 421.24 51.4751 421.576 51.6805C421.886 51.8603 422.028 52.0914 422.028 52.3353C422.028 52.6692 421.783 52.7719 421.344 52.8104C419.315 52.9517 417.093 53.1571 414.897 53.3625C414.548 53.4011 414.341 53.4267 414.134 53.4653C413.928 53.5038 413.76 53.5295 413.643 53.5295C413.14 53.5295 412.674 53.1571 412.171 52.5408C411.899 52.2069 411.783 52.0015 411.783 51.7961C411.783 51.6548 411.912 51.5264 411.99 51.5264C412.054 51.5264 412.093 51.5521 412.222 51.6677C412.739 52.1556 413.243 52.3482 413.76 52.3482C414.483 52.3482 415.194 52.284 416.266 52.1813L416.253 52.1941Z" fill="#231815"/>
<path d="M432.468 53.8761C432.468 53.7991 432.61 53.6707 432.713 53.6707C432.817 53.6707 432.894 53.7349 432.985 53.7734C433.527 54.0816 433.902 54.4282 434.212 54.7878C434.651 55.2757 434.871 55.7508 434.871 56.2258C434.871 56.7009 434.535 56.9834 434.212 56.9834C433.889 56.9834 433.669 56.8165 433.553 56.1616C433.488 55.8278 433.372 55.4426 433.178 55.0702C433.01 54.7364 432.83 54.4282 432.597 54.1201C432.519 54.0174 432.468 53.9403 432.468 53.8761ZM441.357 53.6322C441.15 53.5295 440.879 53.4267 440.646 53.3882C440.569 53.3625 440.543 53.324 440.543 53.247C440.543 53.1828 440.607 53.1057 440.685 53.0672C440.827 52.9902 441.034 52.9645 441.292 52.9645C441.744 52.9645 442.455 53.2085 442.881 53.5038C443.217 53.7349 443.527 54.0431 443.527 54.3255C443.527 54.4924 443.398 54.608 443.256 54.6979C443.075 54.8006 442.946 54.8648 442.778 55.173C441.809 57.0733 440.892 58.5113 439.393 60.1163C438.023 61.6057 436.266 62.9539 434.354 63.8399C434.173 63.9169 434.018 63.9426 433.954 63.9426C433.811 63.9426 433.708 63.8014 433.708 63.673C433.708 63.5446 433.747 63.4932 433.889 63.4033C435.749 62.2477 437.455 60.8097 438.76 59.2175C439.884 57.8565 440.711 56.5982 441.46 54.9932C441.641 54.5952 441.744 54.3384 441.744 54.1073C441.744 53.9018 441.563 53.7606 441.331 53.6322H441.357ZM436.008 52.9131C436.008 52.8361 436.176 52.7462 436.279 52.7462C436.383 52.7462 436.447 52.7847 436.55 52.8489C437.106 53.1956 437.481 53.6065 437.83 54.0816C438.165 54.5566 438.308 55.0317 438.308 55.4041C438.308 55.9819 438.036 56.3285 437.649 56.3285C437.313 56.3285 437.093 56.2258 436.99 55.4426C436.951 55.0702 436.848 54.685 436.706 54.3127C436.563 53.9018 436.357 53.5551 436.124 53.1956C436.047 53.0672 436.021 53.0159 436.021 52.9131H436.008Z" fill="#231815"/>
<path d="M452.61 57.0347C452.507 57.0989 452.377 57.1631 452.235 57.1631C452.054 57.1631 451.964 57.0347 451.964 56.8935C451.964 56.7523 452.067 56.6239 452.235 56.4826C454.16 54.7364 455.556 53.0415 457.184 50.4094C457.455 49.96 457.532 49.7545 457.532 49.5234C457.532 49.2153 457.196 48.9456 456.809 48.7402C456.68 48.676 456.563 48.5733 456.563 48.4705C456.563 48.3421 456.848 48.2394 457.248 48.2394C457.765 48.2394 458.217 48.5733 458.631 48.8814C459.044 49.1896 459.277 49.4977 459.277 49.793C459.277 50.037 459.109 50.2296 458.902 50.3323C458.695 50.435 458.527 50.6405 457.946 51.4237C458.023 51.4494 458.114 51.4494 458.217 51.4494C458.488 51.4494 458.837 51.4109 459.173 51.3724C460.129 51.244 460.917 51.1027 461.68 50.9743C461.964 50.9358 462.093 50.8459 462.287 50.6662C462.416 50.5378 462.519 50.4864 462.726 50.4864C462.959 50.4864 463.217 50.6533 463.747 51.0385C464.199 51.3852 464.328 51.5136 464.328 51.7961C464.328 52.04 464.122 52.1427 463.941 52.2455C463.76 52.3482 463.592 52.4509 463.488 52.6307C462.261 54.9162 460.814 56.9577 459.432 58.4856C457.778 60.3218 455.892 62.0295 452.713 63.7115C452.571 63.7885 452.403 63.8527 452.261 63.8527C452.132 63.8527 451.99 63.7243 451.99 63.5446C451.99 63.4418 452.054 63.3391 452.222 63.2364C454.703 61.7085 456.822 59.9237 458.527 57.8565C460 56.0846 461.305 54.1843 462.364 52.0015C462.39 51.963 462.403 51.8731 462.403 51.8218C462.403 51.7447 462.339 51.719 462.274 51.719C462.067 51.719 460.672 51.9501 459.935 52.0914C459.522 52.1684 459.07 52.2583 458.656 52.2583C458.346 52.2583 458.101 52.1941 457.597 52.0143C456.215 53.9275 454.613 55.5967 452.649 57.0347H452.61Z" fill="#231815"/>
<path d="M22.8036 8.73112C22.8036 5.46979 25.4651 2.82477 28.7468 2.82477H31.4858V1.07855H4.36693V2.82477H7.10594C10.3876 2.82477 13.0491 5.46979 13.0491 8.73112V28.9539H22.8036V8.73112Z" fill="#231815"/>
<path d="M85.8915 3.50529C88.8631 3.50529 92.1447 4.1858 95.4264 5.43127C102.39 8.06344 106.899 14.8172 106.899 22.2258H109.07V0H106.899C106.899 3.18429 103.45 5.13595 100.646 3.58233C95.8398 0.898792 90.4006 0.141239 84.5349 0.141239C67.5582 0.141239 53.5272 12.6473 51.0595 28.9539H62.0801C63.9277 14.5219 73.876 3.50529 85.8915 3.50529Z" fill="#231815"/>
<path d="M109.419 54.2228C103.256 60.2961 94.6641 64.0967 85.9044 64.0967C72.584 64.0967 61.783 50.5249 61.783 33.7946C61.783 32.8444 61.8217 31.8943 61.8863 30.9698H0V35.1427H13.0362V58.6012C13.0362 61.8625 10.3747 64.5076 7.09303 64.5076H4.35401V66.2538H31.46V64.5076H28.7209C25.4393 64.5076 22.7778 61.8625 22.7778 58.6012V35.1427H50.6719C51.2403 53.3882 66.1757 68 84.522 68C95.2326 68 104.767 63.0181 110.969 55.25L109.393 54.21L109.419 54.2228Z" fill="#231815"/>
</svg>
