<svg width="18" height="14" viewBox="0 0 18 14" fill="none" xmlns="http://www.w3.org/2000/svg">
<path fill-rule="evenodd" clip-rule="evenodd" d="M0.225615 6.45189C0.0811467 6.59732 0 6.79446 0 7C0 7.20554 0.0811467 7.40268 0.225615 7.54811L6.39728 13.7531C6.4679 13.8293 6.55307 13.8905 6.6477 13.9329C6.74234 13.9752 6.84449 13.998 6.94807 13.9999C7.05166 14.0017 7.15455 13.9826 7.25061 13.9436C7.34667 13.9045 7.43393 13.8465 7.50719 13.7728C7.58044 13.6992 7.63819 13.6114 7.67699 13.5149C7.71579 13.4183 7.73485 13.3148 7.73302 13.2107C7.73119 13.1065 7.70852 13.0038 7.66636 12.9087C7.62419 12.8136 7.5634 12.7279 7.4876 12.6569L2.63256 7.77563H17.2285C17.4331 7.77563 17.6294 7.69391 17.774 7.54845C17.9187 7.40299 18 7.20571 18 7C18 6.79429 17.9187 6.59701 17.774 6.45155C17.6294 6.30609 17.4331 6.22437 17.2285 6.22437H2.63256L7.4876 1.34309C7.5634 1.27208 7.62419 1.18645 7.66636 1.0913C7.70852 0.996162 7.73119 0.893455 7.73302 0.789311C7.73485 0.685167 7.71579 0.58172 7.67699 0.48514C7.63819 0.388561 7.58044 0.300828 7.50719 0.227176C7.43393 0.153524 7.34667 0.0954606 7.25061 0.0564506C7.15455 0.0174406 7.05166 -0.00171679 6.94807 0.000120711C6.84449 0.00195821 6.74234 0.0247529 6.6477 0.0671456C6.55307 0.109538 6.4679 0.17066 6.39728 0.246865L0.225615 6.45189Z" fill="#34312C"/>
</svg>
