<svg width="21" height="23" viewBox="0 0 21 23" fill="none" xmlns="http://www.w3.org/2000/svg">
<path d="M12.9779 15.5465L12.4512 15.8113C12.4512 15.8113 11.198 16.4396 9.2073 13.172C7.21661 9.90431 8.46977 9.27597 8.46977 9.27597L8.80116 9.10847C9.61914 8.69864 9.95482 7.75949 9.59037 6.89862L8.84619 5.14037C8.39484 4.07467 7.07734 3.57296 6.0647 4.08118L4.24798 4.9922C3.74651 5.24495 3.34531 5.6421 3.22656 6.17716C2.92298 7.54685 2.75021 10.6302 5.44733 15.0587C8.30854 19.7546 11.9159 20.9432 13.4442 21.2419C13.9282 21.3366 14.4021 21.232 14.8201 21.0214L16.4635 20.1966C17.5742 19.6403 17.7246 18.1826 16.7626 17.2945L15.2668 15.9119C14.6352 15.3296 13.7069 15.1809 12.9779 15.5465Z" fill="#34312C"/>
</svg>
