<svg width="18" height="18" viewBox="0 0 18 18" fill="none" xmlns="http://www.w3.org/2000/svg">
<path d="M11.4874 11.5544L11.039 11.8404C11.039 11.8404 9.97196 12.5195 8.06634 9.64089C6.16072 6.76224 7.22773 6.08312 7.22773 6.08312L7.50982 5.90229C8.20631 5.45929 8.45406 4.56225 8.09222 3.79158L7.35334 2.21755C6.90523 1.26353 5.72605 0.89923 4.86386 1.44845L3.31702 2.43307C2.8901 2.70605 2.55818 3.10529 2.48055 3.61079C2.28218 4.90478 2.28305 7.77848 4.86497 11.6799C7.60387 15.8167 10.8234 16.6425 12.1772 16.8023C12.606 16.853 13.0161 16.7196 13.372 16.4921L14.7712 15.6007C15.7169 14.9994 15.7767 13.6355 14.89 12.8855L13.511 11.7176C12.9288 11.2259 12.1081 11.1592 11.4874 11.5544Z" fill="white"/>
</svg>
