<svg width="5" height="25" viewBox="0 0 5 25" fill="none" xmlns="http://www.w3.org/2000/svg">
<path d="M0.999956 12.6432C1.00001 9.71253 1.51272 7.14018 2.248 5.13638C2.98903 3.11705 3.93599 1.72776 4.76851 1.09754C5.00136 0.921077 5.06996 0.552914 4.92183 0.275587C4.77361 -0.00162402 4.46435 -0.0832863 4.2314 0.09306C3.16932 0.89717 2.11623 2.51987 1.33101 4.65971C0.540049 6.81526 6.28454e-06 9.55009 -4.43459e-05 12.6432C-4.43459e-05 18.9843 2.29353 23.4282 4.23042 24.9062C4.46289 25.0834 4.77188 25.0027 4.92085 24.726C5.06972 24.4493 5.00191 24.0814 4.76949 23.9041C3.19762 22.7045 0.999956 18.703 0.999956 12.6432Z" fill="#34312C"/>
</svg>
