<svg width="5" height="25" viewBox="0 0 5 25" fill="none" xmlns="http://www.w3.org/2000/svg">
<path d="M4.00004 12.6432C3.99999 9.71253 3.48728 7.14018 2.752 5.13638C2.01097 3.11705 1.06401 1.72776 0.23149 1.09754C-0.00136416 0.921077 -0.0699596 0.552914 0.0781694 0.275587C0.226395 -0.00162402 0.535647 -0.0832863 0.768599 0.09306C1.83068 0.89717 2.88377 2.51987 3.66899 4.65971C4.45995 6.81526 4.99999 9.55009 5.00004 12.6432C5.00004 18.9843 2.70647 23.4282 0.769576 24.9062C0.537111 25.0834 0.228123 25.0027 0.0791459 24.726C-0.0697204 24.4493 -0.00191274 24.0814 0.230513 23.9041C1.80238 22.7045 4.00004 18.703 4.00004 12.6432Z" fill="#34312C"/>
</svg>
