<svg width="60" height="47" viewBox="0 0 60 47" fill="none" xmlns="http://www.w3.org/2000/svg">
<path d="M14.4476 0C16.1473 0 17.6771 0.344321 19.0368 1.03296C20.5099 1.60683 21.813 2.46764 22.9462 3.61538C23.966 5.33699 24.7592 7.28815 25.3258 9.46887C25.8924 11.6496 26.1756 13.7729 26.1756 15.8388C26.1756 22.84 23.966 29.0379 19.5467 34.4322C15.2408 39.8266 9.34844 44.0159 1.86969 47L0 42.696C5.55241 40.0562 9.85836 37.0146 12.9178 33.5714C16.0907 30.1282 18.2436 25.7668 19.3768 20.4872L20.3966 26.685L10.5382 19.9707C8.27196 18.4786 6.68555 16.9292 5.77904 15.3223C4.87252 13.6007 4.41926 11.7643 4.41926 9.81318C4.41926 6.94383 5.38244 4.59096 7.30878 2.75457C9.23513 0.918191 11.6147 0 14.4476 0ZM48.272 0C50.085 0 51.6714 0.344321 53.0312 1.03296C54.5042 1.60683 55.8074 2.46764 56.9405 3.61538C58.0737 5.33699 58.8669 7.28815 59.3201 9.46887C59.7734 11.6496 60 13.7729 60 15.8388C60 22.84 57.847 29.0379 53.5411 34.4322C49.2351 39.8266 43.3428 44.0159 35.864 47L34.1643 42.696C39.6034 40.0562 43.8527 37.0146 46.9122 33.5714C50.085 30.1282 52.2946 25.7668 53.5411 20.4872L54.3909 26.685L44.5326 19.9707C42.2663 18.4786 40.6799 16.9292 39.7734 15.3223C38.8669 13.6007 38.4136 11.7643 38.4136 9.81318C38.4136 6.94383 39.3201 4.59096 41.1331 2.75457C43.0595 0.918191 45.4391 0 48.272 0Z" fill="#34312C" fill-opacity="0.3"/>
</svg>
