<svg width="60" height="45" viewBox="0 0 60 45" fill="none" xmlns="http://www.w3.org/2000/svg">
<path d="M11.6949 45C10 45 8.41808 44.6703 6.94915 44.011C5.59322 43.3517 4.35028 42.5275 3.22034 41.5385C2.0904 39.7802 1.24294 37.9121 0.677966 35.9341C0.225989 33.8462 0 31.8132 0 29.8352C0 23.022 2.14689 17.0879 6.44068 12.033C10.8475 6.86813 16.7232 2.85715 24.0678 0L25.9322 4.12087C20.5085 6.53846 16.2147 9.45055 13.0508 12.8571C10 16.1538 7.85311 20.3297 6.61017 25.3846L5.76271 19.4506L15.5932 25.8791C17.8531 27.3077 19.3785 28.8462 20.1695 30.4945C21.0734 32.033 21.5254 33.7912 21.5254 35.7692C21.5254 38.4066 20.6215 40.6044 18.8136 42.3626C17.0056 44.1209 14.6328 45 11.6949 45ZM45.7627 45C44.0678 45 42.4859 44.6703 41.017 44.011C39.661 43.3517 38.4181 42.5275 37.2881 41.5385C36.2712 39.7802 35.4802 37.9121 34.9153 35.9341C34.4633 33.8462 34.2373 31.8132 34.2373 29.8352C34.2373 23.022 36.3842 17.0879 40.678 12.033C45.0847 6.86813 50.904 2.85715 58.1356 0L60 4.12087C54.5763 6.53846 50.2825 9.45055 47.1186 12.8571C44.0678 16.1538 41.9209 20.3297 40.678 25.3846L39.8305 19.4506L49.661 25.8791C51.9209 27.3077 53.5028 28.8462 54.4068 30.4945C55.3107 32.033 55.7627 33.7912 55.7627 35.7692C55.7627 38.4066 54.8023 40.6044 52.8814 42.3626C51.0734 44.1209 48.7006 45 45.7627 45Z" fill="#34312C" fill-opacity="0.3"/>
</svg>
