<svg width="20" height="20" viewBox="0 0 20 20" fill="none" xmlns="http://www.w3.org/2000/svg">
<path d="M20 10C20 15.5228 15.5228 20 10 20C4.47715 20 0 15.5228 0 10C0 4.47715 4.47715 0 10 0C15.5228 0 20 4.47715 20 10Z" fill="white"/>
<path d="M8.73598 11.6904L13.1205 7.16036C13.224 7.05345 13.3447 7 13.4827 7C13.6206 7 13.7413 7.05345 13.8448 7.16036C13.9483 7.26726 14 7.3943 14 7.54147C14 7.68864 13.9483 7.8155 13.8448 7.92205L9.09812 12.8396C8.99465 12.9465 8.87394 13 8.73598 13C8.59802 13 8.4773 12.9465 8.37383 12.8396L6.14924 10.5412C6.04577 10.4343 5.9961 10.3074 6.00024 10.1606C6.00438 10.0138 6.05835 9.88677 6.16217 9.77951C6.26598 9.67225 6.38894 9.6188 6.53104 9.61915C6.67314 9.61951 6.79592 9.67296 6.89939 9.77951L8.73598 11.6904Z" fill="#34312C"/>
</svg>
