<svg width="150" height="150" viewBox="0 0 150 150" fill="none" xmlns="http://www.w3.org/2000/svg">
<path d="M122.604 69.5645C123.219 69.5659 123.716 70.0655 123.714 70.6802C123.709 73.0295 124.249 74.512 125.155 75.422C126.06 76.332 127.54 76.8794 129.889 76.8849C130.504 76.8864 131.001 77.3858 131 78.0005C130.998 78.6153 130.499 79.1125 129.884 79.111C127.535 79.1055 126.052 79.6457 125.142 80.5513C124.232 81.4569 123.685 82.9365 123.679 85.2857C123.678 85.9004 123.178 86.3976 122.564 86.3962C121.949 86.3947 121.452 85.8952 121.453 85.2804C121.459 82.9311 120.918 81.4487 120.013 80.5386C119.107 79.6286 117.628 79.0814 115.278 79.0758C114.664 79.0744 114.167 78.5748 114.168 77.9601C114.169 77.3646 114.638 76.8794 115.226 76.851L115.284 76.8496L115.501 76.8486C117.725 76.8211 119.144 76.2866 120.026 75.4093C120.936 74.5037 121.483 73.0241 121.488 70.6749C121.49 70.0602 121.989 69.563 122.604 69.5645ZM122.589 75.691C122.315 76.1665 121.985 76.5999 121.596 76.9874C121.206 77.3748 120.771 77.7021 120.294 77.9746C120.77 78.2495 121.203 78.579 121.591 78.9683C121.978 79.3577 122.306 79.7927 122.578 80.2696C122.853 79.7941 123.182 79.3607 123.572 78.9733C123.961 78.5858 124.396 78.2584 124.873 77.9859C124.397 77.7111 123.964 77.3816 123.577 76.9923C123.189 76.6029 122.862 76.1679 122.589 75.691Z" fill="#34312C"/>
<path d="M39.3745 26C40.1071 26.0017 40.6995 26.597 40.6977 27.3296C40.6925 29.5559 41.2051 30.9037 42.0097 31.7122C42.8142 32.5206 44.159 33.0397 46.3852 33.045C47.1177 33.0467 47.7103 33.642 47.7085 34.3746C47.7068 35.1072 47.1115 35.6996 46.3789 35.6979C44.1526 35.6926 42.805 36.2052 41.9964 37.0098C41.188 37.8143 40.6688 39.1592 40.6635 41.3854C40.6617 42.1179 40.0666 42.7105 39.334 42.7088C38.6015 42.707 38.0089 42.1117 38.0107 41.3791C38.0159 39.1528 37.5034 37.8051 36.6989 36.9966C35.8944 36.1881 34.5494 35.6689 32.3232 35.6636C31.5907 35.6618 30.9983 35.0667 31 34.3341C31.0017 33.6245 31.5603 33.0462 32.2613 33.0123L32.3296 33.0107L32.5358 33.0098C34.6396 32.9838 35.9289 32.4784 36.7121 31.699C37.5206 30.8945 38.0396 29.5495 38.0449 27.3233C38.0467 26.5907 38.642 25.9983 39.3745 26ZM39.3584 32.6358C39.1324 32.9739 38.875 33.2891 38.5833 33.5794C38.2916 33.8697 37.975 34.1257 37.6357 34.3501C37.9739 34.5761 38.289 34.8337 38.5793 35.1254C38.8695 35.4171 39.1255 35.7335 39.3498 36.0728C39.5758 35.7346 39.8336 35.4195 40.1253 35.1292C40.4169 34.839 40.7333 34.5828 41.0725 34.3585C40.7344 34.1326 40.4193 33.875 40.1291 33.5834C39.8388 33.2916 39.5828 32.9751 39.3584 32.6358Z" fill="#34312C"/>
<path d="M77.2803 28.8311C94.7356 28.8311 110.066 44.7355 110.427 64.1196L110.434 64.5957C110.543 74.5399 108.168 81.1582 104.781 85.5313C104.258 86.207 103.286 86.3305 102.61 85.8071C101.935 85.2838 101.811 84.3118 102.334 83.6361C105.237 79.8883 107.514 73.876 107.333 64.1774C106.999 46.2675 92.844 31.9262 77.2803 31.9262C61.7494 31.9263 47.4267 45.8414 47.2301 63.9427L47.2285 64.1558C47.184 73.6791 49.4622 79.7053 52.3569 83.5386C52.872 84.2206 52.7367 85.1911 52.0547 85.7061C51.3727 86.2212 50.4022 86.0857 49.8872 85.4037C46.4908 80.9063 44.0866 74.1704 44.1335 64.1413L44.1352 63.9096C44.349 44.2459 59.9214 28.8311 77.2803 28.8311Z" fill="#34312C"/>
<path d="M101.096 74.9953V70.6735C95.3376 68.7796 90.3706 63.6414 85.9551 56.653C82.6294 60.4925 77.9619 63.5754 72.7681 65.894C67.1926 68.383 60.9155 70.0346 54.8139 70.7909V74.9953C54.8139 77.5364 55.0619 80.0236 55.5334 82.4111C55.699 83.2496 55.1535 84.0635 54.315 84.2291C53.4766 84.3947 52.6627 83.8493 52.4971 83.0108C51.9864 80.4254 51.7188 77.7373 51.7188 74.9953V69.4089C51.7188 68.615 52.3195 67.95 53.1092 67.8694C59.3471 67.2326 65.8356 65.5993 71.5063 63.0678C77.1927 60.5293 81.9473 57.1376 84.8567 53.0522L84.8857 53.0127C85.1917 52.6105 85.676 52.3822 86.1829 52.4037C86.7063 52.426 87.1829 52.7115 87.4495 53.1625C92.3601 61.4715 97.5078 66.6468 103.014 68.0077C103.705 68.1785 104.19 68.7984 104.19 69.51V74.9953C104.19 77.9983 103.869 80.9374 103.26 83.7469C103.079 84.5822 102.255 85.1125 101.419 84.9314C100.584 84.7503 100.054 83.9264 100.235 83.0911C100.797 80.497 101.096 77.7778 101.096 74.9953Z" fill="#34312C"/>
<path d="M85.6079 43.5411C86.4624 43.5513 87.1469 44.2523 87.1368 45.1069C87.1076 47.5589 87.1748 52.6728 87.3342 55.0807C87.3906 55.9335 86.7451 56.6706 85.8923 56.7271C85.0395 56.7835 84.3023 56.1379 84.2459 55.2851C84.079 52.7624 84.0124 47.5585 84.042 45.0702C84.0521 44.2156 84.7532 43.531 85.6079 43.5411Z" fill="#34312C"/>
<path d="M64.9834 100.581C65.8234 100.424 66.6321 100.978 66.7894 101.818C67.497 105.597 66.8341 110.907 66.0676 115.091C65.6774 117.22 65.2465 119.127 64.9133 120.5C64.7465 121.188 64.6039 121.743 64.5025 122.129C64.4518 122.321 64.4113 122.472 64.3833 122.574C64.3694 122.626 64.3585 122.665 64.351 122.693C64.3473 122.706 64.3444 122.717 64.3424 122.724C64.3414 122.728 64.3406 122.731 64.34 122.733C64.3397 122.734 64.3394 122.735 64.3392 122.735C64.3391 122.735 64.3391 122.736 64.3391 122.736C64.339 122.736 64.3389 122.736 62.8487 122.319L64.3389 122.736C64.1085 123.559 63.2544 124.04 62.4314 123.809C61.6084 123.579 61.1281 122.725 61.3585 121.902C61.3585 121.902 61.3587 121.901 61.3588 121.901C61.3591 121.9 61.3596 121.898 61.3604 121.895C61.3619 121.889 61.3643 121.881 61.3676 121.869C61.374 121.846 61.3839 121.81 61.3969 121.762C61.4227 121.667 61.4609 121.525 61.5094 121.341C61.6062 120.973 61.7439 120.437 61.9055 119.771C62.2288 118.438 62.6463 116.59 63.0233 114.533C63.7913 110.342 64.3382 105.544 63.7471 102.387C63.5898 101.547 64.1433 100.739 64.9834 100.581Z" fill="#34312C"/>
<path d="M87.3167 101.818C87.474 100.978 88.2825 100.424 89.1225 100.581C89.9626 100.739 90.5161 101.547 90.3588 102.387C89.7678 105.544 90.3148 110.342 91.0828 114.533C91.4598 116.59 91.8773 118.438 92.2006 119.771C92.3621 120.437 92.4998 120.973 92.5967 121.341C92.6451 121.525 92.6833 121.667 92.7092 121.762C92.7221 121.81 92.7319 121.846 92.7384 121.869C92.7416 121.881 92.744 121.889 92.7455 121.895C92.7463 121.898 92.7469 121.9 92.7473 121.901L92.7476 121.902L92.767 121.979C92.9476 122.778 92.4718 123.586 91.6745 123.809C90.8515 124.04 89.9976 123.559 89.7672 122.736L91.2574 122.319C89.7672 122.736 89.7671 122.736 89.767 122.736C89.767 122.736 89.7668 122.735 89.7667 122.735C89.7665 122.735 89.7664 122.734 89.7661 122.733C89.7655 122.731 89.7647 122.728 89.7637 122.724C89.7616 122.717 89.7588 122.706 89.7551 122.693C89.7476 122.665 89.7366 122.626 89.7226 122.574C89.6946 122.472 89.6542 122.321 89.6036 122.129C89.5022 121.743 89.3596 121.188 89.1928 120.5C88.8596 119.127 88.4285 117.22 88.0383 115.091C87.2718 110.907 86.609 105.597 87.3167 101.818Z" fill="#34312C"/>
<path d="M54.1001 88.0959C54.8421 87.6717 55.7874 87.9294 56.2115 88.6714C59.0154 93.5767 62.8161 97.7293 66.7002 100.643C70.6257 103.589 74.456 105.137 77.3147 105.137C80.1795 105.137 83.9529 103.625 87.8191 100.748C91.6465 97.9002 95.3968 93.836 98.2153 89.0214C98.6471 88.2839 99.5951 88.036 100.333 88.4678C101.07 88.8996 101.318 89.8475 100.886 90.5851C97.8575 95.7589 93.8268 100.136 89.6667 103.231C85.5453 106.298 81.1244 108.232 77.3147 108.232C73.4988 108.232 69.0164 106.25 64.8427 103.119C60.6274 99.9565 56.542 95.4862 53.5246 90.2073C53.1005 89.4653 53.3581 88.52 54.1001 88.0959Z" fill="#34312C"/>
<path d="M43.6035 115.004C43.6038 115.004 43.6042 115.004 43.6046 115.004H43.6048C43.6078 115.003 43.6138 115 43.6226 114.997C43.6403 114.991 43.6693 114.98 43.7088 114.964C43.7879 114.933 43.9088 114.885 44.0643 114.818C44.3755 114.686 44.8228 114.483 45.3494 114.21C46.4108 113.658 47.7549 112.84 48.9569 111.757L48.9574 111.756C50.2526 110.59 51.4127 109.28 52.5661 107.908C54.2783 105.871 55.7041 103.575 57.042 101.179C57.4266 100.489 57.9615 99.3125 58.17 98.2935C58.2562 97.8721 58.2648 97.5782 58.2436 97.3987C58.0478 97.4911 57.7869 97.6661 57.4729 97.9333C56.7784 98.5243 56.2236 99.1989 55.7488 99.6944L55.7487 99.6942C55.292 100.171 54.865 100.696 54.4208 101.263C53.9918 101.811 53.5201 102.436 53.0415 103.011C52.2412 103.974 51.0212 104.206 50.0268 103.842C49.0209 103.474 48.2226 102.48 48.3156 101.182L48.7137 95.6141L48.7138 95.6134C48.8425 93.8245 49.6717 92.1452 51.0172 90.9353C52.5911 89.5178 54.9223 87.3162 56.5503 85.3409C57.3482 84.3727 57.8805 83.5718 58.1169 83.0092C57.7801 82.9815 57.267 83.0367 56.5179 83.2896C55.4133 83.6627 54.0924 84.3668 52.6594 85.2986C49.8048 87.1551 46.7777 89.7343 44.5867 91.728L44.5865 91.7281C42.8959 93.2661 41.8421 95.3606 41.6213 97.5718L40.2541 111.291C40.235 111.482 40.1806 111.668 40.0935 111.839L34.4076 123.016C34.0201 123.777 33.0884 124.081 32.3266 123.693C31.5649 123.306 31.2615 122.374 31.649 121.612L37.2031 110.695L38.5416 97.2646V97.2643C38.8396 94.2806 40.2559 91.4836 42.5038 89.4387C44.7326 87.4106 47.906 84.6979 50.9721 82.7039C52.4996 81.7106 54.0693 80.8498 55.5275 80.3573C56.9052 79.892 58.517 79.6425 59.9041 80.3414L59.9701 80.3755L59.9703 80.3756C60.6878 80.755 61.1594 81.3977 61.2894 82.1867C61.4029 82.8761 61.2338 83.5381 61.0312 84.059C60.6236 85.1073 59.8113 86.2503 58.9386 87.3092C57.1561 89.472 54.6805 91.8015 53.0876 93.236L53.0868 93.2368C52.3276 93.9195 51.8712 94.8573 51.8008 95.8355L51.5051 99.9711C51.659 99.7726 51.8172 99.5684 51.9836 99.3558C52.4439 98.7675 52.9475 98.145 53.5136 97.5536L53.5141 97.553C53.7882 97.2669 54.6154 96.3009 55.4671 95.5761C55.906 95.2027 56.446 94.8058 57.0432 94.5453C57.6342 94.2874 58.4599 94.0886 59.3274 94.4044H59.3275C59.3289 94.4049 59.3303 94.4055 59.3317 94.406C59.333 94.4065 59.3345 94.4069 59.3358 94.4074H59.3357C60.3999 94.7952 60.993 95.6263 61.2229 96.5237C61.4315 97.3377 61.3486 98.1983 61.2022 98.914C60.9053 100.365 60.2092 101.854 59.7455 102.686L59.7448 102.687C58.3681 105.152 56.8314 107.643 54.9351 109.9L54.9348 109.9C53.7584 111.299 52.4874 112.743 51.0285 114.056C49.5681 115.373 47.9804 116.331 46.7757 116.956C46.2611 117.224 45.8091 117.434 45.4566 117.588L44.2845 122.662C44.0921 123.495 43.2611 124.014 42.4284 123.822C41.5957 123.629 41.0766 122.798 41.269 121.966L42.6215 116.111L42.6333 116.064C42.763 115.574 43.1249 115.177 43.6035 115.004ZM43.603 115.005C43.6026 115.005 43.6024 115.005 43.6024 115.005C43.6024 115.005 43.6025 115.005 43.6027 115.005H43.603Z" fill="#34312C"/>
<path d="M110.9 115.004C111.394 115.183 111.763 115.6 111.881 116.111L113.234 121.965C113.426 122.798 112.907 123.629 112.075 123.822C111.242 124.014 110.411 123.495 110.219 122.662L109.046 117.588C108.694 117.434 108.242 117.224 107.727 116.956C106.522 116.331 104.935 115.372 103.474 114.056L103.474 114.056C102.017 112.742 100.746 111.299 99.5699 109.9L99.5696 109.9C97.6733 107.643 96.1365 105.152 94.7598 102.687L94.7591 102.686C94.2954 101.854 93.5993 100.365 93.3024 98.9139C93.156 98.1982 93.0732 97.3376 93.2818 96.5236C93.5124 95.624 94.1077 94.7908 95.1771 94.4044V94.4045C96.0446 94.0886 96.8703 94.2873 97.4614 94.5452C98.0586 94.8058 98.5987 95.2026 99.0376 95.5761C99.8893 96.3009 100.716 97.2668 100.991 97.5529L100.991 97.5535C101.557 98.145 102.061 98.7675 102.521 99.3557C102.687 99.5683 102.845 99.7724 102.999 99.9709L102.704 95.8355L102.696 95.7439C102.608 94.8302 102.181 93.9565 101.487 93.3008L101.417 93.236C99.8241 91.8015 97.3484 89.472 95.566 87.3092C94.6933 86.2503 93.8811 85.1072 93.4735 84.059C93.2709 83.538 93.1017 82.8761 93.2152 82.1867C93.3452 81.3977 93.8168 80.7549 94.5343 80.3756L94.5346 80.3754C95.9365 79.6347 97.5775 79.8846 98.9771 80.3572C100.435 80.8497 102.005 81.7105 103.532 82.7039C106.599 84.6979 109.772 87.4105 112.001 89.4386L112.106 89.535C114.258 91.5387 115.626 94.2398 115.948 97.1245L115.963 97.2642V97.2645L117.302 110.695L122.856 121.612C123.243 122.374 122.94 123.306 122.178 123.693C121.416 124.081 120.484 123.777 120.097 123.015L114.411 111.839C114.324 111.668 114.27 111.482 114.251 111.291L112.883 97.5717C112.662 95.3605 111.609 93.266 109.918 91.7281L109.918 91.7279C107.727 89.7343 104.7 87.155 101.845 85.2986C100.412 84.3667 99.0915 83.6626 97.9868 83.2896C97.2377 83.0366 96.7245 82.9814 96.3876 83.0091C96.6241 83.5717 97.1565 84.3726 97.9545 85.3408C99.5827 87.3164 101.914 89.5186 103.488 90.936H103.488C104.789 92.1072 105.61 93.719 105.777 95.4459L105.791 95.6134L105.791 95.614L106.189 101.182L106.193 101.243C106.257 102.51 105.468 103.48 104.478 103.842C103.483 104.206 102.263 103.974 101.463 103.011V103.011C100.985 102.435 100.513 101.811 100.084 101.263C99.6395 100.696 99.2121 100.171 98.7553 99.6937V99.6935C98.2807 99.1982 97.726 98.524 97.0318 97.9332C96.7178 97.666 96.4567 97.491 96.2608 97.3987C96.2396 97.5781 96.2484 97.8721 96.3346 98.2935C96.543 99.3124 97.078 100.489 97.4626 101.179H97.4625C98.8004 103.575 100.226 105.871 101.939 107.908L102.155 108.164C103.237 109.443 104.333 110.663 105.546 111.757H105.546C106.748 112.84 108.092 113.658 109.154 114.21C109.68 114.483 110.127 114.686 110.439 114.818C110.594 114.885 110.715 114.933 110.794 114.964C110.834 114.98 110.863 114.991 110.88 114.997C110.889 115 110.895 115.003 110.898 115.004C110.899 115.004 110.899 115.004 110.899 115.004C110.9 115.004 110.901 115.005 110.901 115.005C110.901 115.005 110.901 115.005 110.9 115.004ZM103.843 101.033L103.844 101.033C103.843 101.033 103.843 101.032 103.843 101.032L103.843 101.033Z" fill="#34312C"/>
</svg>
