<svg width="105" height="96" viewBox="0 0 105 96" fill="none" xmlns="http://www.w3.org/2000/svg">
<path d="M84.0004 0C72.4016 0 63 8.00545 63 17.8794C63 24.1579 66.8095 29.671 72.5596 32.8609C71.814 34.5569 70.7832 36.1018 69.791 36.9257L69.2404 37.3911C69.0409 37.5628 68.9532 37.8365 69.0234 38.0925C69.0879 38.3516 69.2987 38.5464 69.5626 38.5988C70.0374 38.6921 70.5763 38.7384 71.1624 38.7384C73.1074 38.7384 78.3356 37.9739 83.4009 35.7326C83.602 35.7376 83.7982 35.7585 84.0007 35.7585C95.5995 35.7585 105.001 27.7531 105.001 17.8791C105.001 8.00517 95.5992 0 84.0004 0ZM84.0004 32.7789L82.802 32.7356L82.1662 33.0148C80.4345 33.783 77.1592 35.1684 74.7947 35.7591C74.7713 35.7652 74.7449 35.7679 74.7213 35.7679C74.6277 35.7679 74.5399 35.7274 74.481 35.6487C74.4077 35.5527 74.4022 35.4216 74.4635 35.3198C75.4744 33.6205 76.3883 31.601 76.3972 31.5834L74.021 30.2595C68.9965 27.4744 65.9995 22.8476 65.9995 17.88C65.9995 9.66509 74.0738 2.98045 83.9998 2.98045C93.9258 2.98045 102 9.66509 102 17.88C102 26.0948 93.9258 32.7795 83.9998 32.7795L84.0004 32.7789Z" fill="#34312C"/>
<path d="M75.004 14.8977C73.3456 14.8977 72.0039 16.2304 72.0039 17.8776C72.0039 19.5248 73.3456 20.8575 75.004 20.8575C76.6623 20.8575 78.004 19.5246 78.004 17.8776C78.004 16.2307 76.662 14.8977 75.004 14.8977Z" fill="#34312C"/>
<path d="M84.004 14.8977C82.3456 14.8977 81.0039 16.2304 81.0039 17.8776C81.0039 19.5248 82.3456 20.8575 84.004 20.8575C85.6623 20.8575 87.004 19.5246 87.004 17.8776C87.004 16.2307 85.662 14.8977 84.004 14.8977Z" fill="#34312C"/>
<path d="M93.004 14.8977C91.3456 14.8977 90.0039 16.2304 90.0039 17.8776C90.0039 19.5248 91.3456 20.8575 93.004 20.8575C94.6623 20.8575 96.004 19.5246 96.004 17.8776C96.004 16.2307 94.662 14.8977 93.004 14.8977Z" fill="#34312C"/>
<path d="M53.121 59.5631L50.544 54.3913C50.324 53.9521 49.9023 53.6464 49.4145 53.5765C48.9253 53.5125 48.4328 53.6811 48.0989 54.0393C48.0964 54.042 48.0312 54.1074 48.0009 54.138V51.4299C51.9096 48.0022 55.1199 43.6496 56.1777 40.9809C58.413 40.0936 60.0011 38.3473 60.0011 33.8835C60.0011 30.9174 59.2127 29.2062 58.0216 28.1094C59.118 20.772 58.1852 15.4697 55.208 12.3874C52.9815 10.0827 50.2643 9.7044 48.9065 9.67543C47.6392 8.40649 44.1647 5.95911 36.1984 5.95911C29.5555 5.95911 24.5118 7.86818 21.2057 11.6339C17.8695 15.4357 16.5742 20.8818 17.2967 27.8023C15.9172 28.8743 15.0006 30.6487 15.0006 33.8838C15.0006 38.3476 16.5884 40.0939 18.8237 40.9812C19.8815 43.6499 23.0918 48.0025 27.0008 51.4302V54.1367C26.9699 54.1047 26.9038 54.0393 26.901 54.0365C26.5658 53.6814 26.0808 53.4952 25.5855 53.5796C25.0977 53.6494 24.6757 53.9521 24.4574 54.3913L21.8804 59.5631C10.1127 66.8263 0 59.6611 0 85.7181C0 92.7024 23.4379 95.3561 37.5007 95.3561C51.5634 95.3561 75.0014 92.7024 75.0014 85.7181C75.0014 59.6613 64.8887 66.8263 53.121 59.5631ZM48.7539 57.5169L51.0857 62.1967L47.2945 68.2316C46.1045 66.0165 44.3908 63.6334 41.7169 61.9953C44.8311 60.6246 47.2806 58.7828 48.7542 57.5169H48.7539ZM34.0926 65.111C35.0562 64.3917 36.1651 63.7907 37.5007 63.4202C38.8354 63.7902 39.9438 64.3911 40.9071 65.1099C40.8069 67.1928 40.1071 68.0771 38.9143 68.7536L38.8352 68.7972C38.009 69.2688 36.9926 69.2688 36.1662 68.7972L36.087 68.7536C34.8929 68.0771 34.1934 67.193 34.0926 65.1107V65.111ZM34.5973 71.3412L32.8087 76.3532L29.5758 71.2068C30.0967 70.0565 30.7328 68.8389 31.5589 67.698C32.0903 69.3231 33.0914 70.485 34.5973 71.3412ZM43.4416 67.6971C44.2683 68.8383 44.9047 70.0562 45.4256 71.2068L42.1411 76.4357L40.4041 71.3412C41.9108 70.485 42.9113 69.3228 43.4416 67.6971ZM23.4674 13.5921C26.1774 10.5046 30.4606 8.93901 36.1984 8.93901C44.6728 8.93901 46.9725 11.9887 46.9739 11.9887C47.2817 12.4603 47.8353 12.7193 48.4067 12.6639C48.5076 12.6462 51.0976 12.4051 53.0751 14.483C55.1971 16.7146 55.9116 20.9099 55.1999 26.6443C53.0076 25.4203 49.9909 23.037 48.7189 18.7636C48.5695 18.26 48.1637 17.8702 47.6509 17.7421C47.1381 17.6083 46.5947 17.7623 46.2197 18.1323C42.2336 22.09 34.9956 23.0182 26.8672 20.6144C26.4524 20.4922 26.003 20.5534 25.638 20.783C25.2716 21.0131 25.0227 21.3881 24.9566 21.816C24.6016 24.0899 22.169 25.6742 20.1776 26.5624C19.7429 20.9455 20.8398 16.5847 23.4671 13.5921H23.4674ZM21.6157 39.8897L21.1409 38.6908L19.9368 38.2135C19.1195 37.8904 18.0003 37.4454 18.0003 33.8835C18.0003 30.9972 18.8459 30.3537 19.1704 30.1131C20.3176 29.7851 25.7232 28.0413 27.4694 23.8705C35.0834 25.8 41.9905 24.9941 46.6197 21.688C49.1737 27.2982 54.1729 29.6217 56.0894 30.338C56.4713 30.724 57.001 31.5948 57.001 33.8835C57.001 37.4454 55.8821 37.8907 55.0643 38.2135L53.8602 38.6908L53.3854 39.8897C51.6012 44.3943 43.1211 53.5672 37.5004 53.5672C31.8797 53.5672 23.3996 44.3943 21.6154 39.8897H21.6157ZM37.5007 56.5471C39.9224 56.5471 42.5222 55.4288 45.0008 53.7595V56.6503C43.1338 57.9931 40.538 59.509 37.501 60.299C34.4731 59.5115 31.8722 57.9907 30.0005 56.6445V53.7598C32.4792 55.4291 35.079 56.5473 37.5007 56.5473V56.5471ZM26.2474 57.5169C27.7211 58.7828 30.1703 60.6246 33.2845 61.9953C30.6106 63.6334 28.8969 66.0168 27.7069 68.2316L23.9157 62.1967L26.2474 57.5169ZM36.0007 92.3564C16.5381 92.1486 3.00005 87.9991 3.00005 85.7181C3.00005 69.1656 6.70762 68.1036 13.4402 66.1741C14.5055 65.8689 15.6664 65.5185 16.8689 65.1113C15.6703 68.4085 15.5883 72.0064 15.8497 74.9082C13.6019 75.7688 12.0002 77.9207 12.0002 80.4569C12.0002 83.7486 14.6864 86.4167 18.0003 86.4167C21.3143 86.4167 24.0004 83.7486 24.0004 80.4569C24.0004 77.4516 21.7535 74.991 18.8415 74.5815C18.5381 71.1257 18.7603 66.6387 21.1257 63.3857L36.0007 87.0651V92.3567V92.3564ZM18.0003 77.4767C19.6542 77.4767 21.0004 78.8124 21.0004 80.4566C21.0004 82.1008 19.6542 83.4365 18.0003 83.4365C16.3464 83.4365 15.0003 82.1011 15.0003 80.4566C15.0003 78.8122 16.3464 77.4767 18.0003 77.4767ZM34.8092 79.5384L37.4943 72.0119L40.106 79.6744L37.5004 83.8225L34.809 79.5384H34.8092ZM39.0007 92.3564V87.0648L53.8024 63.5015C55.628 65.0359 56.4374 67.3318 56.7683 68.7931C54.2888 69.4622 52.2379 71.5018 51.5151 74.238L49.6915 81.161C49.2459 82.8461 49.6037 84.6561 50.6479 86.0006C51.5898 87.2111 52.974 87.9067 54.4493 87.9067H55.4382C56.2674 87.9067 56.9383 87.2403 56.9383 86.4167C56.9383 85.5931 56.2674 84.9268 55.4382 84.9268H54.4493C53.714 84.9268 53.241 84.4583 53.024 84.1818C52.5437 83.5621 52.3823 82.715 52.5935 81.9176L54.4188 74.9946C54.9577 72.9459 56.6363 71.5169 58.5014 71.5169C60.3664 71.5169 62.045 72.9459 62.5839 74.9946L64.4106 81.9176C64.6203 82.715 64.459 83.5618 63.9787 84.1818C63.7617 84.4583 63.2887 84.9268 62.5534 84.9268H61.5645C60.7353 84.9268 60.0644 85.5931 60.0644 86.4167C60.0644 87.2403 60.7353 87.9067 61.5645 87.9067H62.5534C64.0284 87.9067 65.4126 87.2111 66.3548 86.0006C67.399 84.6561 67.7568 82.8461 67.3129 81.161L65.4876 74.238C64.7237 71.3467 62.4825 69.2141 59.813 68.6775C59.6503 67.8172 59.3414 66.6169 58.7677 65.3226C59.7397 65.6366 60.6853 65.9227 61.5617 66.1738C68.2943 68.1033 72.0019 69.1653 72.0019 85.7178C72.0019 87.9988 58.4639 92.1483 39.0013 92.3561L39.0007 92.3564Z" fill="#34312C"/>
</svg>
