<svg width="150" height="150" viewBox="0 0 150 150" fill="none" xmlns="http://www.w3.org/2000/svg">
<path d="M116 27C104.402 27 95 35.0054 95 44.8794C95 51.1579 98.8095 56.671 104.56 59.8609C103.814 61.5569 102.783 63.1018 101.791 63.9257L101.24 64.3911C101.041 64.5628 100.953 64.8365 101.023 65.0925C101.088 65.3516 101.299 65.5464 101.563 65.5988C102.037 65.6921 102.576 65.7384 103.162 65.7384C105.107 65.7384 110.336 64.9739 115.401 62.7326C115.602 62.7376 115.798 62.7585 116.001 62.7585C127.599 62.7585 137.001 54.7531 137.001 44.8791C137.001 35.0052 127.599 27 116 27ZM116 59.7789L114.802 59.7356L114.166 60.0148C112.434 60.783 109.159 62.1684 106.795 62.7591C106.771 62.7652 106.745 62.7679 106.721 62.7679C106.628 62.7679 106.54 62.7274 106.481 62.6487C106.408 62.5527 106.402 62.4216 106.464 62.3198C107.474 60.6205 108.388 58.601 108.397 58.5834L106.021 57.2595C100.996 54.4744 97.9995 49.8476 97.9995 44.88C97.9995 36.6651 106.074 29.9805 116 29.9805C125.926 29.9805 134 36.6651 134 44.88C134 53.0948 125.926 59.7795 116 59.7795L116 59.7789Z" fill="#34312C"/>
<path d="M107.004 41.8975C105.346 41.8975 104.004 43.2301 104.004 44.8774C104.004 46.5246 105.346 47.8573 107.004 47.8573C108.662 47.8573 110.004 46.5243 110.004 44.8774C110.004 43.2304 108.662 41.8975 107.004 41.8975Z" fill="#34312C"/>
<path d="M116.004 41.8975C114.346 41.8975 113.004 43.2301 113.004 44.8774C113.004 46.5246 114.346 47.8573 116.004 47.8573C117.662 47.8573 119.004 46.5243 119.004 44.8774C119.004 43.2304 117.662 41.8975 116.004 41.8975Z" fill="#34312C"/>
<path d="M125.004 41.8975C123.346 41.8975 122.004 43.2301 122.004 44.8774C122.004 46.5246 123.346 47.8573 125.004 47.8573C126.662 47.8573 128.004 46.5243 128.004 44.8774C128.004 43.2304 126.662 41.8975 125.004 41.8975Z" fill="#34312C"/>
<path d="M85.121 86.563L82.544 81.3912C82.324 80.9519 81.9023 80.6462 81.4145 80.5764C80.9253 80.5124 80.4328 80.681 80.0989 81.0391C80.0964 81.0419 80.0312 81.1073 80.0009 81.1379V78.4298C83.9096 75.0021 87.1199 70.6495 88.1777 67.9808C90.413 67.0935 92.0011 65.3472 92.0011 60.8834C92.0011 57.9173 91.2128 56.2061 90.0216 55.1093C91.118 47.7719 90.1852 42.4696 87.208 39.3873C84.9815 37.0826 82.2643 36.7043 80.9065 36.6753C79.6392 35.4064 76.1647 32.959 68.1984 32.959C61.5555 32.959 56.5118 34.8681 53.2057 38.6338C49.8695 42.4356 48.5742 47.8817 49.2967 54.8022C47.9172 55.8741 47.0006 57.6486 47.0006 60.8837C47.0006 65.3475 48.5884 67.0938 50.8237 67.9811C51.8815 70.6498 55.0918 75.0024 59.0008 78.4301V81.1365C58.9699 81.1045 58.9038 81.0391 58.901 81.0364C58.5658 80.6813 58.0808 80.495 57.5855 80.5795C57.0977 80.6493 56.6757 80.9519 56.4574 81.3912L53.8804 86.563C42.1127 93.8262 32 86.6609 32 112.718C32 119.702 55.4379 122.356 69.5007 122.356C83.5634 122.356 107.001 119.702 107.001 112.718C107.001 86.6612 96.8887 93.8262 85.121 86.563ZM80.7539 84.5168L83.0857 89.1966L79.2945 95.2315C78.1045 93.0164 76.3908 90.6333 73.7169 88.9952C76.8311 87.6244 79.2806 85.7827 80.7542 84.5168H80.7539ZM66.0926 92.1109C67.0562 91.3915 68.1651 90.7906 69.5007 90.42C70.8354 90.79 71.9438 91.391 72.9071 92.1097C72.8069 94.1926 72.1071 95.077 70.9143 95.7535L70.8352 95.7971C70.009 96.2686 68.9926 96.2686 68.1662 95.7971L68.087 95.7535C66.8929 95.077 66.1934 94.1929 66.0926 92.1106V92.1109ZM66.5973 98.341L64.8087 103.353L61.5758 98.2067C62.0967 97.0564 62.7328 95.8388 63.5589 94.6978C64.0903 96.323 65.0914 97.4849 66.5973 98.341ZM75.4416 94.697C76.2683 95.8382 76.9047 97.0561 77.4256 98.2067L74.1411 103.436L72.4041 98.341C73.9108 97.4849 74.9113 96.3227 75.4416 94.697ZM55.4674 40.5919C58.1774 37.5044 62.4606 35.9389 68.1984 35.9389C76.6728 35.9389 78.9725 38.9886 78.9739 38.9886C79.2817 39.4601 79.8353 39.7192 80.4067 39.6638C80.5076 39.6461 83.0976 39.405 85.0751 41.4829C87.1971 43.7145 87.9116 47.9098 87.1999 53.6442C85.0076 52.4202 81.9909 50.0369 80.7189 45.7635C80.5695 45.2599 80.1637 44.87 79.6509 44.742C79.1381 44.6082 78.5947 44.7622 78.2197 45.1322C74.2336 49.0899 66.9956 50.0181 58.8672 47.6143C58.4524 47.4921 58.003 47.5533 57.638 47.7829C57.2716 48.013 57.0227 48.388 56.9566 48.8159C56.6016 51.0898 54.169 52.6741 52.1776 53.5622C51.7429 47.9454 52.8398 43.5845 55.4671 40.5919H55.4674ZM53.6157 66.8896L53.1409 65.6907L51.9368 65.2134C51.1195 64.8903 50.0003 64.4452 50.0003 60.8834C50.0003 57.9971 50.8459 57.3536 51.1704 57.113C52.3176 56.785 57.7232 55.0412 59.4694 50.8704C67.0834 52.7999 73.9905 51.9939 78.6197 48.6879C81.1737 54.2981 86.1729 56.6216 88.0894 57.3379C88.4713 57.7239 89.001 58.5947 89.001 60.8834C89.001 64.4452 87.8821 64.8906 87.0643 65.2134L85.8602 65.6907L85.3854 66.8896C83.6012 71.3942 75.1211 80.567 69.5004 80.567C63.8797 80.567 55.3996 71.3942 53.6154 66.8896H53.6157ZM69.5007 83.5469C71.9224 83.5469 74.5222 82.4287 77.0008 80.7594V83.6501C75.1338 84.993 72.538 86.5089 69.501 87.2989C66.4731 86.5114 63.8723 84.9905 62.0005 83.6443V80.7596C64.4792 82.4289 67.079 83.5472 69.5007 83.5472V83.5469ZM58.2474 84.5168C59.7211 85.7827 62.1703 87.6244 65.2845 88.9952C62.6106 90.6333 60.8969 93.0167 59.7069 95.2315L55.9157 89.1966L58.2474 84.5168ZM68.0007 119.356C48.5381 119.148 35.0001 114.999 35.0001 112.718C35.0001 96.1654 38.7076 95.1034 45.4402 93.174C46.5055 92.8688 47.6664 92.5184 48.8689 92.1111C47.6703 95.4083 47.5883 99.0063 47.8497 101.908C45.6019 102.769 44.0002 104.921 44.0002 107.457C44.0002 110.748 46.6864 113.417 50.0003 113.417C53.3143 113.417 56.0004 110.748 56.0004 107.457C56.0004 104.452 53.7535 101.991 50.8415 101.581C50.5381 98.1256 50.7603 93.6386 53.1257 90.3855L68.0007 114.065V119.357V119.356ZM50.0003 104.477C51.6542 104.477 53.0004 105.812 53.0004 107.457C53.0004 109.101 51.6542 110.436 50.0003 110.436C48.3464 110.436 47.0003 109.101 47.0003 107.457C47.0003 105.812 48.3464 104.477 50.0003 104.477ZM66.8092 106.538L69.4943 99.0118L72.106 106.674L69.5004 110.822L66.809 106.538H66.8092ZM71.0007 119.356V114.065L85.8024 90.5014C87.628 92.0358 88.4374 94.3317 88.7683 95.793C86.2888 96.4621 84.2379 98.5016 83.5151 101.238L81.6915 108.161C81.2459 109.846 81.6037 111.656 82.6479 113.001C83.5898 114.211 84.974 114.907 86.4493 114.907H87.4382C88.2674 114.907 88.9383 114.24 88.9383 113.417C88.9383 112.593 88.2674 111.927 87.4382 111.927H86.4493C85.714 111.927 85.241 111.458 85.024 111.182C84.5437 110.562 84.3823 109.715 84.5935 108.917L86.4188 101.994C86.9577 99.9458 88.6363 98.5168 90.5014 98.5168C92.3664 98.5168 94.045 99.9458 94.5839 101.994L96.4106 108.917C96.6203 109.715 96.459 110.562 95.9787 111.182C95.7617 111.458 95.2887 111.927 94.5534 111.927H93.5645C92.7353 111.927 92.0644 112.593 92.0644 113.417C92.0644 114.24 92.7353 114.907 93.5645 114.907H94.5534C96.0284 114.907 97.4126 114.211 98.3548 113.001C99.399 111.656 99.7568 109.846 99.3129 108.161L97.4876 101.238C96.7237 98.3466 94.4825 96.214 91.813 95.6774C91.6503 94.817 91.3414 93.6168 90.7677 92.3225C91.7397 92.6365 92.6853 92.9226 93.5617 93.1737C100.294 95.1032 104.002 96.1652 104.002 112.718C104.002 114.999 90.4639 119.148 71.0013 119.356L71.0007 119.356Z" fill="#34312C"/>
</svg>
