<svg width="100" height="98" viewBox="0 0 100 98" fill="none" xmlns="http://www.w3.org/2000/svg">
<path d="M91.604 43.5645C92.2187 43.5659 92.7159 44.0655 92.7145 44.6802C92.709 47.0295 93.2492 48.512 94.1548 49.422C95.0604 50.332 96.5399 50.8794 98.8891 50.8849C99.5039 50.8864 100.001 51.3858 99.9996 52.0005C99.9982 52.6153 99.4986 53.1125 98.8839 53.111C96.5346 53.1055 95.0521 53.6457 94.1421 54.5513C93.2321 55.4569 92.6848 56.9365 92.6793 59.2857C92.6779 59.9004 92.1783 60.3976 91.5636 60.3962C90.9488 60.3947 90.4517 59.8952 90.4531 59.2804C90.4586 56.9311 89.9184 55.4487 89.0128 54.5386C88.1072 53.6286 86.6276 53.0814 84.2784 53.0758C83.6637 53.0744 83.1665 52.5748 83.168 51.9601C83.1694 51.3646 83.6382 50.8794 84.2264 50.851L84.2837 50.8496L84.5015 50.8486C86.7251 50.8211 88.1439 50.2866 89.0255 49.4093C89.9355 48.5037 90.4829 47.0241 90.4884 44.6749C90.4898 44.0602 90.9893 43.563 91.604 43.5645ZM91.5894 49.691C91.3146 50.1665 90.9851 50.5999 90.5958 50.9874C90.2064 51.3748 89.7713 51.7021 89.2944 51.9746C89.77 52.2495 90.2034 52.579 90.5908 52.9683C90.9783 53.3577 91.3056 53.7927 91.5781 54.2696C91.8529 53.7941 92.1825 53.3607 92.5718 52.9733C92.9612 52.5858 93.3961 52.2584 93.873 51.9859C93.3975 51.7111 92.9642 51.3816 92.5767 50.9923C92.1893 50.6029 91.8619 50.1679 91.5894 49.691Z" fill="#34312C"/>
<path d="M8.37451 3.78761e-06C9.10708 0.00174388 9.69948 0.597046 9.69774 1.32962C9.69246 3.55594 10.2051 4.90365 11.0097 5.71219C11.8142 6.52065 13.159 7.0397 15.3852 7.045C16.1177 7.04674 16.7103 7.64205 16.7085 8.37462C16.7068 9.10718 16.1115 9.69959 15.3789 9.69786C13.1526 9.69257 11.805 10.2052 10.9964 11.0098C10.188 11.8143 9.66878 13.1592 9.66348 15.3854C9.66174 16.1179 9.06657 16.7105 8.33404 16.7088C7.60148 16.707 7.00893 16.1117 7.01065 15.3791C7.01594 13.1528 6.50343 11.8051 5.69889 10.9966C4.8944 10.1881 3.54942 9.66889 1.32323 9.66361C0.590708 9.66185 -0.00169352 9.06668 3.63752e-06 8.33415C0.00168928 7.62448 0.560349 7.04622 1.26125 7.01233L1.32961 7.01074L1.53578 7.00978C3.6396 6.98376 4.92886 6.47838 5.71212 5.69897C6.52059 4.89446 7.03962 3.54945 7.04491 1.32325C7.04667 0.590695 7.64196 -0.00172811 8.37451 3.78761e-06ZM8.35842 6.63583C8.13243 6.97393 7.87496 7.28915 7.58328 7.57939C7.29155 7.86969 6.97503 8.12572 6.63575 8.35008C6.97387 8.57608 7.28903 8.83368 7.5793 9.12539C7.86954 9.41708 8.12548 9.73354 8.34981 10.0728C8.57582 9.73464 8.83357 9.41948 9.12527 9.12921C9.41694 8.83898 9.73328 8.58285 10.0725 8.35852C9.73444 8.13255 9.41929 7.87502 9.12909 7.58338C8.8388 7.29164 8.58277 6.97512 8.35842 6.63583Z" fill="#34312C"/>
<path d="M46.2803 2.83105C63.7356 2.83105 79.0659 18.7355 79.4272 38.1196L79.4342 38.5957C79.5428 48.5399 77.1684 55.1582 73.7814 59.5313C73.258 60.207 72.2861 60.3305 71.6104 59.8071C70.9347 59.2838 70.8111 58.3118 71.3344 57.6361C74.237 53.8883 76.5139 47.876 76.3327 38.1774C75.9989 20.2675 61.844 5.92622 46.2803 5.92622C30.7494 5.92627 16.4267 19.8414 16.2301 37.9427L16.2285 38.1558C16.184 47.6791 18.4622 53.7053 21.3569 57.5386C21.872 58.2206 21.7367 59.1911 21.0547 59.7061C20.3727 60.2212 19.4022 60.0857 18.8872 59.4037C15.4908 54.9063 13.0866 48.1704 13.1335 38.1413L13.1352 37.9096C13.349 18.2459 28.9214 2.8311 46.2803 2.83105Z" fill="#34312C"/>
<path d="M70.0955 48.9951V44.6732C64.3376 42.7794 59.3706 37.6412 54.9551 30.6527C51.6294 34.4922 46.9619 37.5752 41.7681 39.8938C36.1926 42.3827 29.9155 44.0343 23.8139 44.7907V48.9951C23.8139 51.5361 24.0619 54.0233 24.5334 56.4109C24.699 57.2493 24.1535 58.0632 23.315 58.2288C22.4766 58.3944 21.6627 57.849 21.4971 57.0106C20.9864 54.4251 20.7188 51.737 20.7188 48.9951V43.4086C20.7188 42.6148 21.3195 41.9498 22.1092 41.8692C28.3471 41.2324 34.8356 39.599 40.5063 37.0675C46.1927 34.5291 50.9473 31.1374 53.8567 27.052L53.8857 27.0125C54.1917 26.6103 54.676 26.3819 55.1829 26.4035C55.7063 26.4258 56.1829 26.7113 56.4495 27.1622C61.3601 35.4713 66.5078 40.6465 72.0143 42.0075C72.7052 42.1782 73.1905 42.7981 73.1905 43.5098V48.9951C73.1905 51.998 72.8688 54.9371 72.2597 57.7467C72.0786 58.5819 71.2547 59.1122 70.4194 58.9312C69.5842 58.7501 69.0538 57.9262 69.2348 57.0909C69.7972 54.4968 70.0955 51.7776 70.0955 48.9951Z" fill="#34312C"/>
<path d="M54.6079 17.5415C55.4624 17.5517 56.1469 18.2527 56.1368 19.1072C56.1076 21.5593 56.1748 26.6732 56.3342 29.0811C56.3906 29.9339 55.7451 30.671 54.8923 30.7274C54.0395 30.7839 53.3023 30.1383 53.2459 29.2855C53.079 26.7628 53.0124 21.5589 53.042 19.0706C53.0521 18.216 53.7532 17.5313 54.6079 17.5415Z" fill="#34312C"/>
<path d="M33.9834 74.5809C34.8234 74.4236 35.6321 74.9771 35.7894 75.8172C36.497 79.5964 35.8341 84.907 35.0676 89.0901C34.6774 91.2196 34.2465 93.1261 33.9133 94.4999C33.7465 95.1873 33.6039 95.743 33.5025 96.1282C33.4518 96.3209 33.4113 96.471 33.3833 96.5739C33.3694 96.6253 33.3585 96.6649 33.351 96.6921C33.3473 96.7057 33.3444 96.7162 33.3424 96.7235C33.3414 96.7271 33.3406 96.7301 33.34 96.7321C33.3397 96.7331 33.3394 96.734 33.3392 96.7347C33.3391 96.7349 33.3391 96.7351 33.3391 96.7353C33.339 96.7356 33.3389 96.7359 31.8487 96.3186L33.3389 96.7358C33.1085 97.5588 32.2544 98.0393 31.4314 97.8089C30.6084 97.5784 30.1281 96.7244 30.3585 95.9014C30.3585 95.9011 30.3587 95.9007 30.3588 95.9002C30.3591 95.8991 30.3596 95.8971 30.3604 95.8943C30.3619 95.8888 30.3643 95.8802 30.3676 95.8685C30.374 95.845 30.3839 95.8092 30.3969 95.7616C30.4227 95.6665 30.4609 95.5245 30.5094 95.3405C30.6062 94.9724 30.7439 94.4362 30.9055 93.7703C31.2288 92.4372 31.6463 90.5899 32.0233 88.5323C32.7913 84.3411 33.3382 79.5434 32.7471 76.3869C32.5898 75.5469 33.1433 74.7382 33.9834 74.5809Z" fill="#34312C"/>
<path d="M56.3167 75.8172C56.474 74.9771 57.2825 74.4236 58.1225 74.5809C58.9626 74.7382 59.5161 75.5468 59.3588 76.3869C58.7678 79.5434 59.3148 84.3411 60.0828 88.5323C60.4598 90.5899 60.8773 92.4372 61.2006 93.7703C61.3621 94.4362 61.4998 94.9724 61.5967 95.3405C61.6451 95.5245 61.6833 95.6665 61.7092 95.7616C61.7221 95.8092 61.7319 95.845 61.7384 95.8685C61.7416 95.8802 61.744 95.8888 61.7455 95.8943C61.7463 95.8971 61.7469 95.8991 61.7473 95.9002L61.7476 95.9013L61.767 95.9786C61.9476 96.7772 61.4718 97.5856 60.6745 97.8089C59.8515 98.0393 58.9976 97.5588 58.7672 96.7358L60.2574 96.3186C58.7672 96.7359 58.7671 96.7355 58.767 96.7353C58.767 96.7351 58.7668 96.7349 58.7667 96.7346C58.7665 96.734 58.7664 96.7331 58.7661 96.7321C58.7655 96.73 58.7647 96.7271 58.7637 96.7235C58.7616 96.7162 58.7588 96.7057 58.7551 96.6921C58.7476 96.6649 58.7366 96.6253 58.7226 96.5739C58.6946 96.471 58.6542 96.3209 58.6036 96.1282C58.5022 95.743 58.3596 95.1873 58.1928 94.4999C57.8596 93.1261 57.4285 91.2196 57.0383 89.0901C56.2718 84.907 55.609 79.5964 56.3167 75.8172Z" fill="#34312C"/>
<path d="M23.1001 62.0961C23.8421 61.672 24.7874 61.9296 25.2115 62.6716C28.0154 67.5769 31.8161 71.7295 35.7002 74.6436C39.6257 77.5889 43.456 79.1376 46.3147 79.1376C49.1795 79.1376 52.9529 77.6254 56.8191 74.7485C60.6465 71.9004 64.3968 67.8362 67.2153 63.0217C67.6471 62.2841 68.5951 62.0362 69.3327 62.468C70.0702 62.8998 70.3181 63.8478 69.8863 64.5854C66.8575 69.7591 62.8269 74.1358 58.6667 77.2315C54.5453 80.2983 50.1244 82.2326 46.3147 82.2326C42.4988 82.2326 38.0164 80.2507 33.8427 77.1193C29.6274 73.9567 25.542 69.4864 22.5246 64.2076C22.1005 63.4656 22.3581 62.5203 23.1001 62.0961Z" fill="#34312C"/>
<path d="M12.6035 89.0042C12.6038 89.0041 12.6042 89.004 12.6046 89.0039H12.6048C12.6078 89.0028 12.6138 89.0005 12.6226 88.9972C12.6403 88.9906 12.6693 88.9796 12.7088 88.9642C12.7879 88.9333 12.9088 88.8847 13.0643 88.8184C13.3755 88.6857 13.8228 88.4831 14.3494 88.2096C15.4108 87.6585 16.7549 86.8403 17.9569 85.7569L17.9574 85.7562C19.2526 84.59 20.4127 83.2795 21.5661 81.9081C23.2783 79.8706 24.7041 77.575 26.042 75.179C26.4266 74.4889 26.9615 73.3125 27.17 72.2935C27.2562 71.8721 27.2648 71.5782 27.2436 71.3987C27.0478 71.4911 26.7869 71.6661 26.4729 71.9333C25.7784 72.5243 25.2236 73.1989 24.7488 73.6944L24.7487 73.6942C24.292 74.1713 23.865 74.6958 23.4208 75.2633C22.9918 75.8115 22.5201 76.4355 22.0415 77.011C21.2412 77.9744 20.0212 78.2058 19.0268 77.8421C18.0209 77.4741 17.2226 76.4795 17.3156 75.1822L17.7137 69.6141L17.7138 69.6134C17.8425 67.8245 18.6717 66.1452 20.0172 64.9353C21.5911 63.5178 23.9223 61.3162 25.5503 59.3409C26.3482 58.3727 26.8805 57.5718 27.1169 57.0092C26.7801 56.9815 26.267 57.0367 25.5179 57.2896C24.4133 57.6627 23.0924 58.3668 21.6594 59.2986C18.8048 61.1551 15.7777 63.7343 13.5867 65.728L13.5865 65.7281C11.8959 67.2661 10.8421 69.3606 10.6213 71.5718L9.25406 85.2911C9.23502 85.4823 9.18056 85.6682 9.09346 85.8394L3.40763 97.0155C3.0201 97.7773 2.08837 98.0807 1.32663 97.6932C0.564901 97.3056 0.261494 96.3739 0.649007 95.6121L6.20307 84.6949L7.54159 71.2646V71.2643C7.83958 68.2806 9.25591 65.4836 11.5038 63.4387C13.7326 61.4106 16.906 58.6979 19.9721 56.7039C21.4996 55.7106 23.0693 54.8498 24.5275 54.3573C25.9052 53.892 27.517 53.6425 28.9041 54.3414L28.9701 54.3755L28.9703 54.3756C29.6878 54.755 30.1594 55.3977 30.2894 56.1867C30.4029 56.8761 30.2338 57.5381 30.0312 58.059C29.6236 59.1073 28.8113 60.2503 27.9386 61.3092C26.1561 63.472 23.6805 65.8015 22.0876 67.236L22.0868 67.2368C21.3276 67.9195 20.8712 68.8573 20.8008 69.8355L20.5051 73.9711C20.659 73.7726 20.8172 73.5684 20.9836 73.3558C21.4439 72.7675 21.9475 72.145 22.5136 71.5536L22.5141 71.553C22.7882 71.2669 23.6154 70.3009 24.4671 69.5761C24.906 69.2027 25.446 68.8058 26.0432 68.5453C26.6342 68.2874 27.4599 68.0886 28.3274 68.4044H28.3275C28.3289 68.4049 28.3303 68.4055 28.3317 68.406C28.333 68.4065 28.3345 68.4069 28.3358 68.4074H28.3357C29.3999 68.7952 29.993 69.6263 30.2229 70.5237C30.4315 71.3377 30.3486 72.1983 30.2022 72.914C29.9053 74.3652 29.2092 75.8537 28.7455 76.6858L28.7448 76.6869C27.3681 79.1525 25.8314 81.6433 23.9351 83.8997L23.9348 83.9002C22.7584 85.2991 21.4874 86.7426 20.0285 88.0563C18.5681 89.3726 16.9804 90.3309 15.7757 90.9565C15.2611 91.2237 14.8091 91.4336 14.4566 91.5881L13.2845 96.6621C13.0921 97.4949 12.2611 98.014 11.4284 97.8216C10.5957 97.6292 10.0766 96.7983 10.269 95.9655L11.6215 90.1114L11.6333 90.0638C11.763 89.5738 12.1249 89.1771 12.6035 89.0042ZM12.603 89.0045C12.6026 89.0047 12.6024 89.0047 12.6024 89.0047C12.6024 89.0047 12.6025 89.0046 12.6027 89.0045H12.603Z" fill="#34312C"/>
<path d="M79.9003 89.0045C80.3939 89.1831 80.7633 89.5998 80.8815 90.1113L82.234 95.9653C82.4264 96.7981 81.9073 97.6291 81.0746 97.8215C80.2419 98.0139 79.4109 97.4948 79.2185 96.6621L78.0462 91.588C77.6938 91.4336 77.2418 91.2236 76.7273 90.9564C75.5225 90.3308 73.9346 89.3723 72.474 88.0558L72.4738 88.0556C71.017 86.7423 69.7464 85.299 68.5699 83.9001L68.5696 83.8997C66.6733 81.6432 65.1365 79.1524 63.7598 76.6869L63.7591 76.6858C63.2954 75.8536 62.5993 74.3651 62.3024 72.9139C62.156 72.1982 62.0732 71.3376 62.2818 70.5236C62.5124 69.624 63.1077 68.7908 64.1771 68.4044V68.4045C65.0446 68.0886 65.8703 68.2873 66.4614 68.5452C67.0586 68.8058 67.5987 69.2026 68.0376 69.5761C68.8893 70.3009 69.7163 71.2668 69.9905 71.5529L69.9911 71.5535C70.5573 72.145 71.0607 72.7675 71.521 73.3557C71.6874 73.5683 71.8455 73.7724 71.9993 73.9709L71.7038 69.8355L71.6961 69.7439C71.6076 68.8302 71.1812 67.9565 70.4873 67.3008L70.417 67.236C68.8241 65.8015 66.3484 63.472 64.566 61.3092C63.6933 60.2503 62.8811 59.1072 62.4735 58.059C62.2709 57.538 62.1017 56.8761 62.2152 56.1867C62.3452 55.3977 62.8168 54.7549 63.5343 54.3756L63.5346 54.3754C64.9365 53.6347 66.5775 53.8846 67.9771 54.3572C69.4353 54.8497 71.005 55.7105 72.5324 56.7039C75.5986 58.6979 78.772 61.4105 81.0008 63.4386L81.1056 63.535C83.258 65.5387 84.6257 68.2398 84.9482 71.1245L84.963 71.2642V71.2645L86.3015 84.6949L91.8556 95.6121C92.2431 96.3739 91.9397 97.3056 91.178 97.6931C90.4162 98.0806 89.4845 97.7772 89.097 97.0155L83.4111 85.8394C83.324 85.6682 83.2696 85.4822 83.2505 85.2911L81.8833 71.5717C81.6625 69.3605 80.6087 67.266 78.918 65.7281L78.9179 65.7279C76.7269 63.7343 73.6997 61.155 70.8451 59.2986C69.4122 58.3667 68.0915 57.6626 66.9868 57.2896C66.2377 57.0366 65.7245 56.9814 65.3876 57.0091C65.6241 57.5717 66.1565 58.3726 66.9545 59.3408C68.5827 61.3164 70.9143 63.5186 72.4882 64.936H72.4883C73.7887 66.1072 74.6097 67.719 74.7768 69.4459L74.7908 69.6134L74.7909 69.614L75.1889 75.1822L75.1926 75.2427C75.257 76.5104 74.468 77.4798 73.4777 77.842C72.4834 78.2058 71.2634 77.9744 70.4631 77.0111V77.011C69.9845 76.4355 69.5128 75.8114 69.0838 75.2633C68.6395 74.6955 68.2121 74.1709 67.7553 73.6937V73.6935C67.2807 73.1982 66.726 72.524 66.0318 71.9332C65.7178 71.666 65.4567 71.491 65.2608 71.3987C65.2396 71.5781 65.2484 71.8721 65.3346 72.2935C65.543 73.3124 66.078 74.4889 66.4626 75.179H66.4625C67.8004 77.5749 69.2263 79.8705 70.9385 81.908L71.1549 82.1644C72.2375 83.4427 73.3331 84.6632 74.5462 85.7568H74.5461C75.7481 86.8403 77.0922 87.6584 78.1536 88.2096C78.6802 88.483 79.1274 88.6857 79.4387 88.8184C79.5941 88.8846 79.7151 88.9332 79.7942 88.9642C79.8337 88.9796 79.8627 88.9905 79.8804 88.9971C79.8892 89.0004 79.8952 89.0027 79.8982 89.0038C79.8986 89.0039 79.899 89.004 79.8994 89.0042C79.9002 89.0045 79.9006 89.0046 79.9006 89.0046C79.9006 89.0046 79.9005 89.0045 79.9003 89.0045ZM72.8431 75.0327L72.8436 75.0332C72.8433 75.0328 72.8429 75.0323 72.8425 75.0319L72.8431 75.0327Z" fill="#34312C"/>
</svg>
