<svg width="98" height="104" viewBox="0 0 98 104" fill="none" xmlns="http://www.w3.org/2000/svg">
<path d="M37.8406 80.6818C38.7522 80.6818 39.4994 81.4288 39.4994 82.3401C39.4994 83.2514 38.7522 83.976 37.8406 83.976H8.43836C6.10212 83.976 3.99751 83.0423 2.47821 81.4985C0.936488 79.9796 0 77.8756 0 75.5401V25.049C0 24.1377 0.724782 23.4131 1.63636 23.4131H79.7709C80.6825 23.4131 81.4072 24.1377 81.4072 25.049V46.1488C81.4072 47.0601 80.6825 47.7847 79.7709 47.7847C78.8593 47.7847 78.1121 47.0601 78.1121 46.1488V26.7098H3.29514V75.5426C3.29514 76.9668 3.88045 78.2541 4.79203 79.1878C5.72603 80.1216 7.01121 80.6843 8.43836 80.6843H37.8406V80.6818Z" fill="#34312C"/>
<path d="M8.43835 8.22461H17.4371C18.3487 8.22461 19.0959 8.94918 19.0959 9.8605V14.5565C19.0959 15.0695 19.3051 15.56 19.6339 15.8887H19.6563C19.9826 16.2148 20.4508 16.4489 20.9639 16.4489H24.4234C24.9365 16.4489 25.4047 16.2148 25.7335 15.8887L25.8032 15.8189C26.1071 15.4928 26.2939 15.0471 26.2939 14.5565V9.8605C26.2939 8.94918 27.0187 8.22461 27.9303 8.22461H53.452C54.3636 8.22461 55.1108 8.94918 55.1108 9.8605V14.5565C55.1108 15.0695 55.3225 15.56 55.6488 15.8887H55.6712C55.9975 16.2397 56.4657 16.4489 56.9813 16.4489H60.4408C60.9539 16.4489 61.4221 16.2148 61.7484 15.8887L61.8182 15.8189C62.122 15.4928 62.3088 15.0471 62.3088 14.5565V9.8605C62.3088 8.94918 63.0336 8.22461 63.9452 8.22461H72.9664C75.2802 8.22461 77.4072 9.15834 78.9265 10.7021C80.4682 12.221 81.4047 14.3474 81.4047 16.6605V25.0492C81.4047 25.9605 80.6799 26.7075 79.7683 26.7075H1.63636C0.724782 26.7075 0 25.9605 0 25.0492V16.6605C0 14.3474 0.933997 12.221 2.47821 10.7021C3.99751 9.16083 6.09963 8.22461 8.43835 8.22461ZM15.8007 11.5188H8.43835C7.0137 11.5188 5.72603 12.1039 4.79203 13.0377C3.88045 13.949 3.29514 15.2338 3.29514 16.658V23.4108H78.1096V16.658C78.1096 15.2338 77.5243 13.9465 76.5903 13.0377C75.6563 12.1039 74.3711 11.5188 72.9688 11.5188H65.6065V14.5565C65.6065 15.936 65.0685 17.1735 64.1818 18.1072L64.0872 18.2242C63.1532 19.1604 61.8431 19.7431 60.4408 19.7431H56.9813C55.5791 19.7431 54.269 19.158 53.335 18.2242V18.2018C52.401 17.2681 51.8157 15.9808 51.8157 14.5565V11.5188H29.589V14.5565C29.589 15.936 29.0511 17.1735 28.1644 18.1072L28.0697 18.2242C27.1357 19.1604 25.8481 19.7431 24.4234 19.7431H20.9639C19.5392 19.7431 18.254 19.158 17.3176 18.2242C16.3811 17.2656 15.7983 15.9808 15.7983 14.5565V11.5188H15.8007Z" fill="#34312C"/>
<path d="M1.63636 26.7073C0.724782 26.7073 0 25.9603 0 25.049C0 24.1377 0.724782 23.4131 1.63636 23.4131H79.7709C80.6825 23.4131 81.4072 24.1377 81.4072 25.049C81.4072 25.9603 80.6825 26.7073 79.7709 26.7073H1.63636Z" fill="#34312C"/>
<path d="M20.9625 0H24.422C25.8467 0 27.1344 0.585137 28.0684 1.51887L28.163 1.63589C29.0522 2.56962 29.5877 3.80962 29.5877 5.16415V14.5562C29.5877 15.9805 29.0024 17.2678 28.0684 18.2239C27.1344 19.1601 25.8467 19.7428 24.422 19.7428H20.9625C19.5378 19.7428 18.2527 19.1576 17.3162 18.2239L17.2215 18.1069C16.3324 17.1731 15.7969 15.9332 15.7969 14.5562V5.16415C15.7969 3.76231 16.3822 2.4526 17.3162 1.51887C18.2502 0.585137 19.5354 0 20.9625 0ZM24.422 3.2942H20.9625C20.4494 3.2942 19.9812 3.50584 19.6549 3.85443H19.6325C19.3062 4.18062 19.0945 4.64873 19.0945 5.16166V14.5537C19.0945 15.0442 19.2813 15.4875 19.5852 15.8161L19.6549 15.8858C19.9812 16.212 20.4494 16.4461 20.9625 16.4461H24.422C24.9351 16.4461 25.4033 16.212 25.7321 15.8858H25.7545C26.0808 15.5597 26.2925 15.0691 26.2925 14.5537V5.16415C26.2925 4.69604 26.1057 4.25283 25.8019 3.90174L25.7321 3.85443C25.4058 3.50335 24.9376 3.2942 24.422 3.2942Z" fill="#34312C"/>
<path d="M56.982 0H60.4416C61.8438 0 63.1514 0.585137 64.0879 1.51887L64.1825 1.63589C65.0717 2.56962 65.6072 3.80962 65.6072 5.16415V14.5562C65.6072 15.9805 65.0219 17.2678 64.0879 18.2239C63.1539 19.1601 61.8438 19.7428 60.4416 19.7428H56.982C55.5798 19.7428 54.2697 19.1576 53.3357 18.2239V18.2015C52.4017 17.2678 51.8164 15.9805 51.8164 14.5562V5.16415C51.8164 3.76231 52.4017 2.47749 53.3357 1.51887C54.2697 0.585137 55.5798 0 56.982 0ZM60.4416 3.2942H56.982C56.4665 3.2942 56.0007 3.50584 55.672 3.85443H55.6495C55.3233 4.18062 55.1116 4.64873 55.1116 5.16166V14.5537C55.1116 15.0667 55.3233 15.5572 55.6495 15.8858H55.672C55.9982 16.2369 56.4665 16.4461 56.982 16.4461H60.4416C60.9546 16.4461 61.4229 16.212 61.7492 15.8858C62.1003 15.5597 62.3096 15.0691 62.3096 14.5537V5.16415C62.3096 4.69604 62.1228 4.25283 61.8189 3.90174L61.7492 3.85443C61.4229 3.50335 60.9546 3.2942 60.4416 3.2942Z" fill="#34312C"/>
<path d="M32.1589 63.0879C33.7703 63.0879 35.2448 63.7427 36.2959 64.8159L36.4129 64.9105C37.4191 65.9613 38.0269 67.388 38.0269 68.9766C38.0269 70.5652 37.3718 72.0617 36.2983 73.1124C35.2473 74.1881 33.7728 74.8404 32.1614 74.8404C30.5499 74.8404 29.0754 74.1856 28.002 73.1124C26.926 72.0617 26.2734 70.5901 26.2734 68.9766C26.2734 67.3631 26.9285 65.8692 28.002 64.8184C29.053 63.7427 30.525 63.0904 32.1614 63.0904L32.1589 63.0879ZM33.982 67.154C33.5138 66.6859 32.8612 66.3821 32.1589 66.3821C31.4565 66.3821 30.8039 66.6859 30.3357 67.154C29.8675 67.5972 29.5636 68.252 29.5636 68.9766C29.5636 69.7012 29.8675 70.3311 30.3357 70.7993C30.8039 71.2674 31.4341 71.5462 32.1589 71.5462C32.8836 71.5462 33.5138 71.2425 33.982 70.7993C34.4503 70.3311 34.7292 69.6788 34.7292 68.9766C34.7292 68.2744 34.4727 67.6694 34.0518 67.2013L33.982 67.154Z" fill="#34312C"/>
<path d="M15.053 63.0879C16.6894 63.0879 18.1613 63.7427 19.2124 64.8159L19.3046 64.9105C20.3108 65.9613 20.9409 67.388 20.9409 68.9766C20.9409 70.5652 20.2859 72.0617 19.2124 73.1124C18.1613 74.1881 16.6869 74.8404 15.053 74.8404C13.4191 74.8404 11.9671 74.1856 10.916 73.1124C9.84005 72.0617 9.1875 70.5901 9.1875 68.9766C9.1875 67.3631 9.84254 65.8692 10.916 64.8184C11.9671 63.7427 13.4415 63.0904 15.053 63.0904V63.0879ZM16.8762 67.154C16.4079 66.6859 15.7778 66.3821 15.053 66.3821C14.3282 66.3821 13.6981 66.6859 13.2298 67.154C12.7616 67.5972 12.4826 68.252 12.4826 68.9766C12.4826 69.7012 12.7616 70.3311 13.2298 70.7993C13.6981 71.2674 14.3506 71.5462 15.053 71.5462C15.7554 71.5462 16.4079 71.2425 16.8762 70.7993C17.3444 70.3311 17.6483 69.6788 17.6483 68.9766C17.6483 68.2744 17.3917 67.6694 16.9484 67.2013L16.8787 67.154H16.8762Z" fill="#34312C"/>
<path d="M32.1589 47.8291C33.7703 47.8291 35.2448 48.484 36.2959 49.5347L36.4129 49.6517C37.4191 50.7025 38.0269 52.1292 38.0269 53.6954C38.0269 55.2616 37.3718 56.7805 36.2983 57.8536C35.2473 58.9044 33.7728 59.5816 32.1614 59.5816C30.5499 59.5816 29.0754 58.9044 28.002 57.8536C26.926 56.778 26.2734 55.3064 26.2734 53.6954C26.2734 52.0844 26.9285 50.6104 28.002 49.5372C29.053 48.4864 30.525 47.8316 32.1614 47.8316L32.1589 47.8291ZM33.982 51.8703C33.5138 51.4022 32.8612 51.1233 32.1589 51.1233C31.4565 51.1233 30.8039 51.4022 30.3357 51.8703C29.8675 52.3384 29.5636 52.9908 29.5636 53.6929C29.5636 54.3951 29.8675 55.0475 30.3357 55.5156C30.8039 55.9837 31.4341 56.2625 32.1589 56.2625C32.8836 56.2625 33.5138 55.9812 33.982 55.5156C34.4503 55.0475 34.7292 54.4175 34.7292 53.6929C34.7292 53.0157 34.4727 52.3832 34.0518 51.94L33.982 51.8703Z" fill="#34312C"/>
<path d="M15.053 47.8291C16.6894 47.8291 18.1613 48.484 19.2124 49.5347L19.3046 49.6517C20.3108 50.7025 20.9409 52.1292 20.9409 53.6954C20.9409 55.2616 20.2859 56.7805 19.2124 57.8536C18.1613 58.9044 16.6869 59.5816 15.053 59.5816C13.4191 59.5816 11.9671 58.9044 10.916 57.8536C9.84005 56.778 9.1875 55.3064 9.1875 53.6954C9.1875 52.0844 9.84254 50.6104 10.916 49.5372C11.9671 48.4864 13.4415 47.8316 15.053 47.8316V47.8291ZM16.8762 51.8703C16.4079 51.4022 15.7778 51.1233 15.053 51.1233C14.3282 51.1233 13.6981 51.4022 13.2298 51.8703C12.7616 52.3384 12.4826 52.9908 12.4826 53.6929C12.4826 54.3951 12.7616 55.0475 13.2298 55.5156C13.6981 55.9837 14.3506 56.2625 15.053 56.2625C15.7554 56.2625 16.4079 55.9812 16.8762 55.5156H16.8986C17.3419 55.0475 17.6458 54.4175 17.6458 53.6929C17.6458 53.0157 17.3892 52.3832 16.9459 51.94L16.8762 51.8703Z" fill="#34312C"/>
<path d="M66.3289 32.5488C67.9653 32.5488 69.4149 33.2037 70.4883 34.2768C71.5643 35.3276 72.2168 36.7992 72.2168 38.4351C72.2168 40.0709 71.5618 41.5201 70.4883 42.5709C69.4373 43.6465 67.9653 44.2989 66.3289 44.2989C64.6926 44.2989 63.243 43.644 62.1919 42.5709L62.0973 42.4762C61.0687 41.4255 60.4609 39.9987 60.4609 38.4351C60.4609 36.8714 61.116 35.3276 62.1895 34.2768C63.2405 33.2012 64.7125 32.5488 66.3264 32.5488H66.3289ZM68.1745 36.6149C67.7063 36.1468 67.0512 35.843 66.3289 35.843C65.6066 35.843 64.974 36.1468 64.5058 36.6149C64.0375 37.083 63.7586 37.713 63.7586 38.4375C63.7586 39.1148 64.0151 39.7224 64.4609 40.1905L64.5083 40.2602C64.9765 40.7283 65.6291 41.0072 66.3314 41.0072C67.0338 41.0072 67.6863 40.7258 68.1546 40.2602C68.6228 39.7921 68.9267 39.1372 68.9267 38.4375C68.9267 37.7379 68.6228 37.083 68.1546 36.6149H68.177H68.1745Z" fill="#34312C"/>
<path d="M49.243 32.5488C50.8569 32.5488 52.3289 33.2037 53.4024 34.2768C54.4535 35.3276 55.1085 36.7992 55.1085 38.4351C55.1085 40.0709 54.4535 41.5201 53.4024 42.5709C52.3264 43.6465 50.8545 44.2989 49.243 44.2989C47.6315 44.2989 46.1571 43.644 45.0836 42.5709L44.9889 42.4762C43.9852 41.4255 43.375 39.9987 43.375 38.4351C43.375 36.8714 44.03 35.3276 45.0811 34.2768C46.1571 33.2012 47.629 32.5488 49.2405 32.5488H49.243ZM51.0662 36.6149C50.5979 36.1468 49.9678 35.843 49.243 35.843C48.5182 35.843 47.8881 36.1468 47.4198 36.6149C46.9516 37.083 46.6726 37.713 46.6726 38.4375C46.6726 39.1148 46.9292 39.7224 47.3501 40.1905L47.4198 40.2602C47.8881 40.7283 48.5406 41.0072 49.243 41.0072C49.9454 41.0072 50.5979 40.7258 51.0662 40.2602C51.5344 39.7921 51.8134 39.1372 51.8134 38.4375C51.8134 37.7379 51.5319 37.083 51.0662 36.6149Z" fill="#34312C"/>
<path d="M46.2308 52.2221C50.694 47.7601 56.5371 45.5391 62.3802 45.5391C68.2233 45.5391 74.0888 47.7576 78.5546 52.2221C83.0178 56.6841 85.2395 62.5255 85.2395 68.3918C85.2395 74.2581 83.0178 80.0746 78.5546 84.5366C74.0913 88.9986 68.2482 91.242 62.3802 91.242C56.5122 91.242 50.694 88.9986 46.2308 84.5366C41.7675 80.0746 39.5234 74.2332 39.5234 68.3918C39.5234 62.5504 41.7675 56.6865 46.2308 52.2221ZM62.3802 48.8333C57.379 48.8333 52.3777 50.7256 48.5446 54.5576C44.7339 58.3648 42.8186 63.3671 42.8186 68.3893C42.8186 73.4115 44.7364 78.3889 48.5446 82.2209C52.3777 86.0306 57.379 87.9453 62.3802 87.9453C67.3815 87.9453 72.4076 86.0306 76.2159 82.2209C80.049 78.3889 81.9419 73.3891 81.9419 68.3893C81.9419 63.3895 80.049 58.3648 76.2159 54.5576C72.4051 50.7256 67.4039 48.8333 62.3802 48.8333Z" fill="#34312C"/>
<path d="M50.6264 56.6142C53.8742 53.3673 58.1282 51.7314 62.3823 51.7314C66.6363 51.7314 70.9128 53.3673 74.1631 56.6142C77.4109 59.8611 79.0473 64.1139 79.0473 68.3917C79.0473 72.6694 77.4109 76.8973 74.1631 80.1442C70.9153 83.3911 66.6612 85.027 62.3823 85.027C58.1033 85.027 53.8742 83.3911 50.6264 80.1442C47.3786 76.8973 45.7422 72.6445 45.7422 68.3917C45.7422 64.1388 47.3786 59.8636 50.6264 56.6142ZM62.3823 55.0505C58.9701 55.0505 55.5579 56.3354 52.9402 58.9523C50.3449 61.5468 49.0373 64.9804 49.0373 68.3917C49.0373 71.8029 50.3449 75.2141 52.9402 77.831C55.5579 80.4256 58.9701 81.7328 62.3823 81.7328C65.7945 81.7328 69.2316 80.4256 71.8244 77.831C74.4421 75.2141 75.7497 71.8029 75.7497 68.3917C75.7497 64.9804 74.4421 61.5443 71.8244 58.9523C69.2291 56.3354 65.8169 55.0505 62.3823 55.0505Z" fill="#34312C"/>
<path d="M91.6463 100.333L94.3561 97.6212C94.5903 97.3871 94.7073 97.0834 94.7073 96.7572C94.7073 96.431 94.5903 96.1023 94.3561 95.8683L85.8954 87.4324C85.6612 87.2232 85.3798 87.1286 85.0784 87.1286C84.7522 87.1286 84.4458 87.2456 84.1893 87.4797L81.5018 90.1912C81.2453 90.4253 81.1282 90.7514 81.1282 91.0552C81.1282 91.3814 81.2453 91.7101 81.4794 91.9441H81.5018L89.9402 100.402C90.1743 100.589 90.4782 100.706 90.782 100.706C91.0859 100.706 91.4122 100.589 91.6463 100.333ZM96.6924 99.9593L93.9801 102.671C93.0909 103.56 91.9228 104.003 90.7771 104.003C89.6314 104.003 88.533 103.582 87.6687 102.765C87.6214 102.743 87.599 102.718 87.5517 102.671L79.1606 94.2822V94.2598C78.2715 93.3709 77.8281 92.228 77.8281 91.0577C77.8281 89.8874 78.2715 88.7445 79.1606 87.8556L81.873 85.1466C82.7372 84.2577 83.9053 83.8145 85.0759 83.8145C86.2466 83.8145 87.2951 84.2353 88.1619 85.052L88.2789 85.1466L96.6924 93.5576C97.5566 94.4465 98.0025 95.5894 98.0025 96.7597C98.0025 97.93 97.5591 99.0728 96.6924 99.9618V99.9593Z" fill="#34312C"/>
<path d="M81.1473 85.8684L79.1597 83.9064C78.9505 84.1404 78.7388 84.3496 78.552 84.5363C78.3652 84.7231 78.1535 84.9347 77.897 85.1663L79.8845 87.1284L81.1473 85.866V85.8684ZM80.2357 80.3084L84.6765 84.748V84.7704C84.7712 84.8401 84.8409 84.9347 84.9107 85.0269C85.4013 85.7987 85.1672 86.8271 84.3951 87.2927C84.3478 87.34 84.3254 87.3624 84.278 87.3873L84.1834 87.4819L81.5657 90.0989L81.4013 90.2856H81.3764L81.354 90.3553C81.2843 90.4724 81.1896 90.5645 81.0975 90.6815C80.4424 91.3115 79.4138 91.3115 78.7612 90.6815L74.3204 86.2419C74.2731 86.1946 74.2257 86.1473 74.1809 86.0776C73.6205 85.3754 73.7376 84.3247 74.4623 83.7644C74.8135 83.508 75.1174 83.2515 75.3739 83.0175C75.608 82.8058 75.887 82.5269 76.2158 82.2232C76.542 81.897 76.8235 81.6156 77.0327 81.3592C77.2419 81.1251 77.476 80.8462 77.7326 80.5176C77.7799 80.4478 77.8496 80.3781 77.897 80.3084C78.552 79.6784 79.6031 79.6784 80.2332 80.3084H80.2357Z" fill="#34312C"/>
<path d="M68.4339 61.7081C69.0192 61.0059 70.0703 60.9362 70.7478 61.5437C71.4252 62.1289 71.495 63.1796 70.8872 63.8569L61.0715 75.0716C60.4887 75.7489 59.4352 75.8186 58.7577 75.2111C58.7104 75.1637 58.6407 75.1164 58.5933 75.0467L53.871 69.6734C53.2882 68.9962 53.358 67.9454 54.0354 67.3603C54.7129 66.7527 55.7415 66.8224 56.3493 67.4997L59.8312 71.4936L68.4314 61.7031L68.4339 61.7081Z" fill="#34312C"/>
</svg>
