<svg width="150" height="150" viewBox="0 0 150 150" fill="none" xmlns="http://www.w3.org/2000/svg">
<path d="M67.8406 105.682C68.7522 105.682 69.4994 106.429 69.4994 107.34C69.4994 108.251 68.7522 108.976 67.8406 108.976H38.4384C36.1021 108.976 33.9975 108.042 32.4782 106.499C30.9365 104.98 30 102.876 30 100.54V50.049C30 49.1377 30.7248 48.4131 31.6364 48.4131H109.771C110.682 48.4131 111.407 49.1377 111.407 50.049V71.1488C111.407 72.0601 110.682 72.7847 109.771 72.7847C108.859 72.7847 108.112 72.0601 108.112 71.1488V51.7098H33.2951V100.543C33.2951 101.967 33.8804 103.254 34.792 104.188C35.726 105.122 37.0112 105.684 38.4384 105.684H67.8406V105.682Z" fill="#34312C"/>
<path d="M38.4384 33.2246H47.4371C48.3487 33.2246 49.0959 33.9492 49.0959 34.8605V39.5565C49.0959 40.0695 49.3051 40.56 49.6339 40.8887H49.6563C49.9826 41.2148 50.4508 41.4489 50.9639 41.4489H54.4234C54.9365 41.4489 55.4047 41.2148 55.7335 40.8887L55.8032 40.8189C56.1071 40.4928 56.2939 40.0471 56.2939 39.5565V34.8605C56.2939 33.9492 57.0187 33.2246 57.9303 33.2246H83.452C84.3636 33.2246 85.1108 33.9492 85.1108 34.8605V39.5565C85.1108 40.0695 85.3225 40.56 85.6488 40.8887H85.6712C85.9975 41.2397 86.4657 41.4489 86.9813 41.4489H90.4408C90.9539 41.4489 91.4221 41.2148 91.7484 40.8887L91.8182 40.8189C92.122 40.4928 92.3088 40.0471 92.3088 39.5565V34.8605C92.3088 33.9492 93.0336 33.2246 93.9452 33.2246H102.966C105.28 33.2246 107.407 34.1583 108.927 35.7021C110.468 37.221 111.405 39.3474 111.405 41.6605V50.0492C111.405 50.9605 110.68 51.7075 109.768 51.7075H31.6364C30.7248 51.7075 30 50.9605 30 50.0492V41.6605C30 39.3474 30.934 37.221 32.4782 35.7021C33.9975 34.1608 36.0996 33.2246 38.4384 33.2246ZM45.8007 36.5188H38.4384C37.0137 36.5188 35.726 37.1039 34.792 38.0377C33.8804 38.949 33.2951 40.2338 33.2951 41.658V48.4108H108.11V41.658C108.11 40.2338 107.524 38.9465 106.59 38.0377C105.656 37.1039 104.371 36.5188 102.969 36.5188H95.6065V39.5565C95.6065 40.936 95.0685 42.1735 94.1818 43.1072L94.0872 43.2242C93.1532 44.1604 91.8431 44.7431 90.4408 44.7431H86.9813C85.5791 44.7431 84.269 44.158 83.335 43.2242V43.2018C82.401 42.2681 81.8157 40.9808 81.8157 39.5565V36.5188H59.589V39.5565C59.589 40.936 59.0511 42.1735 58.1644 43.1072L58.0697 43.2242C57.1357 44.1604 55.8481 44.7431 54.4234 44.7431H50.9639C49.5392 44.7431 48.254 44.158 47.3176 43.2242C46.3811 42.2656 45.7983 40.9808 45.7983 39.5565V36.5188H45.8007Z" fill="#34312C"/>
<path d="M31.6364 51.7073C30.7248 51.7073 30 50.9603 30 50.049C30 49.1377 30.7248 48.4131 31.6364 48.4131H109.771C110.682 48.4131 111.407 49.1377 111.407 50.049C111.407 50.9603 110.682 51.7073 109.771 51.7073H31.6364Z" fill="#34312C"/>
<path d="M50.9625 25H54.422C55.8467 25 57.1344 25.5851 58.0684 26.5189L58.163 26.6359C59.0522 27.5696 59.5877 28.8096 59.5877 30.1641V39.5562C59.5877 40.9805 59.0024 42.2678 58.0684 43.2239C57.1344 44.1601 55.8467 44.7428 54.422 44.7428H50.9625C49.5378 44.7428 48.2527 44.1576 47.3162 43.2239L47.2215 43.1069C46.3324 42.1731 45.7969 40.9332 45.7969 39.5562V30.1641C45.7969 28.7623 46.3822 27.4526 47.3162 26.5189C48.2502 25.5851 49.5354 25 50.9625 25ZM54.422 28.2942H50.9625C50.4494 28.2942 49.9812 28.5058 49.6549 28.8544H49.6325C49.3062 29.1806 49.0945 29.6487 49.0945 30.1617V39.5537C49.0945 40.0442 49.2813 40.4875 49.5852 40.8161L49.6549 40.8858C49.9812 41.212 50.4494 41.4461 50.9625 41.4461H54.422C54.9351 41.4461 55.4034 41.212 55.7321 40.8858H55.7545C56.0808 40.5597 56.2925 40.0691 56.2925 39.5537V30.1641C56.2925 29.696 56.1057 29.2528 55.8019 28.9017L55.7321 28.8544C55.4058 28.5034 54.9376 28.2942 54.422 28.2942Z" fill="#34312C"/>
<path d="M86.982 25H90.4416C91.8438 25 93.1514 25.5851 94.0879 26.5189L94.1825 26.6359C95.0717 27.5696 95.6072 28.8096 95.6072 30.1641V39.5562C95.6072 40.9805 95.0219 42.2678 94.0879 43.2239C93.1539 44.1601 91.8438 44.7428 90.4416 44.7428H86.982C85.5798 44.7428 84.2697 44.1576 83.3357 43.2239V43.2015C82.4017 42.2678 81.8164 40.9805 81.8164 39.5562V30.1641C81.8164 28.7623 82.4017 27.4775 83.3357 26.5189C84.2697 25.5851 85.5798 25 86.982 25ZM90.4416 28.2942H86.982C86.4665 28.2942 86.0007 28.5058 85.672 28.8544H85.6495C85.3233 29.1806 85.1116 29.6487 85.1116 30.1617V39.5537C85.1116 40.0667 85.3233 40.5572 85.6495 40.8858H85.672C85.9982 41.2369 86.4665 41.4461 86.982 41.4461H90.4416C90.9546 41.4461 91.4229 41.212 91.7492 40.8858C92.1003 40.5597 92.3096 40.0691 92.3096 39.5537V30.1641C92.3096 29.696 92.1228 29.2528 91.8189 28.9017L91.7492 28.8544C91.4229 28.5034 90.9546 28.2942 90.4416 28.2942Z" fill="#34312C"/>
<path d="M62.1589 88.0879C63.7703 88.0879 65.2448 88.7427 66.2959 89.8159L66.4129 89.9105C67.4191 90.9613 68.0269 92.388 68.0269 93.9766C68.0269 95.5652 67.3718 97.0617 66.2983 98.1124C65.2473 99.1881 63.7728 99.8404 62.1614 99.8404C60.5499 99.8404 59.0754 99.1856 58.002 98.1124C56.926 97.0617 56.2734 95.5901 56.2734 93.9766C56.2734 92.3631 56.9285 90.8692 58.002 89.8184C59.053 88.7427 60.525 88.0904 62.1614 88.0904L62.1589 88.0879ZM63.982 92.154C63.5138 91.6859 62.8612 91.3821 62.1589 91.3821C61.4565 91.3821 60.8039 91.6859 60.3357 92.154C59.8675 92.5972 59.5636 93.252 59.5636 93.9766C59.5636 94.7012 59.8675 95.3311 60.3357 95.7993C60.8039 96.2674 61.4341 96.5462 62.1589 96.5462C62.8836 96.5462 63.5138 96.2425 63.982 95.7993C64.4503 95.3311 64.7292 94.6788 64.7292 93.9766C64.7292 93.2744 64.4727 92.6694 64.0518 92.2013L63.982 92.154Z" fill="#34312C"/>
<path d="M45.053 88.0879C46.6894 88.0879 48.1613 88.7427 49.2124 89.8159L49.3046 89.9105C50.3108 90.9613 50.9409 92.388 50.9409 93.9766C50.9409 95.5652 50.2859 97.0617 49.2124 98.1124C48.1613 99.1881 46.6869 99.8404 45.053 99.8404C43.4191 99.8404 41.9671 99.1856 40.916 98.1124C39.8401 97.0617 39.1875 95.5901 39.1875 93.9766C39.1875 92.3631 39.8425 90.8692 40.916 89.8184C41.9671 88.7427 43.4415 88.0904 45.053 88.0904V88.0879ZM46.8762 92.154C46.4079 91.6859 45.7778 91.3821 45.053 91.3821C44.3282 91.3821 43.6981 91.6859 43.2298 92.154C42.7616 92.5972 42.4826 93.252 42.4826 93.9766C42.4826 94.7012 42.7616 95.3311 43.2298 95.7993C43.6981 96.2674 44.3506 96.5462 45.053 96.5462C45.7554 96.5462 46.4079 96.2425 46.8762 95.7993C47.3444 95.3311 47.6483 94.6788 47.6483 93.9766C47.6483 93.2744 47.3917 92.6694 46.9484 92.2013L46.8787 92.154H46.8762Z" fill="#34312C"/>
<path d="M62.1589 72.8291C63.7703 72.8291 65.2448 73.484 66.2959 74.5347L66.4129 74.6517C67.4191 75.7025 68.0269 77.1292 68.0269 78.6954C68.0269 80.2616 67.3718 81.7805 66.2983 82.8536C65.2473 83.9044 63.7728 84.5816 62.1614 84.5816C60.5499 84.5816 59.0754 83.9044 58.002 82.8536C56.926 81.778 56.2734 80.3064 56.2734 78.6954C56.2734 77.0844 56.9285 75.6104 58.002 74.5372C59.053 73.4864 60.525 72.8316 62.1614 72.8316L62.1589 72.8291ZM63.982 76.8703C63.5138 76.4022 62.8612 76.1233 62.1589 76.1233C61.4565 76.1233 60.8039 76.4022 60.3357 76.8703C59.8675 77.3384 59.5636 77.9908 59.5636 78.6929C59.5636 79.3951 59.8675 80.0475 60.3357 80.5156C60.8039 80.9837 61.4341 81.2625 62.1589 81.2625C62.8836 81.2625 63.5138 80.9812 63.982 80.5156C64.4503 80.0475 64.7292 79.4175 64.7292 78.6929C64.7292 78.0157 64.4727 77.3832 64.0518 76.94L63.982 76.8703Z" fill="#34312C"/>
<path d="M45.053 72.8291C46.6894 72.8291 48.1613 73.484 49.2124 74.5347L49.3046 74.6517C50.3108 75.7025 50.9409 77.1292 50.9409 78.6954C50.9409 80.2616 50.2859 81.7805 49.2124 82.8536C48.1613 83.9044 46.6869 84.5816 45.053 84.5816C43.4191 84.5816 41.9671 83.9044 40.916 82.8536C39.8401 81.778 39.1875 80.3064 39.1875 78.6954C39.1875 77.0844 39.8425 75.6104 40.916 74.5372C41.9671 73.4864 43.4415 72.8316 45.053 72.8316V72.8291ZM46.8762 76.8703C46.4079 76.4022 45.7778 76.1233 45.053 76.1233C44.3282 76.1233 43.6981 76.4022 43.2298 76.8703C42.7616 77.3384 42.4826 77.9908 42.4826 78.6929C42.4826 79.3951 42.7616 80.0475 43.2298 80.5156C43.6981 80.9837 44.3506 81.2625 45.053 81.2625C45.7554 81.2625 46.4079 80.9812 46.8762 80.5156H46.8986C47.3419 80.0475 47.6458 79.4175 47.6458 78.6929C47.6458 78.0157 47.3892 77.3832 46.9459 76.94L46.8762 76.8703Z" fill="#34312C"/>
<path d="M96.3289 57.5488C97.9653 57.5488 99.4149 58.2037 100.488 59.2768C101.564 60.3276 102.217 61.7992 102.217 63.4351C102.217 65.0709 101.562 66.5201 100.488 67.5709C99.4373 68.6465 97.9653 69.2989 96.3289 69.2989C94.6926 69.2989 93.243 68.644 92.1919 67.5709L92.0973 67.4762C91.0687 66.4255 90.4609 64.9987 90.4609 63.4351C90.4609 61.8714 91.116 60.3276 92.1895 59.2768C93.2405 58.2012 94.7125 57.5488 96.3264 57.5488H96.3289ZM98.1745 61.6149C97.7063 61.1468 97.0512 60.843 96.3289 60.843C95.6066 60.843 94.974 61.1468 94.5058 61.6149C94.0375 62.083 93.7586 62.713 93.7586 63.4375C93.7586 64.1148 94.0151 64.7224 94.4609 65.1905L94.5083 65.2602C94.9765 65.7283 95.6291 66.0072 96.3314 66.0072C97.0338 66.0072 97.6863 65.7258 98.1546 65.2602C98.6228 64.7921 98.9267 64.1372 98.9267 63.4375C98.9267 62.7379 98.6228 62.083 98.1546 61.6149H98.177H98.1745Z" fill="#34312C"/>
<path d="M79.243 57.5488C80.8569 57.5488 82.3289 58.2037 83.4024 59.2768C84.4535 60.3276 85.1085 61.7992 85.1085 63.4351C85.1085 65.0709 84.4535 66.5201 83.4024 67.5709C82.3264 68.6465 80.8545 69.2989 79.243 69.2989C77.6315 69.2989 76.1571 68.644 75.0836 67.5709L74.9889 67.4762C73.9852 66.4255 73.375 64.9987 73.375 63.4351C73.375 61.8714 74.03 60.3276 75.0811 59.2768C76.1571 58.2012 77.629 57.5488 79.2405 57.5488H79.243ZM81.0662 61.6149C80.5979 61.1468 79.9678 60.843 79.243 60.843C78.5182 60.843 77.8881 61.1468 77.4198 61.6149C76.9516 62.083 76.6726 62.713 76.6726 63.4375C76.6726 64.1148 76.9292 64.7224 77.3501 65.1905L77.4198 65.2602C77.8881 65.7283 78.5406 66.0072 79.243 66.0072C79.9454 66.0072 80.5979 65.7258 81.0662 65.2602C81.5344 64.7921 81.8134 64.1372 81.8134 63.4375C81.8134 62.7379 81.5319 62.083 81.0662 61.6149Z" fill="#34312C"/>
<path d="M76.2308 77.2221C80.694 72.7601 86.5371 70.5391 92.3802 70.5391C98.2233 70.5391 104.089 72.7576 108.555 77.2221C113.018 81.6841 115.24 87.5255 115.24 93.3918C115.24 99.2581 113.018 105.075 108.555 109.537C104.091 113.999 98.2482 116.242 92.3802 116.242C86.5122 116.242 80.694 113.999 76.2308 109.537C71.7675 105.075 69.5234 99.2332 69.5234 93.3918C69.5234 87.5504 71.7675 81.6865 76.2308 77.2221ZM92.3802 73.8333C87.379 73.8333 82.3777 75.7256 78.5446 79.5576C74.7339 83.3648 72.8186 88.3671 72.8186 93.3893C72.8186 98.4115 74.7364 103.389 78.5446 107.221C82.3777 111.031 87.379 112.945 92.3802 112.945C97.3815 112.945 102.408 111.031 106.216 107.221C110.049 103.389 111.942 98.3891 111.942 93.3893C111.942 88.3895 110.049 83.3648 106.216 79.5576C102.405 75.7256 97.4039 73.8333 92.3802 73.8333Z" fill="#34312C"/>
<path d="M80.6264 81.6142C83.8742 78.3673 88.1282 76.7314 92.3823 76.7314C96.6363 76.7314 100.913 78.3673 104.163 81.6142C107.411 84.8611 109.047 89.1139 109.047 93.3917C109.047 97.6694 107.411 101.897 104.163 105.144C100.915 108.391 96.6612 110.027 92.3823 110.027C88.1033 110.027 83.8742 108.391 80.6264 105.144C77.3786 101.897 75.7422 97.6445 75.7422 93.3917C75.7422 89.1388 77.3786 84.8636 80.6264 81.6142ZM92.3823 80.0505C88.9701 80.0505 85.5579 81.3354 82.9402 83.9523C80.3449 86.5468 79.0373 89.9804 79.0373 93.3917C79.0373 96.8029 80.3449 100.214 82.9402 102.831C85.5579 105.426 88.9701 106.733 92.3823 106.733C95.7945 106.733 99.2316 105.426 101.824 102.831C104.442 100.214 105.75 96.8029 105.75 93.3917C105.75 89.9804 104.442 86.5443 101.824 83.9523C99.2291 81.3354 95.8169 80.0505 92.3823 80.0505Z" fill="#34312C"/>
<path d="M121.646 125.333L124.356 122.621C124.59 122.387 124.707 122.083 124.707 121.757C124.707 121.431 124.59 121.102 124.356 120.868L115.895 112.432C115.661 112.223 115.38 112.129 115.078 112.129C114.752 112.129 114.446 112.246 114.189 112.48L111.502 115.191C111.245 115.425 111.128 115.751 111.128 116.055C111.128 116.381 111.245 116.71 111.479 116.944H111.502L119.94 125.402C120.174 125.589 120.478 125.706 120.782 125.706C121.086 125.706 121.412 125.589 121.646 125.333ZM126.692 124.959L123.98 127.671C123.091 128.56 121.923 129.003 120.777 129.003C119.631 129.003 118.533 128.582 117.669 127.765C117.621 127.743 117.599 127.718 117.552 127.671L109.161 119.282V119.26C108.271 118.371 107.828 117.228 107.828 116.058C107.828 114.887 108.271 113.745 109.161 112.856L111.873 110.147C112.737 109.258 113.905 108.814 115.076 108.814C116.247 108.814 117.295 109.235 118.162 110.052L118.279 110.147L126.692 118.558C127.557 119.447 128.002 120.589 128.002 121.76C128.002 122.93 127.559 124.073 126.692 124.962V124.959Z" fill="#34312C"/>
<path d="M111.147 110.868L109.16 108.906C108.951 109.14 108.739 109.35 108.552 109.536C108.365 109.723 108.154 109.935 107.897 110.166L109.885 112.128L111.147 110.866V110.868ZM110.236 105.308L114.677 109.748V109.77C114.771 109.84 114.841 109.935 114.911 110.027C115.401 110.799 115.167 111.827 114.395 112.293C114.348 112.34 114.325 112.362 114.278 112.387L114.183 112.482L111.566 115.099L111.401 115.286H111.376L111.354 115.355C111.284 115.472 111.19 115.564 111.097 115.682C110.442 116.311 109.414 116.311 108.761 115.682L104.32 111.242C104.273 111.195 104.226 111.147 104.181 111.078C103.62 110.375 103.738 109.325 104.462 108.764C104.814 108.508 105.117 108.252 105.374 108.017C105.608 107.806 105.887 107.527 106.216 107.223C106.542 106.897 106.823 106.616 107.033 106.359C107.242 106.125 107.476 105.846 107.733 105.518C107.78 105.448 107.85 105.378 107.897 105.308C108.552 104.678 109.603 104.678 110.233 105.308H110.236Z" fill="#34312C"/>
<path d="M98.4339 86.7081C99.0192 86.0059 100.07 85.9362 100.748 86.5437C101.425 87.1289 101.495 88.1796 100.887 88.8569L91.0715 100.072C90.4887 100.749 89.4352 100.819 88.7577 100.211C88.7104 100.164 88.6407 100.116 88.5933 100.047L83.871 94.6734C83.2882 93.9962 83.358 92.9454 84.0354 92.3603C84.7129 91.7527 85.7415 91.8224 86.3493 92.4997L89.8312 96.4936L98.4314 86.7031L98.4339 86.7081Z" fill="#34312C"/>
</svg>
